<?xml version="1.0" encoding="utf-8"?>
<!-- Generator: Adobe Illustrator 22.0.1, SVG Export Plug-In . SVG Version: 6.00 Build 0)  -->
<svg version="1.1" id="Capa_1" xmlns="http://www.w3.org/2000/svg" xmlns:xlink="http://www.w3.org/1999/xlink" x="0px" y="0px"
	 viewBox="0 0 110.9 144.2" style="enable-background:new 0 0 110.9 144.2;" xml:space="preserve">
<style type="text/css">
	.st0{fill:#EF7B4F;}
	.st1{fill:#FFFFFF;}
</style>
<g>
	<path class="st0" d="M55.9,48.4c-19.6,0-35.2,15.5-35.2,35.2c0,19.4,15.7,35.1,35.1,35.1S90.9,103,90.9,83.5
		C90.8,64,75.3,48.4,55.9,48.4z"/>
	<path class="st0" d="M103.8,25.4c-3.1,0-6.3,0-9.4,0h-3.9c-3.2,0-6.5,0-9.7,0c-0.3,0-0.5,0-0.8,0h-1.4v-6.6c-2.3,0-4.2,0-6.2,0
		s-3.9,0-6,0c1.8-7.8,0.5-12.4-4.2-15.6c-3.8-2.6-9.3-2.8-13.1-0.3c-5.7,3.8-6.6,9.3-4.6,15.8c-3.8,0-7.5,0-11.3,0v6.7h-2.6
		c-0.2,0-0.4,0-0.7,0c-3.6,0-7.2,0-10.7,0h-1.6c-3.5,0-7,0-10.5,0c-0.8,0-1.5,0-2.5,0c0,1.1,0,1.9,0,2.6c0,37.4,0,74.9,0,112.3
		c0,2.1,0.5,2.7,2.6,2.7c32.2-0.1,64.5,0,96.7,0c0.7,0,1.4,0,2.4,0c0-39.3,0-78.3,0-117.6C105.4,25.4,104.6,25.4,103.8,25.4z
		 M99.3,40.1v88v7.5h-2.5c-0.1,0-0.3,0-0.4,0c-9,0-18.1,0-27.1,0H19.7h-7.5v-7.5v-88v-7.5h7.5H33v5.2c15.2,0,30.3,0,45.6,0v-5.2
		h13.3h7.5v7.5H99.3z"/>
</g>
<polygon class="st1" points="50.3,76.1 40.2,65.9 33.8,72.2 44,82.3 50.3,88.6 56.6,82.3 77.1,62 70.8,55.5 "/>
</svg>
