<?xml version="1.0" encoding="utf-8"?>
<!-- Generator: Adobe Illustrator 22.0.0, SVG Export Plug-In . SVG Version: 6.00 Build 0)  -->
<svg version="1.1" id="Capa_1" xmlns="http://www.w3.org/2000/svg" xmlns:xlink="http://www.w3.org/1999/xlink" x="0px" y="0px"
	 viewBox="0 0 231.9 217.6" style="enable-background:new 0 0 231.9 217.6;" xml:space="preserve">
<style type="text/css">
	.st0{fill-rule:evenodd;clip-rule:evenodd;fill:#EF7B4F;}
	.st1{fill-rule:evenodd;clip-rule:evenodd;fill:none;}
</style>
<g>
	<path class="st0" d="M132.3,92.3c0.8,0.3,1.7,0.6,2.6,0.8c0.2,0.1,0.3,0.1,0.3,0.4c0.2,1.5,0.4,3.1,0.6,4.6c0,0.1,0,0.1,0.1,0.2
		c1.2,0.1,2.4,0.1,3.6,0.2c0.1-0.6,0.3-1.3,0.4-1.9c0.2-1,0.4-1.9,0.6-2.9c0-0.2,0.1-0.3,0.3-0.3c0.9-0.2,1.7-0.3,2.6-0.6
		c0.3-0.1,0.4,0,0.6,0.2c0.9,1.2,1.8,2.4,2.7,3.6c0.1,0.1,0.1,0.2,0.2,0.3c1.1-0.5,2.1-1.1,3.2-1.6c-0.2-0.6-0.4-1.2-0.6-1.9
		c-0.3-0.9-0.6-1.9-0.9-2.8c-0.1-0.2,0-0.3,0.1-0.5c0.7-0.6,1.3-1.2,2-1.8c0.2-0.2,0.3-0.2,0.5-0.1c1.4,0.6,2.7,1.1,4.1,1.7
		c0.1,0.1,0.3,0.1,0.4,0.2c0.6-1,1.3-2,1.9-3c-0.1-0.1-0.2-0.2-0.3-0.3c-1.1-1-2.2-2-3.3-3c-0.2-0.2-0.2-0.3-0.1-0.6
		c0.3-0.8,0.6-1.7,0.8-2.5c0.1-0.2,0.1-0.3,0.4-0.4c1.6-0.2,3.2-0.4,4.8-0.6c0.1-1.2,0.1-2.4,0.2-3.6c-1.6-0.4-3.2-0.7-4.8-1.1
		c-0.2,0-0.3-0.1-0.4-0.4c-0.2-0.9-0.4-1.8-0.6-2.6c-0.1-0.2,0-0.4,0.2-0.5c1.2-0.9,2.4-1.8,3.6-2.7c0.1-0.1,0.2-0.2,0.3-0.3
		c-0.6-1.1-1.1-2.1-1.6-3.2c-1.1,0.3-2.2,0.7-3.2,1c-0.5,0.2-1,0.3-1.5,0.5c-0.1,0-0.3,0-0.4-0.1c-0.6-0.7-1.3-1.4-1.9-2.1
		c-0.2-0.2-0.1-0.3,0-0.4c0.6-1.4,1.1-2.7,1.7-4.1c0.1-0.1,0.1-0.3,0.2-0.4c-1-0.7-2-1.3-3-2c-0.4,0.4-0.8,0.9-1.2,1.3
		c-0.7,0.8-1.4,1.5-2.1,2.3c-0.2,0.2-0.3,0.2-0.5,0.1c-0.8-0.3-1.7-0.6-2.6-0.8c-0.2-0.1-0.3-0.1-0.3-0.4c-0.2-1.6-0.4-3.3-0.6-4.9
		c-1.2-0.1-2.4-0.1-3.6-0.2c-0.4,1.6-0.7,3.2-1.1,4.8c-0.1,0.2-0.2,0.3-0.4,0.4c-0.9,0.2-1.7,0.3-2.6,0.5c-0.3,0.1-0.4,0-0.6-0.2
		c-0.9-1.2-1.8-2.4-2.7-3.6c-0.1-0.1-0.1-0.2-0.2-0.3c-1.1,0.5-2.1,1.1-3.2,1.6c0.3,0.8,0.5,1.6,0.8,2.4c0.2,0.7,0.5,1.5,0.7,2.2
		c0.1,0.2,0,0.3-0.1,0.5c-0.7,0.6-1.3,1.2-2,1.8c-0.2,0.2-0.3,0.2-0.5,0.1c-1.4-0.6-2.8-1.2-4.2-1.8c-0.1,0-0.2-0.1-0.3-0.1
		c-0.6,1-1.3,2-1.9,3c0.1,0.1,0.1,0.2,0.2,0.2c1.1,1,2.2,2.1,3.3,3.1c0.2,0.2,0.2,0.3,0.1,0.6c-0.3,0.8-0.6,1.7-0.8,2.5
		c-0.1,0.2-0.1,0.3-0.4,0.3c-1.6,0.2-3.3,0.4-4.9,0.6c-0.1,1.2-0.1,2.4-0.2,3.6c1.6,0.4,3.2,0.7,4.8,1.1c0.2,0.1,0.3,0.2,0.4,0.4
		c0.2,0.9,0.3,1.7,0.5,2.6c0.1,0.3,0,0.4-0.2,0.6c-1.2,0.9-2.4,1.8-3.6,2.7c-0.1,0.1-0.2,0.1-0.3,0.2c0.5,1.1,1.1,2.1,1.6,3.2
		c0.9-0.3,1.8-0.5,2.7-0.8c0.7-0.2,1.4-0.4,2.1-0.6c0.2-0.1,0.3,0,0.4,0.1c0.6,0.7,1.2,1.4,1.9,2c0.2,0.2,0.1,0.3,0.1,0.5
		c-0.6,1.4-1.1,2.7-1.7,4.1c-0.1,0.1-0.1,0.3-0.2,0.4c1,0.7,2,1.3,3,1.9c0.1-0.1,0.2-0.1,0.2-0.2c1-1.1,2.1-2.2,3.1-3.4
		C131.9,92.2,132.1,92.2,132.3,92.3z M125.9,76.2c0.4-7,6.3-12.4,13.3-12.1c7,0.3,12.4,6.3,12.1,13.3c-0.3,7-6.3,12.4-13.4,12.1
		C131,89.3,125.6,83.2,125.9,76.2z"/>
	<path class="st0" d="M119.3,150.5c0-0.4,0.1-0.5,0.5-0.7c2.4-0.9,4.7-1.8,7-2.8c-0.4-1.8-0.7-3.6-1.1-5.5c-2.5,0.1-5,0.1-7.5,0.2
		c-0.3,0-0.5-0.1-0.7-0.4c-0.6-1.3-1.2-2.5-1.9-3.7c-0.2-0.3-0.1-0.5,0.1-0.8c1.4-1.8,2.9-3.6,4.3-5.4c0.1-0.2,0.2-0.3,0.4-0.5
		c-1.2-1.4-2.5-2.8-3.7-4.2c-1.5,0.9-3,1.8-4.5,2.7c-0.7,0.4-1.3,0.9-2,1.2c-0.2,0.1-0.5,0.1-0.6,0c-1.2-0.8-2.4-1.6-3.7-2.4
		c-0.3-0.2-0.3-0.4-0.2-0.6c0.3-2.3,0.7-4.5,1-6.7c0-0.2,0.1-0.5,0.1-0.7c-1.8-0.6-3.5-1.2-5.3-1.8c-0.4,0.8-0.9,1.6-1.3,2.4
		c-0.8,1.4-1.5,2.8-2.3,4.3c-0.2,0.3-0.4,0.4-0.7,0.3c-1.4-0.1-2.8-0.2-4.2-0.2c-0.3,0-0.5-0.1-0.6-0.4c-0.9-2.4-1.9-4.7-2.8-7.1
		c-1.8,0.4-3.6,0.7-5.4,1.1c0.1,2.5,0.1,5,0.2,7.6c0,0.4-0.1,0.5-0.4,0.7c-1.2,0.6-2.4,1.2-3.6,1.8c-0.4,0.2-0.6,0.2-0.9-0.1
		c-1.8-1.5-3.6-2.9-5.4-4.3c-0.1-0.1-0.3-0.2-0.5-0.4c-1.4,1.2-2.8,2.5-4.2,3.7c0.7,1.2,1.4,2.3,2.1,3.4c0.6,1,1.2,2.1,1.9,3.1
		c0.2,0.3,0.2,0.5,0,0.8c-0.8,1.1-1.6,2.3-2.3,3.5c-0.2,0.3-0.4,0.4-0.7,0.3c-2.3-0.4-4.7-0.7-7-1.1c-0.1,0-0.3,0-0.5-0.1
		c-0.6,1.7-1.2,3.5-1.8,5.3c0.1,0.1,0.3,0.2,0.4,0.3c2.1,1.1,4.1,2.2,6.2,3.3c0.4,0.2,0.5,0.4,0.4,0.8c-0.1,1.4-0.2,2.7-0.2,4.1
		c0,0.3-0.1,0.5-0.4,0.6c-2.4,0.9-4.7,1.9-7.1,2.8c0.4,1.8,0.7,3.6,1.1,5.5c2.5-0.1,5-0.1,7.6-0.2c0.4,0,0.5,0.1,0.7,0.4
		c0.6,1.2,1.2,2.4,1.8,3.6c0.2,0.4,0.2,0.6-0.1,0.9c-1.4,1.8-2.9,3.6-4.3,5.4c-0.1,0.1-0.2,0.3-0.4,0.5c1.2,1.4,2.5,2.8,3.7,4.2
		c1.2-0.8,2.5-1.5,3.7-2.3c0.9-0.6,1.9-1.2,2.8-1.8c0.3-0.2,0.4-0.1,0.7,0c1.2,0.8,2.4,1.6,3.6,2.4c0.3,0.2,0.3,0.4,0.3,0.7
		c-0.3,2.3-0.7,4.5-1,6.8c0,0.2-0.1,0.5-0.1,0.7c1.8,0.6,3.5,1.2,5.3,1.8c0.1-0.1,0.2-0.3,0.3-0.4c1.1-2.1,2.2-4.1,3.4-6.2
		c0.2-0.3,0.3-0.4,0.7-0.4c1.4,0.1,2.8,0.2,4.1,0.3c0.3,0,0.5,0.1,0.6,0.4c0.9,2.2,1.7,4.5,2.6,6.7c0,0.1,0.1,0.2,0.2,0.3
		c1.8-0.4,3.6-0.7,5.5-1.1c0-1,0-2-0.1-3c0-1.5-0.1-3.1-0.1-4.6c0-0.3,0.1-0.4,0.4-0.6c1.2-0.6,2.5-1.2,3.7-1.8
		c0.4-0.2,0.6-0.2,0.9,0.1c1.8,1.5,3.6,2.9,5.4,4.3c0.1,0.1,0.3,0.2,0.5,0.4c1.4-1.2,2.8-2.4,4.2-3.7c-0.5-0.9-1.1-1.7-1.6-2.6
		c-0.8-1.3-1.6-2.6-2.4-3.9c-0.2-0.3-0.2-0.5,0-0.8c0.8-1.1,1.6-2.3,2.3-3.5c0.2-0.3,0.4-0.4,0.8-0.3c2.2,0.4,4.5,0.7,6.8,1
		c0.2,0,0.4,0.1,0.7,0.1c0.6-1.8,1.2-3.5,1.8-5.3c-0.2-0.1-0.3-0.2-0.5-0.3c-2-1.1-4-2.2-6.1-3.3c-0.4-0.2-0.5-0.4-0.4-0.8
		C119.2,153.2,119.3,151.8,119.3,150.5z M97.5,170.3c-10.6,2.2-21.1-4.8-23.3-15.4c-2.1-10.7,4.7-21,15.4-23.2
		c10.6-2.2,21.1,4.7,23.3,15.4C115.1,157.6,108.2,168.1,97.5,170.3z"/>
	<path class="st0" d="M93.3,109.5c2.3-1.2,5.1-1.8,8.1-2c3.6-0.2,7.2,0.3,10.8,1c0.2,0,0.5,0.1,0.7,0.2c-0.4,1.9-0.9,3.7-1.3,5.6
		c0,0,0.1,0,0.1,0.1c0.1,0,0.2-0.1,0.2-0.1c4.5-1.8,9.1-3.6,13.6-5.3c0.1,0,0.2-0.1,0.3-0.1c0,0,0-0.1,0-0.1
		c-0.1-0.1-0.2-0.1-0.3-0.2c-3.3-3.6-6.6-7.2-9.9-10.8c-0.1-0.1-0.1-0.2-0.3-0.3c-0.4,1.9-0.9,3.8-1.3,5.7c-0.1,0-0.2,0-0.2,0
		c-3.2-0.7-6.4-1-9.5-0.6c-6,0.7-10.3,3-12.8,6.8c-0.5,0.8-0.8,1.6-1.2,2.4c0,0.1-0.1,0.3-0.1,0.4c0,0,0,0,0,0
		C91,111,92.1,110.2,93.3,109.5z"/>
	<path class="st0" d="M174.8,128.6c0-0.3,0.1-0.4,0.4-0.5c1.8-0.6,3.6-1.2,5.3-1.8c-0.2-1.4-0.4-2.7-0.6-4.1
		c-1.9-0.1-3.7-0.1-5.6-0.2c-0.3,0-0.4-0.1-0.5-0.3c-0.4-1-0.8-1.9-1.2-2.8c-0.1-0.3-0.1-0.4,0.1-0.6c1.1-1.3,2.3-2.5,3.4-3.8
		c0.1-0.1,0.2-0.2,0.3-0.4c-0.9-1.1-1.7-2.2-2.6-3.3c-1.2,0.6-2.3,1.2-3.4,1.9c-0.5,0.3-1,0.6-1.6,0.8c-0.1,0.1-0.3,0-0.5,0
		c-0.9-0.6-1.7-1.3-2.6-1.9c-0.2-0.2-0.2-0.3-0.1-0.5c0.3-1.7,0.7-3.3,1-5c0-0.2,0.1-0.3,0.1-0.5c-1.3-0.5-2.5-1-3.9-1.5
		c-0.4,0.6-0.7,1.2-1.1,1.7c-0.6,1-1.3,2-1.9,3.1c-0.1,0.2-0.3,0.2-0.5,0.2c-1-0.1-2-0.3-3.1-0.4c-0.2,0-0.4-0.1-0.4-0.3
		c-0.6-1.8-1.2-3.6-1.8-5.4c-1.4,0.2-2.7,0.4-4.1,0.6c-0.1,1.9-0.1,3.7-0.2,5.6c0,0.3-0.1,0.4-0.4,0.5c-0.9,0.4-1.9,0.8-2.8,1.2
		c-0.3,0.1-0.4,0.1-0.7-0.1c-1.3-1.2-2.5-2.3-3.8-3.4c-0.1-0.1-0.2-0.2-0.3-0.3c-1.1,0.9-2.2,1.7-3.3,2.6c0.5,0.9,0.9,1.7,1.4,2.6
		c0.4,0.8,0.8,1.6,1.3,2.4c0.1,0.2,0.1,0.4-0.1,0.6c-0.6,0.8-1.3,1.6-1.8,2.5c-0.2,0.2-0.3,0.3-0.5,0.2c-1.7-0.4-3.4-0.7-5.2-1.1
		c-0.1,0-0.2,0-0.4-0.1c-0.5,1.3-1,2.5-1.5,3.8c0.1,0.1,0.2,0.1,0.3,0.2c1.5,0.9,2.9,1.8,4.4,2.7c0.3,0.2,0.3,0.3,0.3,0.6
		c-0.1,1-0.3,2-0.3,3c0,0.2-0.1,0.4-0.3,0.4c-1.8,0.6-3.6,1.2-5.4,1.8c0.2,1.4,0.4,2.7,0.6,4.1c1.9,0.1,3.7,0.1,5.6,0.2
		c0.3,0,0.4,0.1,0.5,0.4c0.4,0.9,0.8,1.9,1.2,2.8c0.1,0.3,0.1,0.4-0.1,0.7c-1.1,1.3-2.3,2.5-3.4,3.8c-0.1,0.1-0.2,0.2-0.3,0.3
		c0.9,1.1,1.7,2.2,2.6,3.3c1-0.5,1.9-1,2.8-1.5c0.7-0.4,1.5-0.8,2.2-1.2c0.2-0.1,0.3-0.1,0.5,0c0.8,0.6,1.7,1.3,2.5,1.9
		c0.2,0.2,0.2,0.3,0.2,0.5c-0.3,1.7-0.7,3.3-1,5c0,0.2-0.1,0.3-0.1,0.5c1.3,0.5,2.5,1,3.8,1.5c0.1-0.1,0.1-0.2,0.2-0.3
		c0.9-1.5,1.8-3,2.7-4.5c0.1-0.2,0.3-0.3,0.6-0.3c1,0.1,2,0.3,3.1,0.4c0.2,0,0.4,0.1,0.4,0.3c0.6,1.7,1.1,3.4,1.7,5.1
		c0,0.1,0.1,0.1,0.1,0.2c1.3-0.2,2.7-0.4,4.1-0.6c0-0.7,0.1-1.5,0.1-2.2c0-1.1,0.1-2.3,0.1-3.4c0-0.2,0.1-0.3,0.3-0.4
		c0.9-0.4,1.9-0.8,2.8-1.2c0.3-0.1,0.4-0.1,0.7,0.1c1.3,1.1,2.5,2.3,3.8,3.4c0.1,0.1,0.2,0.2,0.3,0.3c1.1-0.9,2.2-1.7,3.3-2.6
		c-0.4-0.7-0.7-1.3-1.1-2c-0.5-1-1.1-2-1.6-3c-0.1-0.2-0.1-0.4,0-0.6c0.6-0.8,1.3-1.6,1.8-2.5c0.2-0.2,0.3-0.3,0.6-0.2
		c1.7,0.4,3.3,0.7,5,1c0.2,0,0.3,0.1,0.5,0.1c0.5-1.3,1-2.5,1.5-3.8c-0.1-0.1-0.2-0.2-0.4-0.2c-1.5-0.9-2.9-1.8-4.4-2.7
		c-0.3-0.2-0.3-0.3-0.3-0.6C174.6,130.6,174.7,129.6,174.8,128.6z M154.6,140.6c-7-0.3-12.5-6.3-12.1-13.4c0.4-7,6.3-12.4,13.3-12.1
		c7,0.3,12.4,6.3,12.1,13.3C167.7,135.5,161.7,141,154.6,140.6z"/>
	<path class="st0" d="M168,92.3c0,0.1,0,0.2,0,0.2c0,0,0,0,0.1,0c1.1-1.1,2.3-2.1,3.4-3.2c0.2,0.2,0.3,0.3,0.4,0.4
		c2,2.2,3.8,4.6,5.1,7.2c1.1,2.2,1.9,4.4,1.9,6.5c0,1.1-0.1,2.2-0.7,3c0,0,0,0,0,0c0.1-0.1,0.2-0.2,0.3-0.3c0.4-0.6,0.9-1.1,1.2-1.8
		c1.7-3.3,1.5-7.2-0.4-11.7c-1-2.3-2.4-4.5-4.3-6.5c0,0-0.1-0.1-0.1-0.1c1.1-1.1,2.3-2.1,3.4-3.2c-0.1,0-0.2-0.1-0.3-0.1
		c-3.9-0.8-7.8-1.7-11.6-2.5c-0.1,0-0.2-0.1-0.3-0.1c0,0,0,0-0.1,0.1c0,0.1,0,0.2,0.1,0.3C166.8,84.4,167.4,88.4,168,92.3z"/>
	<path class="st1" d="M121.6,24.7c-55.3,0-100,44.8-100,100c0,55.3,44.8,100,100,100c55.3,0,100-44.8,100-100
		C221.6,69.5,176.8,24.7,121.6,24.7z M117,207.2c-45.5,0-82.4-36.9-82.4-82.4c0-45.5,36.9-82.4,82.4-82.4
		c45.5,0,82.4,36.9,82.4,82.4C199.5,170.3,162.6,207.2,117,207.2z"/>
</g>
</svg>
