<?xml version="1.0" encoding="utf-8"?>
<!-- Generator: Adobe Illustrator 22.0.1, SVG Export Plug-In . SVG Version: 6.00 Build 0)  -->
<svg version="1.1" id="Capa_1" xmlns="http://www.w3.org/2000/svg" xmlns:xlink="http://www.w3.org/1999/xlink" x="0px" y="0px"
	 viewBox="0 0 184 105.7" style="enable-background:new 0 0 184 105.7;" xml:space="preserve">
<style type="text/css">
	.st0{fill:#EF7B4F;}
	.st1{fill:none;stroke:#EF7B4F;stroke-width:2;stroke-miterlimit:10;}
</style>
<g>
	<rect x="91" y="63.5" class="st0" width="4.9" height="7.2"/>
	<rect x="82.6" y="11.6" class="st0" width="4.9" height="7.2"/>
	<rect x="82.6" y="32.4" class="st0" width="4.9" height="7.2"/>
	<rect x="107.8" y="73.8" class="st0" width="4.9" height="7.2"/>
	<rect x="107.8" y="42.7" class="st0" width="4.9" height="7.2"/>
	<rect x="107.8" y="22" class="st0" width="4.9" height="7.2"/>
	<rect x="107.8" y="53.1" class="st0" width="4.9" height="7.2"/>
	<rect x="107.8" y="32.4" class="st0" width="4.9" height="7.2"/>
	<rect x="107.8" y="11.6" class="st0" width="4.9" height="7.2"/>
	<rect x="91" y="32.4" class="st0" width="4.9" height="7.2"/>
	<rect x="91" y="11.6" class="st0" width="4.9" height="7.2"/>
	<rect x="91" y="42.7" class="st0" width="4.9" height="7.2"/>
	<rect x="91" y="53.1" class="st0" width="4.9" height="7.2"/>
	<rect x="82.6" y="73.8" class="st0" width="4.9" height="7.2"/>
	<rect x="82.6" y="53.1" class="st0" width="4.9" height="7.2"/>
	<rect x="82.6" y="63.5" class="st0" width="4.9" height="7.2"/>
	<rect x="79.9" y="88.8" class="st0" width="27.2" height="13.8"/>
	<rect x="91" y="22" class="st0" width="4.9" height="7.2"/>
	<rect x="82.6" y="22" class="st0" width="4.9" height="7.2"/>
	<rect x="144.1" y="73.8" class="st0" width="4.9" height="7.2"/>
	<rect x="144.1" y="84.2" class="st0" width="4.9" height="7.2"/>
	<rect x="152.5" y="53" class="st0" width="4.9" height="7.2"/>
	<rect x="144.1" y="63.4" class="st0" width="4.9" height="7.2"/>
	<rect x="152.5" y="73.8" class="st0" width="4.9" height="7.2"/>
	<polyline class="st1" points="4.7,102.6 24.5,102.6 24.5,23.8 43.5,23.8 43.5,5.3 45.3,5.3 45.3,23.8 64.3,23.8 64.3,102.6 
		69.3,102.6 69.3,3 117.4,3 117.4,102.6 122.5,102.6 122.5,44.5 162.2,44.5 162.2,102.6 179.3,102.6 	"/>
	<rect x="144.1" y="53" class="st0" width="4.9" height="7.2"/>
	<rect x="152.5" y="63.4" class="st0" width="4.9" height="7.2"/>
	<rect x="152.5" y="84.2" class="st0" width="4.9" height="7.2"/>
	<rect x="127.3" y="73.8" class="st0" width="4.9" height="7.2"/>
	<rect x="127.3" y="63.4" class="st0" width="4.9" height="7.2"/>
	<rect x="127.3" y="84.2" class="st0" width="4.9" height="7.2"/>
	<rect x="127.3" y="53" class="st0" width="4.9" height="7.2"/>
	<rect x="107.8" y="63.5" class="st0" width="4.9" height="7.2"/>
	<rect x="135.7" y="53" class="st0" width="4.9" height="7.2"/>
	<rect x="135.7" y="84.2" class="st0" width="4.9" height="7.2"/>
	<rect x="135.7" y="73.8" class="st0" width="4.9" height="7.2"/>
	<rect x="135.7" y="63.4" class="st0" width="4.9" height="7.2"/>
	<rect x="82.6" y="42.7" class="st0" width="4.9" height="7.2"/>
	<rect x="46.1" y="53.1" class="st0" width="4.9" height="7.2"/>
	<rect x="46.1" y="42.7" class="st0" width="4.9" height="7.2"/>
	<rect x="37.7" y="73.8" class="st0" width="4.9" height="7.2"/>
	<rect x="46.1" y="32.4" class="st0" width="4.9" height="7.2"/>
	<rect x="35.6" y="85.9" class="st0" width="17.7" height="16.8"/>
	<rect x="37.7" y="32.4" class="st0" width="4.9" height="7.2"/>
	<rect x="37.7" y="63.5" class="st0" width="4.9" height="7.2"/>
	<rect x="37.7" y="42.7" class="st0" width="4.9" height="7.2"/>
	<rect x="37.7" y="53.1" class="st0" width="4.9" height="7.2"/>
	<rect x="29.3" y="53.1" class="st0" width="4.9" height="7.2"/>
	<rect x="29.3" y="32.4" class="st0" width="4.9" height="7.2"/>
	<rect x="29.3" y="42.7" class="st0" width="4.9" height="7.2"/>
	<rect x="54.5" y="32.4" class="st0" width="4.9" height="7.2"/>
	<rect x="46.1" y="63.5" class="st0" width="4.9" height="7.2"/>
	<rect x="46.1" y="73.8" class="st0" width="4.9" height="7.2"/>
	<rect x="91" y="73.8" class="st0" width="4.9" height="7.2"/>
	<rect x="29.3" y="73.8" class="st0" width="4.9" height="7.2"/>
	<rect x="29.3" y="63.5" class="st0" width="4.9" height="7.2"/>
	<rect x="99.4" y="63.5" class="st0" width="4.9" height="7.2"/>
	<rect x="99.4" y="73.8" class="st0" width="4.9" height="7.2"/>
	<rect x="74.2" y="63.5" class="st0" width="4.9" height="7.2"/>
	<rect x="99.4" y="53.1" class="st0" width="4.9" height="7.2"/>
	<rect x="99.4" y="11.6" class="st0" width="4.9" height="7.2"/>
	<rect x="99.4" y="42.7" class="st0" width="4.9" height="7.2"/>
	<rect x="74.2" y="73.8" class="st0" width="4.9" height="7.2"/>
	<rect x="99.4" y="22" class="st0" width="4.9" height="7.2"/>
	<rect x="99.4" y="32.4" class="st0" width="4.9" height="7.2"/>
	<rect x="54.5" y="63.5" class="st0" width="4.9" height="7.2"/>
	<rect x="54.5" y="73.8" class="st0" width="4.9" height="7.2"/>
	<rect x="54.5" y="42.7" class="st0" width="4.9" height="7.2"/>
	<rect x="54.5" y="53.1" class="st0" width="4.9" height="7.2"/>
	<rect x="74.2" y="11.6" class="st0" width="4.9" height="7.2"/>
	<rect x="74.2" y="42.7" class="st0" width="4.9" height="7.2"/>
	<rect x="74.2" y="22" class="st0" width="4.9" height="7.2"/>
	<rect x="74.2" y="53.1" class="st0" width="4.9" height="7.2"/>
	<rect x="74.2" y="32.4" class="st0" width="4.9" height="7.2"/>
</g>
</svg>
