<?xml version="1.0" encoding="utf-8"?>
<!-- Generator: Adobe Illustrator 22.0.1, SVG Export Plug-In . SVG Version: 6.00 Build 0)  -->
<svg version="1.1" id="Capa_1" xmlns="http://www.w3.org/2000/svg" xmlns:xlink="http://www.w3.org/1999/xlink" x="0px" y="0px"
	 viewBox="0 0 207.3 205.6" style="enable-background:new 0 0 207.3 205.6;" xml:space="preserve">
<style type="text/css">
	.st0{fill:#EF7B4F;}
</style>
<g>
	<path class="st0" d="M71.6,109.7c-10.7,2.3-17.5,12.6-15.4,23.2c2.1,10.7,12.6,17.6,23.3,15.4c10.7-2.2,17.6-12.7,15.4-23.3
		C92.7,114.4,82.2,107.5,71.6,109.7z"/>
	<path class="st0" d="M133.4,55.6c0.3-7.1-5.1-13-12.1-13.3c-7.1-0.3-13,5.1-13.3,12.1c-0.4,7,5.1,13,12.1,13.4
		C127.1,68,133.1,62.6,133.4,55.6z"/>
	<path class="st0" d="M103.6,2.8c-55.3,0-100,44.8-100,100c0,55.3,44.8,100,100,100c55.3,0,100-44.8,100-100
		C203.7,47.6,158.9,2.8,103.6,2.8z M72.6,89.8c0.4-0.8,0.7-1.6,1.2-2.4c2.5-3.8,6.8-6.1,12.8-6.8c3.1-0.4,6.3-0.2,9.5,0.6
		c0.1,0,0.1,0,0.2,0c0.4-1.9,0.9-3.7,1.3-5.7c0.1,0.1,0.2,0.2,0.3,0.3c3.3,3.6,6.6,7.2,9.9,10.8c0.1,0.1,0.2,0.2,0.3,0.2v0.1
		c-0.1,0-0.2,0.1-0.3,0.1c-4.5,1.8-9.1,3.6-13.6,5.3c-0.1,0-0.2,0.1-0.2,0.1s-0.1,0-0.1-0.1c0.4-1.9,0.9-3.7,1.3-5.6
		c-0.3-0.1-0.5-0.1-0.7-0.2c-3.6-0.8-7.2-1.2-10.8-1c-3,0.2-5.8,0.7-8.1,2c-1.2,0.7-2.2,1.5-2.8,2.5l0,0
		C72.6,90,72.6,89.9,72.6,89.8z M101.5,133.4c2,1.1,4,2.2,6.1,3.3c0.2,0.1,0.3,0.2,0.5,0.3c-0.6,1.8-1.2,3.5-1.8,5.3
		c-0.3,0-0.5-0.1-0.7-0.1c-2.3-0.3-4.5-0.7-6.8-1c-0.4-0.1-0.5,0-0.8,0.3c-0.7,1.2-1.5,2.3-2.3,3.5c-0.2,0.3-0.2,0.5,0,0.8
		c0.8,1.3,1.6,2.6,2.4,3.9c0.5,0.8,1,1.7,1.6,2.6c-1.4,1.3-2.8,2.5-4.2,3.7c-0.2-0.1-0.3-0.3-0.5-0.4c-1.8-1.4-3.6-2.9-5.4-4.3
		c-0.3-0.3-0.5-0.3-0.9-0.1c-1.2,0.6-2.4,1.2-3.7,1.8c-0.3,0.1-0.4,0.2-0.4,0.6c0.1,1.5,0.1,3.1,0.1,4.6c0,1,0,2,0.1,3
		c-1.9,0.4-3.7,0.7-5.5,1.1c-0.1-0.1-0.1-0.2-0.2-0.3c-0.9-2.2-1.8-4.5-2.6-6.7c-0.1-0.3-0.3-0.4-0.6-0.4c-1.4-0.1-2.8-0.1-4.1-0.3
		c-0.4,0-0.6,0.1-0.7,0.4c-1.1,2.1-2.2,4.1-3.4,6.2c-0.1,0.1-0.2,0.3-0.3,0.4c-1.8-0.6-3.5-1.2-5.3-1.8c0-0.3,0.1-0.5,0.1-0.7
		c0.3-2.2,0.7-4.5,1-6.8c0-0.3,0-0.5-0.3-0.7c-1.2-0.8-2.4-1.5-3.6-2.4c-0.3-0.2-0.4-0.2-0.7,0c-0.9,0.6-1.9,1.2-2.8,1.8
		c-1.2,0.7-2.4,1.5-3.7,2.3c-1.2-1.4-2.5-2.8-3.7-4.2c0.1-0.2,0.2-0.3,0.4-0.5c1.4-1.8,2.9-3.6,4.3-5.4c0.3-0.3,0.3-0.5,0.1-0.9
		c-0.6-1.2-1.2-2.4-1.8-3.6c-0.2-0.3-0.3-0.5-0.7-0.4c-2.5,0.1-5,0.1-7.6,0.2c-0.4-1.8-0.7-3.6-1.1-5.5c2.4-0.9,4.7-1.9,7.1-2.8
		c0.3-0.1,0.4-0.3,0.4-0.6c0.1-1.4,0.1-2.7,0.2-4.1c0-0.4-0.1-0.6-0.4-0.8c-2.1-1.1-4.1-2.2-6.2-3.3c-0.1-0.1-0.3-0.2-0.4-0.3
		c0.6-1.8,1.2-3.5,1.8-5.3c0.2,0,0.3,0,0.5,0.1c2.3,0.3,4.7,0.7,7,1.1c0.3,0.1,0.5,0,0.7-0.3c0.7-1.2,1.5-2.3,2.3-3.5
		c0.2-0.3,0.2-0.5,0-0.8c-0.6-1-1.3-2-1.9-3.1c-0.7-1.1-1.4-2.2-2.1-3.4c1.4-1.2,2.8-2.5,4.2-3.7c0.2,0.1,0.3,0.2,0.5,0.4
		c1.8,1.4,3.6,2.9,5.4,4.3c0.3,0.3,0.5,0.3,0.9,0.1c1.2-0.6,2.4-1.2,3.6-1.8c0.3-0.2,0.5-0.3,0.4-0.7c-0.1-2.5-0.1-5-0.2-7.6
		c1.8-0.4,3.6-0.7,5.4-1.1c0.9,2.4,1.9,4.7,2.8,7.1c0.1,0.3,0.3,0.4,0.6,0.4c1.4,0.1,2.8,0.1,4.2,0.2c0.3,0,0.5,0,0.7-0.3
		c0.7-1.4,1.5-2.8,2.3-4.3c0.4-0.8,0.9-1.6,1.3-2.4c1.8,0.6,3.5,1.2,5.3,1.8c0,0.3-0.1,0.5-0.1,0.7c-0.3,2.3-0.7,4.5-1,6.7
		c0,0.3-0.1,0.5,0.2,0.6c1.2,0.8,2.4,1.6,3.7,2.4c0.1,0.1,0.5,0.1,0.6,0c0.7-0.4,1.4-0.8,2-1.2c1.5-0.9,3-1.8,4.5-2.7
		c1.2,1.4,2.5,2.8,3.7,4.2c-0.1,0.2-0.3,0.4-0.4,0.5c-1.4,1.8-2.9,3.6-4.3,5.4c-0.2,0.3-0.3,0.5-0.1,0.8c0.7,1.2,1.3,2.5,1.9,3.7
		c0.2,0.3,0.3,0.4,0.7,0.4c2.5-0.1,5-0.1,7.5-0.2c0.4,1.8,0.7,3.6,1.1,5.5c-2.3,0.9-4.7,1.9-7,2.8c-0.4,0.1-0.4,0.3-0.5,0.7
		c-0.1,1.3-0.1,2.7-0.3,4C101.1,133,101.2,133.2,101.5,133.4z M110.5,74c-1-0.7-2-1.3-3-1.9c0.1-0.2,0.1-0.3,0.2-0.4
		c0.6-1.4,1.1-2.7,1.7-4.1c0.1-0.2,0.1-0.3-0.1-0.5c-0.6-0.7-1.3-1.4-1.9-2c-0.1-0.2-0.2-0.2-0.4-0.1c-0.7,0.2-1.4,0.4-2.1,0.6
		c-0.9,0.3-1.8,0.5-2.7,0.8c-0.6-1.1-1.1-2.1-1.6-3.2c0.1-0.1,0.2-0.2,0.3-0.2c1.2-0.9,2.4-1.8,3.6-2.7c0.2-0.2,0.3-0.3,0.2-0.6
		c-0.2-0.8-0.4-1.7-0.5-2.6c0-0.2-0.1-0.3-0.4-0.4c-1.6-0.4-3.2-0.7-4.8-1.1c0.1-1.2,0.1-2.4,0.2-3.6c1.6-0.2,3.3-0.4,4.9-0.6
		c0.2,0,0.3-0.1,0.4-0.3c0.3-0.8,0.5-1.7,0.8-2.5c0.1-0.3,0.1-0.4-0.1-0.6c-1.1-1-2.2-2-3.3-3.1c-0.1-0.1-0.1-0.2-0.2-0.2
		c0.7-1,1.3-2,1.9-3c0.1,0,0.2,0.1,0.3,0.1c1.4,0.6,2.8,1.2,4.2,1.8c0.2,0.1,0.3,0.1,0.5-0.1c0.6-0.6,1.3-1.2,2-1.8
		c0.2-0.2,0.2-0.3,0.1-0.5c-0.2-0.7-0.5-1.5-0.7-2.2c-0.2-0.8-0.5-1.6-0.8-2.4c1.1-0.6,2.1-1.1,3.2-1.6c0.1,0.1,0.2,0.2,0.2,0.3
		c0.9,1.2,1.8,2.4,2.7,3.6c0.2,0.2,0.3,0.3,0.6,0.2c0.8-0.2,1.7-0.4,2.6-0.5c0.2,0,0.3-0.1,0.4-0.4c0.4-1.6,0.7-3.2,1.1-4.8
		c1.2,0.1,2.4,0.1,3.6,0.2c0.2,1.6,0.4,3.2,0.6,4.9c0,0.2,0.1,0.3,0.3,0.4c0.9,0.3,1.7,0.5,2.6,0.8c0.2,0.1,0.3,0.1,0.5-0.1
		c0.7-0.8,1.4-1.5,2.1-2.3c0.4-0.4,0.8-0.9,1.2-1.3c1,0.7,2,1.3,3,2c-0.1,0.2-0.1,0.3-0.2,0.4c-0.6,1.4-1.1,2.7-1.7,4.1
		c-0.1,0.2-0.1,0.3,0,0.4c0.6,0.7,1.3,1.4,1.9,2.1c0.1,0.1,0.3,0.1,0.4,0.1c0.5-0.1,1-0.3,1.5-0.5c1.1-0.3,2.1-0.7,3.2-1
		c0.6,1.1,1.1,2.1,1.6,3.2c-0.1,0.1-0.2,0.2-0.3,0.3c-1.2,0.9-2.4,1.8-3.6,2.7c-0.2,0.1-0.2,0.3-0.2,0.5c0.2,0.9,0.4,1.7,0.6,2.6
		c0,0.2,0.1,0.3,0.4,0.4c1.6,0.4,3.2,0.7,4.8,1.1c-0.1,1.2-0.1,2.4-0.2,3.6c-1.6,0.2-3.2,0.4-4.8,0.6c-0.3,0-0.3,0.1-0.4,0.4
		c-0.2,0.8-0.5,1.7-0.8,2.5c-0.1,0.3-0.1,0.4,0.1,0.6c1.1,1,2.2,2,3.3,3c0.1,0.1,0.2,0.2,0.3,0.3c-0.7,1-1.3,2-1.9,3
		c-0.2-0.1-0.3-0.1-0.4-0.2c-1.4-0.6-2.7-1.1-4.1-1.7c-0.2-0.1-0.3-0.1-0.5,0.1c-0.6,0.6-1.3,1.2-2,1.8c-0.2,0.2-0.2,0.3-0.1,0.5
		c0.3,0.9,0.6,1.9,0.9,2.8c0.2,0.6,0.4,1.2,0.6,1.9c-1.1,0.6-2.1,1.1-3.2,1.6c-0.1-0.1-0.2-0.2-0.2-0.3c-0.9-1.2-1.8-2.4-2.7-3.6
		c-0.2-0.2-0.3-0.2-0.6-0.2c-0.9,0.2-1.7,0.4-2.6,0.6c-0.2,0-0.3,0.1-0.3,0.3c-0.2,1-0.4,1.9-0.6,2.9c-0.1,0.6-0.3,1.3-0.4,1.9
		c-1.2-0.1-2.4-0.1-3.6-0.2c0-0.1,0-0.2-0.1-0.2c-0.2-1.5-0.4-3.1-0.6-4.6c0-0.2-0.1-0.3-0.3-0.4c-0.9-0.3-1.7-0.5-2.6-0.8
		c-0.2-0.1-0.4-0.1-0.5,0.1c-1,1.1-2.1,2.2-3.1,3.4C110.7,73.9,110.6,74,110.5,74z M156.8,110.3c1.5,0.9,2.9,1.8,4.4,2.7
		c0.1,0.1,0.2,0.2,0.4,0.2c-0.5,1.3-1,2.6-1.5,3.8c-0.2,0-0.4-0.1-0.5-0.1c-1.7-0.3-3.3-0.7-5-1c-0.3-0.1-0.4,0-0.6,0.2
		c-0.6,0.8-1.2,1.7-1.8,2.5c-0.2,0.2-0.2,0.3,0,0.6c0.5,1,1.1,2,1.6,3c0.3,0.7,0.7,1.3,1.1,2c-1.1,0.9-2.2,1.7-3.3,2.6
		c-0.1-0.1-0.2-0.2-0.3-0.3c-1.3-1.1-2.6-2.3-3.8-3.4c-0.2-0.2-0.4-0.2-0.7-0.1c-0.9,0.4-1.9,0.8-2.8,1.2c-0.2,0.1-0.3,0.2-0.3,0.4
		c0,1.1,0,2.3-0.1,3.4c0,0.7,0,1.5-0.1,2.2c-1.4,0.2-2.7,0.4-4.1,0.6c0-0.1-0.1-0.2-0.1-0.2c-0.6-1.7-1.1-3.4-1.7-5.1
		c-0.1-0.2-0.2-0.3-0.4-0.3c-1-0.1-2.1-0.2-3.1-0.4c-0.3,0-0.4,0-0.6,0.3c-0.9,1.5-1.8,3-2.7,4.5c-0.1,0.1-0.1,0.2-0.2,0.3
		c-1.3-0.5-2.6-1-3.8-1.5c0-0.2,0.1-0.4,0.1-0.5c0.3-1.7,0.7-3.3,1-5c0-0.2,0-0.4-0.2-0.5c-0.9-0.6-1.7-1.2-2.5-1.9
		c-0.2-0.1-0.3-0.2-0.5,0c-0.7,0.4-1.4,0.8-2.2,1.2c-0.9,0.5-1.9,1-2.8,1.5c-0.9-1.1-1.7-2.2-2.6-3.3c0.1-0.1,0.2-0.2,0.3-0.3
		c1.1-1.3,2.3-2.6,3.4-3.8c0.2-0.2,0.2-0.4,0.1-0.7c-0.4-0.9-0.8-1.8-1.2-2.8c-0.1-0.3-0.2-0.4-0.5-0.4c-1.9,0-3.7-0.1-5.6-0.2
		c-0.2-1.4-0.4-2.7-0.6-4.1c1.8-0.6,3.6-1.2,5.4-1.8c0.2-0.1,0.3-0.2,0.3-0.4c0.1-1,0.2-2,0.3-3c0-0.3,0-0.5-0.3-0.6
		c-1.5-0.9-3-1.8-4.4-2.7c-0.1-0.1-0.2-0.1-0.3-0.2c0.5-1.3,1-2.6,1.5-3.8c0.1,0,0.2,0,0.4,0.1c1.7,0.4,3.4,0.7,5.2,1.1
		c0.3,0.1,0.4,0,0.5-0.2c0.6-0.8,1.2-1.7,1.8-2.5c0.2-0.2,0.2-0.3,0.1-0.6c-0.4-0.8-0.9-1.6-1.3-2.4c-0.5-0.9-0.9-1.7-1.4-2.6
		c1.1-0.9,2.2-1.7,3.3-2.6c0.1,0.1,0.2,0.2,0.3,0.3c1.3,1.1,2.6,2.3,3.8,3.4c0.2,0.2,0.4,0.2,0.7,0.1c0.9-0.4,1.8-0.8,2.8-1.2
		c0.3-0.1,0.4-0.2,0.4-0.5c0-1.9,0.1-3.7,0.2-5.6c1.4-0.2,2.7-0.4,4.1-0.6c0.6,1.8,1.2,3.6,1.8,5.4c0.1,0.2,0.2,0.3,0.4,0.3
		c1,0.1,2,0.2,3.1,0.4c0.2,0,0.4,0,0.5-0.2c0.6-1,1.2-2,1.9-3.1c0.4-0.6,0.7-1.2,1.1-1.7c1.3,0.5,2.6,1,3.9,1.5
		c0,0.2-0.1,0.4-0.1,0.5c-0.3,1.7-0.7,3.3-1,5c0,0.2-0.1,0.3,0.1,0.5c0.9,0.6,1.7,1.3,2.6,1.9c0.1,0.1,0.3,0.1,0.5,0
		c0.5-0.3,1-0.6,1.6-0.8c1.1-0.6,2.3-1.2,3.4-1.9c0.9,1.1,1.7,2.2,2.6,3.3c-0.1,0.1-0.2,0.3-0.3,0.4c-1.1,1.3-2.3,2.6-3.4,3.8
		c-0.2,0.2-0.2,0.3-0.1,0.6c0.4,0.9,0.8,1.9,1.2,2.8c0.1,0.3,0.2,0.3,0.5,0.3c1.9,0,3.7,0.1,5.6,0.2c0.2,1.4,0.4,2.7,0.6,4.1
		c-1.8,0.6-3.5,1.2-5.3,1.8c-0.3,0.1-0.3,0.2-0.4,0.5c-0.1,1-0.2,2-0.4,3C156.5,110,156.5,110.2,156.8,110.3z M161.8,82.6
		c-0.3,0.7-0.8,1.2-1.2,1.8c-0.1,0.1-0.2,0.2-0.3,0.3l0,0c0.6-0.8,0.7-1.8,0.7-3c-0.1-2.1-0.8-4.3-1.9-6.5c-1.3-2.6-3.1-5-5.1-7.2
		c-0.1-0.1-0.3-0.3-0.4-0.4c-1.2,1.1-2.3,2.1-3.4,3.2h-0.1c0-0.1,0-0.2,0-0.2c-0.6-3.9-1.2-7.8-1.8-11.8c0-0.1,0-0.2-0.1-0.3
		c0,0,0,0,0.1-0.1c0.1,0,0.2,0.1,0.3,0.1c3.9,0.8,7.8,1.7,11.6,2.5c0.1,0,0.2,0,0.3,0.1c-1.2,1.1-2.3,2.2-3.4,3.2
		c0,0.1,0.1,0.1,0.1,0.1c1.8,2,3.3,4.1,4.3,6.5C163.4,75.3,163.5,79.3,161.8,82.6z"/>
</g>
</svg>
