<?xml version="1.0" encoding="utf-8"?>
<!-- Generator: Adobe Illustrator 22.0.1, SVG Export Plug-In . SVG Version: 6.00 Build 0)  -->
<svg version="1.1" id="Capa_1" xmlns="http://www.w3.org/2000/svg" xmlns:xlink="http://www.w3.org/1999/xlink" x="0px" y="0px"
	 viewBox="0 0 151.3 136.4" style="enable-background:new 0 0 151.3 136.4;" xml:space="preserve">
<style type="text/css">
	.st0{fill:#EF7B4F;}
</style>
<g>
	<path class="st0" d="M5.7,133.1c15.3,0,30.4,0,45.7,0c0.2-4.3,0.5-8.5,0.6-12.7c0.1-2.5-0.4-5-2.5-6.5c-3.1-2.3-9.9-6-10-5.9
		c1.2,3,2.4,6.1,3.7,9.4c-1.4-0.2-2.6-0.4-3.7-0.6c-1-0.2-1.6,0-2.2,0.9c-1.6,2.5-3.3,4.8-4.9,7.3c-1.1,1.7-2.7,4-3.8,5.6
		c-0.5-0.5-1-1.3-1.3-1.7c-2.5-3.7-5.1-7.3-7.5-11.1c-0.6-1-1.3-1.3-2.4-1c-1.1,0.3-2.2,0.3-3.6,0.5c1.3-3.3,2.5-6.3,3.7-9.4
		c-2.7,1.2-5.2,2.7-7.7,4.1c-3.6,2-5.1,5.1-4.8,9.1c0.2,3.6,0.4,7.3,0.6,10.9C5.5,132.4,5.6,132.8,5.7,133.1z"/>
	<path class="st0" d="M143.9,113.9c-3.1-2.3-9.9-6-10-5.9c1.2,3,2.4,6.1,3.7,9.4c-1.4-0.2-2.6-0.4-3.7-0.6c-1-0.2-1.6,0-2.2,0.9
		c-1.6,2.5-3.3,4.8-4.9,7.3c-1.1,1.7-2.7,4-3.8,5.6c-0.5-0.5-1-1.3-1.3-1.7c-2.5-3.7-5.1-7.3-7.5-11.1c-0.6-1-1.3-1.3-2.4-1
		c-1.1,0.3-2.2,0.3-3.6,0.5c1.3-3.3,2.5-6.3,3.7-9.4c-2.7,1.2-5.2,2.7-7.7,4.1c-3.6,2-5.1,5.1-4.8,9.1c0.2,3.6,0.4,7.3,0.6,10.9
		c0,0.4,0.1,0.8,0.2,1.1c15.3,0,30.4,0,45.6,0c0.2-4.3,0.5-8.5,0.6-12.7C146.5,118,146,115.4,143.9,113.9z"/>
	<path class="st0" d="M67.1,50.4c-0.6-1-1.3-1.3-2.4-1s-2.2,0.3-3.6,0.5c1.3-3.3,2.5-6.3,3.7-9.4c-2.7,1.2-5.2,2.7-7.7,4.1
		c-3.6,2-5.1,5.1-4.8,9.1c0.2,3.6,0.4,7.3,0.6,10.9c0,0.4,0.1,0.8,0.2,1.1c15.3,0,30.4,0,45.7,0c0.2-4.3,0.5-8.5,0.6-12.7
		c0.1-2.5-0.4-5-2.5-6.5c-3.1-2.3-9.9-6-10-5.9c1.2,3,2.4,6.1,3.7,9.4c-1.4-0.2-2.6-0.4-3.7-0.6c-1-0.2-1.6,0-2.2,0.9
		c-1.6,2.5-3.3,4.8-4.9,7.2c-1.2,1.7-2.7,4-3.8,5.6c-0.5-0.5-1-1.3-1.3-1.7C72.1,57.8,69.5,54.2,67.1,50.4z"/>
	<path class="st0" d="M35.7,103.7c1.9-0.3,3.9-0.5,5.8-0.9c2-0.4,3.8-1.2,5.3-2.7c-3.5-2.1-4.3-5.4-4.3-9c0-1.1,0.1-2.2,0.2-3.2
		c0.3-4.1,0.2-7.1-1.5-11c-1-2.3-2.7-3.5-5-4.3c-1.7-0.6-3.1,0.2-4.6-0.8c-0.8-0.5-2.2-0.9-3.2-1c-6.7-0.5-12.4,4.2-13,9
		c-0.5,3.6-0.3,7.3-0.7,10.9c-0.3,3.7-0.7,7.4-4.5,9.6c3.3,3.1,7.4,3.3,11.2,3.6c0.4,2.4,0.7,4.8,1.3,7c1.8,6.4,3.9,13.5,5.8,19.8
		c0.2-0.7,0.5-1.9,0.6-2.4C31.2,120,35.1,112.3,35.7,103.7z"/>
	<path class="st0" d="M87.4,7.6L87.4,7.6c-1-1.2-2.3-1.9-3.8-2.5c-1.7-0.6-3.1,0.2-4.6-0.8c-0.8-0.5-2.2-0.9-3.2-1
		c-5.1-0.4-9.5,2.2-11.7,5.5c-2.3,3.2-5.3,9.5-3.4,20c1.7,9.4,0.4,10.1,0.3,10.1c0.1,0,3.1-1.2,3-6.9c1.9,4.6,0.9,5.4,0.7,5.5
		c0.2-0.1,1.5-0.9,1.8-3c0.7,0.8,1.5,1.4,2.2,1.8c0.4,2.4,0.7,4.8,1.3,7c1.8,6.4,3.9,13.5,5.8,19.8c0.2-0.7,0.5-1.9,0.6-2.4
		c2.1-8.1,5.9-15.8,6.5-24.4c1.2-0.7,2.4-2,3.5-3.5c-0.3,3.5,1.5,4.6,1.8,4.7c-0.2-0.1-1.3-1,1-6.9l0,0c-0.5,6.6,1.9,8,2.1,8.2
		c-0.2-0.1-1.3-1.2,0.2-9.6C94.2,15.6,87.4,7.6,87.4,7.6z"/>
	<rect x="73.7" y="71" class="st0" width="3.9" height="20.2"/>
	<path class="st0" d="M130.1,103.7c1.7-0.3,5.9-7.4,6.7-11.4c1,0.4,2.1,1.2,2.1,1.2c2.4-9.1-3.9-17.8-3.9-17.8l0,0
		c-1-1.6-2.5-2.5-4.4-3.2c-1.7-0.6-3.1,0.2-4.6-0.8c-0.8-0.5-2.2-0.9-3.2-1c-4.7-0.4-8.8,1.8-11.1,4.7c0,0-6.9,8.5-4.8,17.8
		c0,0,1.3-0.8,2.3-1.1c0.4,4.2,3.3,11.4,6.6,11.7c0.4,2.4,0.7,4.8,1.3,7c1.8,6.4,3.9,13.5,5.8,19.8c0.2-0.7,0.5-1.9,0.6-2.4
		C125.7,120,129.5,112.3,130.1,103.7z"/>
	
		<rect x="84.7" y="93.8" transform="matrix(0.7071 -0.7071 0.7071 0.7071 -48.1085 91.726)" class="st0" width="3.9" height="20.2"/>
	
		<rect x="54.6" y="102" transform="matrix(0.7072 -0.7071 0.7071 0.7072 -54.5691 76.1593)" class="st0" width="20.2" height="3.9"/>
</g>
</svg>
