<?xml version="1.0" encoding="utf-8"?>
<!-- Generator: Adobe Illustrator 22.0.1, SVG Export Plug-In . SVG Version: 6.00 Build 0)  -->
<svg version="1.1" id="Capa_1" xmlns="http://www.w3.org/2000/svg" xmlns:xlink="http://www.w3.org/1999/xlink" x="0px" y="0px"
	 viewBox="0 0 105.2 134.7" style="enable-background:new 0 0 105.2 134.7;" xml:space="preserve">
<style type="text/css">
	.st0{fill:#EF7B4F;}
</style>
<g>
	<path class="st0" d="M65.8,87.3c-1.7,0-3.1,1.4-3.1,3.1s1.4,3.1,3.1,3.1s3.1-1.4,3.1-3.1S67.5,87.3,65.8,87.3z"/>
	<path class="st0" d="M37.5,92.8c-2.6,0-4.7,2.1-4.7,4.7c0,2.6,2.1,4.7,4.7,4.7s4.7-2.1,4.7-4.7C42.2,94.9,40.1,92.8,37.5,92.8z"/>
	<path class="st0" d="M53.3,99.8c-4.1,0-7.5,3.4-7.5,7.5c0,4.1,3.4,7.5,7.5,7.5s7.5-3.4,7.5-7.5C60.8,103.1,57.4,99.8,53.3,99.8z"/>
	<path class="st0" d="M26.2,109.8c-1.2,0-2.2,1-2.2,2.2s1,2.2,2.2,2.2s2.2-1,2.2-2.2C28.4,110.6,27.4,109.8,26.2,109.8z"/>
	<rect x="32.6" y="3.8" class="st0" width="39.8" height="7.5"/>
	<path class="st0" d="M92.3,93.1c-3.7-5.7-7.8-11.3-11.8-16.8c-3.2-4.5-6.4-8.9-9.6-13.3c-0.6-0.8-1-1.7-1.3-2.5v-9.6H55.2v-2.4
		h14.4v-5.3H55.2v-2.5h14.4v-5.3H55.2v-2.5h14.4v-5.3H55.2V25h14.4v-9.4H35.3v44.9c-0.3,0.8-0.7,1.5-1.2,2.2
		c-3.2,4.4-6.4,8.9-9.6,13.3c-4,5.6-8,11.1-11.8,16.8c-2.4,3.7-4.3,7.6-6.2,11.5c-0.8,1.7-1.2,3.5-1.8,5.2c0,1.4,0,2.7,0,4.1
		c0,3.3,0,6.6,0,10c0,1,0,2,0,3v4.2h95.8v-4.2c0-1,0-2,0-3c0-3.3,0-6.6,0-10c0-1.4,0-2.7,0-4.1c-0.6-1.8-1-3.6-1.8-5.2
		C96.6,100.6,94.7,96.6,92.3,93.1z M91.7,113c0,3.5,0,7.1,0,10.6c-26.2,0-52.4,0-78.6,0c0-3.5,0-7.1,0-10.6c0-1.1,0-2.2,0-3.4
		c0.5-1.4,0.8-2.9,1.5-4.3c1.6-3.2,3.2-6.4,5.1-9.4c3.1-4.7,6.4-9.2,9.7-13.8h46c3.3,4.6,6.6,9.1,9.7,13.8c2,3,3.5,6.2,5.1,9.4
		c0.7,1.4,1,2.9,1.5,4.3C91.7,110.8,91.7,111.9,91.7,113z"/>
	<path class="st0" d="M77.9,106c-3,0-5.4,2.4-5.4,5.4s2.4,5.4,5.4,5.4s5.4-2.4,5.4-5.4C83.3,108.4,80.8,106,77.9,106z"/>
</g>
</svg>
