<?xml version="1.0" encoding="utf-8"?>
<!-- Generator: Adobe Illustrator 22.0.1, SVG Export Plug-In . SVG Version: 6.00 Build 0)  -->
<svg version="1.1" id="Capa_1" xmlns="http://www.w3.org/2000/svg" xmlns:xlink="http://www.w3.org/1999/xlink" x="0px" y="0px"
	 viewBox="0 0 127.6 129.7" style="enable-background:new 0 0 127.6 129.7;" xml:space="preserve">
<style type="text/css">
	.st0{fill:none;}
	.st1{fill:#EF7B4F;}
</style>
<g>
	<path class="st0" d="M163.8,62.8c0,55.2-44.8,100-100,100s-100-44.8-100-100s44.8-100,100-100C119.1-37.1,163.8,7.6,163.8,62.8z"/>
	<path class="st1" d="M7.3,7.7c8.1,2.7,16.2,5.5,24.3,8.2c0.6,0.2,1.2,0.4,2,0.7C27.7,22.5,22,28.2,16,34.2
		c-0.3-0.7-0.5-1.3-0.6-1.8c-2.3-7.1-4.7-14.1-7-21.2c-0.3-1-0.9-2-1.4-3.1C7,7.9,7.2,7.8,7.3,7.7z"/>
	<path class="st1" d="M19.3,37.6c6-6,11.9-11.9,17.8-17.8C61.5,44.2,85.9,68.6,110.3,93c-0.9,0.9-1.7,1.7-2.5,2.5
		c-23-23-46.1-46.1-69.2-69.2c-0.8,0.8-1.6,1.6-2.5,2.5c23,23,46,46,69.3,69.3c-4.3,4.3-8.5,8.5-12.8,12.8
		C68.3,86.6,43.8,62.2,19.3,37.6z"/>
	<path class="st1" d="M96.1,114.6c6-6,11.9-11.9,17.9-17.9c3.7,3.9,8.2,7.1,10.3,12c1.3,3,0.4,5.2-1.1,6.9c-2.7,3-5.4,5.9-8.5,8.4
		c-3.3,2.7-6.7,2.3-11.6-2.3C100.9,119.5,98.6,117.1,96.1,114.6z"/>
	<path class="st1" d="M122.7,18.7c0,0-9.3,10.1-10,11.1c-2.3,3.2-4.3,1.6-4.3,1.6s-9.2-6.6-10.5-7.8c-2.1-2,0.3-5,0.3-5l10.9-12.1
		c1.9-2.5,2.2-2.6-8.6,1.4C87,12.9,88.6,21,88.4,23.5c-0.9,8.8-3.2,11.2-3.2,11.2L70.7,49.2l0,0l-23,22.7L47.6,72l-8.7,8.7
		c0,0-5.7,6.1-14.9,6.1c-8.3,0-8.6,2.2-10.4,5c-4.3,6.5-5.5,14.2-6.8,19.4C6,114.6,7.2,113,7.2,113s9.3-10.1,10-11.1
		c2.3-3.2,4.3-1.6,4.3-1.6s9.2,6.6,10.5,7.8c2,2-0.3,5-0.3,5l-10.9,12.1c-1.9,2.5-2.2,2.6,8.6-1.4c13.5-5,11.9-13.1,12.1-15.6
		c0.9-8.8,3.2-11.2,3.2-11.2l14.5-14.5l0,0L90.8,51c0,0,5.7-6.1,14.9-6.1c8.3,0,8.6-2.2,10.4-5c4.3-6.5,5.5-14.2,6.8-19.4
		C123.9,17.1,122.7,18.7,122.7,18.7z M90.1,45.2C90,45.7,44.5,90.7,44.5,90.7s-5.8,1.8-4.4-4.4l45.5-45.5
		C85.7,40.8,91.5,39.5,90.1,45.2z"/>
</g>
</svg>
