<?xml version="1.0" encoding="utf-8"?>
<!-- Generator: Adobe Illustrator 22.0.0, SVG Export Plug-In . SVG Version: 6.00 Build 0)  -->
<svg version="1.1" id="Capa_1" xmlns="http://www.w3.org/2000/svg" xmlns:xlink="http://www.w3.org/1999/xlink" x="0px" y="0px"
	 viewBox="0 0 280.5 235.1" style="enable-background:new 0 0 280.5 235.1;" xml:space="preserve">
<style type="text/css">
	.st0{fill-rule:evenodd;clip-rule:evenodd;fill:#EF7B4F;}
</style>
<g>
	<path class="st0" d="M140.2,17.6c-55.2,0-100,44.7-100,100c0,55.2,44.7,100,100,100c55.2,0,100-44.8,100-100
		C240.2,62.4,195.4,17.6,140.2,17.6z M120.2,49.8H160v7.5h-39.8V49.8z M188,159.8c0,3.3,0,6.6,0,10c0,1,0,2,0,3v4.2H92.2v-4.2
		c0-1,0-2,0-3c0-3.3,0-6.6,0-10c0-1.4,0-2.7,0-4.1c0.6-1.8,1-3.6,1.8-5.2c2-3.9,3.9-7.8,6.2-11.5c3.7-5.7,7.8-11.3,11.8-16.8
		c3.2-4.5,6.4-8.9,9.6-13.3c0.5-0.7,0.9-1.5,1.2-2.2V61.6h34.3V71h-14.4v2.5h14.4v5.3h-14.4v2.5h14.4v5.3h-14.4v2.5h14.4v5.3h-14.4
		v2.4h14.4v9.6c0.3,0.9,0.7,1.7,1.3,2.5c3.2,4.4,6.4,8.9,9.6,13.3c4,5.6,8.1,11.1,11.8,16.8c2.4,3.7,4.3,7.6,6.2,11.5
		c0.8,1.7,1.2,3.5,1.8,5.2C188,157.1,188,158.4,188,159.8z"/>
	<path class="st0" d="M172.8,141.9c-3.1-4.7-6.4-9.2-9.7-13.8l-46,0c-3.3,4.6-6.6,9.1-9.7,13.8c-2,3-3.5,6.2-5.1,9.4
		c-0.7,1.4-1,2.9-1.5,4.3c0,1.1,0,2.2,0,3.4c0,3.5,0,7.1,0,10.6c26.2,0,52.4,0,78.6,0c0-3.5,0-7.1,0-10.6c0-1.1,0-2.2,0-3.4
		c-0.5-1.4-0.8-2.9-1.5-4.3C176.3,148.2,174.7,145,172.8,141.9z M113.9,160.1c-1.2,0-2.2-1-2.2-2.2c0-1.2,1-2.2,2.2-2.2
		c1.2,0,2.2,1,2.2,2.2C116.1,159.1,115.1,160.1,113.9,160.1z M125.2,148.2c-2.6,0-4.7-2.1-4.7-4.7c0-2.6,2.1-4.7,4.7-4.7
		c2.6,0,4.7,2.1,4.7,4.7C129.9,146.1,127.8,148.2,125.2,148.2z M140.9,160.8c-4.1,0-7.5-3.4-7.5-7.5c0-4.1,3.4-7.5,7.5-7.5
		c4.1,0,7.5,3.4,7.5,7.5C148.4,157.4,145,160.8,140.9,160.8z M153.4,139.5c-1.7,0-3.1-1.4-3.1-3.1c0-1.7,1.4-3.1,3.1-3.1
		c1.7,0,3.1,1.4,3.1,3.1C156.5,138.1,155.1,139.5,153.4,139.5z M165.5,162.8c-3,0-5.4-2.4-5.4-5.4c0-3,2.4-5.4,5.4-5.4
		c3,0,5.4,2.4,5.4,5.4C170.9,160.4,168.5,162.8,165.5,162.8z"/>
</g>
</svg>
