<?xml version="1.0" encoding="utf-8"?>
<!-- Generator: Adobe Illustrator 22.0.0, SVG Export Plug-In . SVG Version: 6.00 Build 0)  -->
<svg version="1.1" id="Capa_1" xmlns="http://www.w3.org/2000/svg" xmlns:xlink="http://www.w3.org/1999/xlink" x="0px" y="0px"
	 viewBox="0 0 193.3 168.4" style="enable-background:new 0 0 193.3 168.4;" xml:space="preserve">
<style type="text/css">
	.st0{fill-rule:evenodd;clip-rule:evenodd;fill:#EF7B4F;}
</style>
<g>
	<path class="st0" d="M135,57.7c-4.9,0-9.5,0-14.3,0c0,13.6,0,27.1,0,40.7c4.8,0,9.5,0,14.3,0C135,84.8,135,71.3,135,57.7z"/>
	<path class="st0" d="M116.1,78.1c-4.9,0-9.6,0-14.4,0c0,6.8,0,13.5,0,20.3c4.9,0,9.6,0,14.4,0C116.1,91.6,116.1,84.9,116.1,78.1z"
		/>
	<path class="st0" d="M83.6,98.5c4.8,0,9.5,0,14.3,0c0-10.1,0-19.9,0-29.8c-4.9,0-9.6,0-14.3,0C83.6,78.7,83.6,88.5,83.6,98.5z"/>
	<path class="st0" d="M122.6,129.1c13.2-3.3,23.6-10.9,31-22.6c4.9-7.8,7.6-16.2,7.9-25.2c0.6-18.4-6.3-33.5-21.3-44.4
		c-12.8-9.4-27.2-12.1-42.5-8.3c-14,3.5-24.7,11.7-32,24.2c-4.6,7.9-6.8,16.4-6.9,25.5c-0.2,11.1,2.9,21.4,9.4,30.4
		c1.3,1.8,1.3,2.8-0.2,4.3c-7.1,7-14.1,14.2-21.2,21.2c-4,3.9-8.1,7.8-11.9,11.5c3.3,3.3,6.1,6.1,9.4,9.4c0.5-0.7,1.1-1.7,1.8-2.4
		c10.4-10.5,20.8-20.9,31.2-31.4c1-1,1.7-1.3,3.1-0.3C93.1,130,107.4,132.8,122.6,129.1z M70.6,79.3c0-22.4,18-39.9,39.3-40.2
		c21.4-0.2,39.8,18.2,39.7,39.4c0.1,22.3-18,39.9-39.4,40.1C88.9,118.7,70.6,100.3,70.6,79.3z"/>
</g>
</svg>
