<?xml version="1.0" encoding="utf-8"?>
<!-- Generator: Adobe Illustrator 22.0.1, SVG Export Plug-In . SVG Version: 6.00 Build 0)  -->
<svg version="1.1" id="Capa_1" xmlns="http://www.w3.org/2000/svg" xmlns:xlink="http://www.w3.org/1999/xlink" x="0px" y="0px"
	 viewBox="0 0 177.8 184.7" style="enable-background:new 0 0 177.8 184.7;" xml:space="preserve">
<style type="text/css">
	.st0{fill:none;}
	.st1{fill:#EF7B4F;}
</style>
<g>
	<path class="st0" d="M-13.5,77.8L-13.5,77.8c0,30.3,13.4,57.4,34.6,75.8c0-0.1,0-0.2,0-0.4C-0.1,135-13.5,108-13.5,77.8z"/>
	<path class="st0" d="M40.5,166.9c10.7,5.6,22.6,9.3,35.2,10.7c0-0.1,0-0.3,0-0.5c-12.6-1.4-24.5-5-35.2-10.6
		C40.4,166.6,40.5,166.8,40.5,166.9z"/>
	<path class="st0" d="M102.2,177c13.3-2.1,25.8-6.8,36.9-13.6c0-0.2,0-0.5,0-0.7c-11,6.9-23.5,11.6-36.9,13.7
		C102.2,176.6,102.2,176.8,102.2,177z"/>
	<path class="st0" d="M186.4,77.7c0,27.6-11.2,52.7-29.4,70.8c0,0.3,0,0.5,0.1,0.8c18.4-18.2,29.8-43.4,29.8-71.3
		c0-52.8-40.9-96.1-92.7-99.9C145.8-18,186.4,25.1,186.4,77.7z"/>
	<path class="st1" d="M156.6,141.9c-0.3-5.1-0.6-10.2-0.9-15.3c-0.2-3.9-0.4-7.8-0.7-11.7c-0.2-3.2-0.3-6.4-0.5-9.7
		c0-0.9-0.1-1.7-0.2-2.6c0-0.3,0-0.5,0.2-0.7c0.6-0.4,1.2-0.9,1.8-1.4c0.4-0.3,0.8-0.6,1.2-0.9c0.5-0.4,1.1-0.9,1.5-1.4
		c0.5-0.5,1-1.1,1.4-1.7c0.7-1,1.3-2.1,1.9-3.2c0.3-0.5,0.4-1,0.6-1.5c0.4-0.9,0.7-1.9,1.1-2.8c0.3-0.8,0.7-1.5,1.1-2.3
		c0.6-1.2,1.4-2.4,2.3-3.5c0.5-0.7,1.1-1.3,1.8-1.9s1.5-1.1,2.2-1.7c0.4-0.3,0.8-0.6,1-1.1c0.4-0.8,0.5-1.6-0.1-2.4
		c-0.5-0.7-1.1-1.2-2-1.2c-1.2,0-2.4,0.2-3.6,0.7c-0.9,0.4-1.8,0.8-2.5,1.4c-0.5,0.4-1.1,0.8-1.6,1.3c-0.7,0.6-1.3,1.3-1.9,2
		c-0.4,0.6-0.8,1.1-1.2,1.7c-0.2,0.3-0.3,0.6-0.5,0.8c-0.2,0.3-0.3,0.5-0.4,0.8c-0.2,0.3-0.5,0.3-0.7,0c-0.2-0.5-0.4-1-0.6-1.5
		c-0.2-1.1-0.5-2.3-0.6-3.4c-0.2-1.2-0.2-2.5,0-3.7c0.4-1.7,0.8-3.5,1.1-5.2c0.3-1.4,0.6-2.9,1-4.3c0.5-2.4,1.1-4.8,1.6-7.2
		c0.2-0.7,0.3-1.5,0.4-2.2c0.1-1.5-0.9-2.8-2.3-3c-0.7-0.1-1.3,0-1.9,0.5c-0.6,0.5-0.9,1.2-1.1,1.9c-0.4,1.4-0.8,2.7-1.1,4.1
		c-0.3,1.2-0.7,2.4-1,3.6c-0.5,1.9-1,3.7-1.5,5.6c-0.2,0.8-0.4,1.5-0.6,2.3c-0.2,0.6-0.4,1.2-0.6,1.8c-0.1,0.4-0.5,0.4-0.8,0.2
		c-0.5-0.4-0.7-0.9-0.7-1.5c0-2.4,0-4.9-0.1-7.3c0-2.8-0.1-5.6-0.2-8.4c0-1.5,0-2.9-0.2-4.4c-0.2-1.3-0.9-2.2-2-2.6
		c-0.8-0.3-1.6-0.2-2.3,0.4c-0.3,0.3-0.6,0.6-0.7,1c-0.4,0.8-0.5,1.7-0.5,2.6c0,1.7,0,3.4,0,5.1c0.1,4.4,0.1,8.9,0.2,13.3
		c0,0.6,0,1.3,0,1.9c0,0.2,0,0.4-0.2,0.5s-0.4,0-0.5-0.1l-0.1-0.1c-0.3-0.3-0.3-0.7-0.4-1c-0.4-1.4-0.8-2.8-1.2-4.2
		c-0.6-2-1.1-4-1.7-6c-0.3-1.2-0.6-2.3-1-3.5c-0.4-1.5-0.9-3-1.3-4.5c-0.2-0.6-0.6-1-1-1.4c-0.6-0.4-1.2-0.5-1.9-0.3
		c-0.7,0.1-1.1,0.6-1.3,1.2c-0.4,1.3-0.3,2.6-0.1,4c0.2,1,0.4,2.1,0.7,3.1c0.3,1.4,0.7,2.8,1,4.2c0.5,2.2,1,4.4,1.6,6.6
		c0.3,1.3,0.6,2.6,0.9,3.9c0.1,0.3,0.1,0.6,0,0.9c0,0.1-0.2,0.2-0.3,0.3c-0.1,0-0.2-0.1-0.3-0.2s-0.1-0.2-0.2-0.3
		c-0.3-0.5-0.6-1-0.9-1.5c-0.7-1.1-1.3-2.2-2-3.3c-0.5-0.7-0.9-1.5-1.4-2.2c-0.8-1.2-1.5-2.5-2.3-3.7c-0.3-0.5-0.6-1-0.9-1.4
		c-0.3-0.5-0.7-1-1.2-1.3c-1-0.5-2.1-0.3-2.8,0.6c-0.1,0.1-0.1,0.2-0.2,0.3c-0.1,0.3-0.2,0.5-0.2,0.8c0,0.2,0,0.5,0,0.7
		c0.1,0.4,0.2,0.9,0.3,1.3c0.4,1.5,1.2,2.9,1.9,4.2c0.4,0.8,0.9,1.6,1.3,2.4c0.8,1.5,1.6,2.9,2.4,4.4c0.5,1,1.1,1.9,1.5,2.9
		c0.2,0.4,0.4,0.9,0.5,1.4c0.1,1.5,0.2,2.9,0.3,4.4c0.2,3,0.5,6,1.5,8.9c0.6,1.8,1.3,3.6,2.3,5.2c0.6,1,1.4,2,2.3,2.7
		c0.3,0.2,0.4,0.5,0.4,0.9s0,0.7,0,1.1c0,2.7,0,5.4,0,8.1c0,3.1,0,6.1,0,9.2c0,4.5,0,8.9,0,13.4c0,2.9,0,5.8,0,8.6
		c0,0.7,0,1.4,0,2.1c0,0.2-0.1,8.3-0.1,15.9c6.5-4,12.5-8.8,18-14.2C156.8,145.3,156.6,142.6,156.6,141.9z"/>
	<path class="st1" d="M98.6,134c-0.4-6.8-0.8-13.5-1.1-20.3c-0.3-5.2-0.6-10.4-0.9-15.5c-0.2-4.3-0.5-8.6-0.7-12.8
		c-0.1-1.2-0.2-2.3-0.2-3.5c0-0.3,0-0.7,0.3-0.9c0.8-0.6,1.6-1.2,2.4-1.8c0.5-0.4,1.1-0.8,1.6-1.3c0.7-0.6,1.4-1.2,2-1.9
		c0.7-0.7,1.3-1.5,1.9-2.3c0.9-1.4,1.7-2.8,2.5-4.2c0.3-0.6,0.6-1.3,0.8-1.9c0.5-1.2,0.9-2.5,1.4-3.7c0.4-1,1-2,1.5-3
		c0.8-1.7,1.9-3.2,3-4.6c0.7-0.9,1.5-1.7,2.3-2.5c0.9-0.8,2-1.5,3-2.2c0.5-0.4,1-0.8,1.3-1.4c0.5-1.1,0.7-2.1-0.1-3.1
		c-0.7-1-1.5-1.6-2.7-1.6c-1.6,0-3.2,0.3-4.8,1c-1.2,0.5-2.3,1.1-3.4,1.9c-0.7,0.5-1.4,1.1-2.1,1.7c-0.9,0.8-1.8,1.7-2.5,2.7
		c-0.6,0.7-1.1,1.5-1.6,2.3c-0.2,0.4-0.4,0.7-0.6,1.1c-0.2,0.4-0.4,0.7-0.6,1.1c-0.2,0.4-0.7,0.4-0.9,0c-0.3-0.6-0.6-1.3-0.7-1.9
		c-0.3-1.5-0.6-3-0.8-4.5c-0.3-1.6-0.3-3.3,0-4.9c0.5-2.3,1-4.6,1.5-6.9c0.4-1.9,0.8-3.8,1.3-5.7c0.7-3.2,1.4-6.4,2.1-9.6
		c0.2-1,0.4-2,0.5-3c0.2-2.1-1.2-3.7-3-4c-0.9-0.2-1.8,0-2.5,0.7C98,18.1,97.7,19,97.4,20c-0.5,1.8-1,3.6-1.5,5.4
		c-0.4,1.6-0.9,3.2-1.3,4.7c-0.7,2.5-1.4,4.9-2.1,7.4c-0.3,1-0.5,2-0.8,3c-0.2,0.8-0.5,1.6-0.7,2.4c-0.2,0.5-0.7,0.5-1,0.2
		c-0.6-0.5-1-1.2-1-2c0-3.2-0.1-6.4-0.1-9.7c-0.1-3.7-0.1-7.5-0.2-11.2c0-1.9,0-3.9-0.2-5.8c-0.2-1.7-1.2-2.9-2.7-3.5
		c-1.1-0.4-2.2-0.3-3.1,0.6c-0.4,0.4-0.7,0.8-1,1.3c-0.5,1.1-0.7,2.3-0.7,3.5c0,2.2,0,4.5,0.1,6.7c0.1,5.9,0.2,11.8,0.3,17.7
		c0,0.9,0,1.7,0,2.6c0,0.3,0,0.5-0.3,0.6s-0.5,0-0.7-0.2l-0.1-0.1c-0.3-0.4-0.4-0.9-0.6-1.3c-0.5-1.8-1-3.7-1.6-5.5
		c-0.8-2.7-1.5-5.3-2.2-8c-0.4-1.5-0.9-3.1-1.3-4.6c-0.6-2-1.1-4-1.8-5.9c-0.2-0.8-0.7-1.4-1.4-1.9c-0.8-0.6-1.6-0.6-2.5-0.4
		c-0.9,0.2-1.4,0.8-1.7,1.6c-0.5,1.7-0.5,3.5-0.2,5.3c0.2,1.4,0.6,2.8,0.9,4.1c0.4,1.9,0.9,3.7,1.4,5.6c0.7,2.9,1.4,5.8,2.1,8.7
		c0.4,1.7,0.9,3.5,1.3,5.2c0.1,0.4,0.1,0.8,0.1,1.2c0,0.1-0.2,0.3-0.4,0.3c-0.1,0-0.2-0.1-0.3-0.2c-0.1-0.1-0.1-0.3-0.2-0.4
		c-0.4-0.7-0.8-1.4-1.3-2c-0.9-1.5-1.8-3-2.7-4.4c-0.6-1-1.2-2-1.8-3c-1-1.6-2-3.3-3-4.9c-0.4-0.6-0.8-1.3-1.1-1.9
		c-0.4-0.7-0.9-1.4-1.6-1.7c-1.4-0.7-2.8-0.4-3.8,0.8c-0.1,0.1-0.2,0.2-0.2,0.4c-0.1,0.3-0.2,0.7-0.3,1.1c0,0.3,0,0.6,0,1
		c0.1,0.6,0.2,1.2,0.4,1.8c0.6,2,1.6,3.8,2.6,5.6c0.6,1.1,1.2,2.1,1.8,3.2c1.1,2,2.1,3.9,3.2,5.9c0.7,1.3,1.4,2.5,2,3.8
		c0.3,0.6,0.6,1.2,0.6,1.8c0.2,1.9,0.3,3.9,0.4,5.8c0.2,4,0.7,8,2,11.8c0.8,2.4,1.8,4.7,3.1,6.9c0.9,1.4,1.9,2.6,3.1,3.6
		c0.4,0.3,0.5,0.7,0.5,1.1c0,0.5,0,1,0,1.5c0,3.6,0,7.2,0,10.8c0,4.1,0,8.2,0,12.2c0,5.9,0,11.9,0,17.8c0,3.8,0,7.7,0,11.5
		c0,0.9,0,1.9,0,2.8c0,0.4-0.3,27.9,0.2,36.6c3.6,0.4,7.2,0.6,10.8,0.6c5.4,0,10.6-0.4,15.8-1.2c-0.4-5.4-1.5-13.8-1.6-14.3
		C100.5,159.5,98.8,136.6,98.6,134z"/>
	<path class="st0" d="M86.7-22.2c2.5,0,5,0.1,7.5,0.3c-2.5-0.2-5.1-0.3-7.7-0.3c-55.2,0-100,44.8-100,100v0.1
		C-13.5,22.6,31.4-22.2,86.7-22.2z"/>
	<path class="st1" d="M38.5,142c-0.3-5.1-0.6-10.2-0.9-15.3c-0.2-3.9-0.4-7.8-0.7-11.7c-0.2-3.2-0.3-6.4-0.5-9.7
		c0-0.9-0.1-1.7-0.2-2.6c0-0.3,0-0.5,0.2-0.7c0.6-0.4,1.2-0.9,1.8-1.3c0.4-0.3,0.8-0.6,1.2-0.9c0.5-0.4,1.1-0.9,1.5-1.4
		c0.5-0.5,1-1.1,1.4-1.7c0.7-1,1.3-2.1,1.9-3.2c0.3-0.5,0.4-1,0.6-1.5c0.4-0.9,0.7-1.9,1.1-2.8c0.3-0.8,0.7-1.5,1.1-2.3
		c0.6-1.2,1.4-2.4,2.3-3.5c0.5-0.7,1.1-1.3,1.8-1.9c0.7-0.6,1.5-1.1,2.2-1.7c0.4-0.3,0.8-0.6,1-1.1c0.4-0.8,0.5-1.6,0-2.4
		c-0.5-0.7-1.2-1.2-2-1.2c-1.2,0-2.4,0.2-3.6,0.7c-0.9,0.4-1.8,0.8-2.5,1.4c-0.5,0.4-1.1,0.8-1.6,1.3c-0.7,0.6-1.3,1.3-1.9,2
		c-0.4,0.6-0.8,1.1-1.2,1.7c-0.2,0.3-0.3,0.6-0.5,0.8c-0.1,0.3-0.3,0.5-0.5,0.8s-0.5,0.3-0.7,0c-0.2-0.5-0.4-1-0.6-1.5
		c-0.2-1.1-0.5-2.3-0.6-3.4c-0.2-1.2-0.2-2.5,0-3.7c0.4-1.7,0.8-3.5,1.1-5.2c0.3-1.4,0.6-2.9,1-4.3c0.5-2.4,1.1-4.8,1.6-7.2
		c0.2-0.7,0.3-1.5,0.4-2.2c0.1-1.5-0.9-2.8-2.3-3c-0.7-0.1-1.3,0-1.9,0.5s-0.9,1.2-1.1,1.9c-0.4,1.4-0.8,2.7-1.1,4.1
		c-0.3,1.2-0.7,2.4-1,3.6c-0.5,1.9-1,3.7-1.6,5.6c-0.2,0.8-0.4,1.5-0.6,2.3c-0.2,0.6-0.4,1.2-0.6,1.8c-0.1,0.4-0.5,0.4-0.8,0.2
		c-0.5-0.4-0.7-0.9-0.7-1.5c0-2.4,0-4.8-0.1-7.3c0-2.8-0.1-5.6-0.2-8.4c0-1.5,0-2.9-0.2-4.4c-0.2-1.3-0.9-2.2-2-2.6
		c-0.8-0.3-1.6-0.2-2.3,0.4c-0.3,0.3-0.6,0.6-0.7,1c-0.4,0.8-0.5,1.7-0.5,2.6c0,1.7,0,3.4,0,5.1c0.3,4.7,0.4,9.1,0.4,13.5
		c0,0.6,0,1.3,0,1.9c0,0.2,0,0.4-0.2,0.5s-0.4,0-0.5-0.1l-0.1-0.1c-0.3-0.3-0.3-0.7-0.4-1c-0.4-1.4-0.8-2.8-1.2-4.2
		c-0.6-2-1.1-4-1.7-6c-0.3-1.2-0.7-2.3-1-3.5c-0.4-1.5-0.9-3-1.3-4.5c-0.2-0.6-0.6-1-1-1.4c-0.6-0.4-1.2-0.5-1.9-0.3
		c-0.7,0.1-1.1,0.6-1.3,1.2c-0.4,1.3-0.3,2.7-0.1,4c0.2,1,0.4,2.1,0.7,3.1c0.3,1.4,0.7,2.8,1,4.2c0.5,2.2,1.1,4.4,1.6,6.6
		c0.3,1.3,0.6,2.6,0.9,3.9c0.1,0.3,0.1,0.6,0,0.9c0,0.1-0.2,0.2-0.3,0.3c-0.1,0-0.2-0.1-0.3-0.2s-0.1-0.2-0.2-0.3
		c-0.3-0.5-0.6-1-0.9-1.5c-0.7-1.1-1.3-2.2-2-3.3c-0.5-0.7-0.9-1.5-1.4-2.2c-0.8-1.2-1.5-2.5-2.3-3.7c-0.3-0.5-0.6-1-0.9-1.4
		c-0.3-0.5-0.7-1-1.2-1.3c-1-0.5-2.1-0.3-2.8,0.6C6.5,64,6.5,64,6.4,64.2c0,0.2,0,0.5-0.1,0.7c0,0.2,0,0.5,0,0.7
		c0.1,0.4,0.2,0.9,0.3,1.3C7,68.3,7.8,69.8,8.5,71c0.4,0.8,0.9,1.6,1.3,2.4c0.8,1.5,1.6,3,2.4,4.4c0.5,1,1.1,1.9,1.5,2.9
		c0.2,0.4,0.4,0.9,0.5,1.4c0.1,1.5,0.2,2.9,0.3,4.4c0.2,3,0.5,6,1.5,8.9c0.6,1.8,1.3,3.6,2.3,5.2c0.6,1,1.4,2,2.3,2.7
		c0.3,0.2,0.4,0.5,0.4,0.9s0,0.7,0,1.1c0,2.7,0,5.4,0,8.1c0,3.1,0,6.1,0,9.2c0,4.5,0,8.9,0,13.4c0,2.9,0,5.8,0,8.6
		c0,0.7,0,1.4,0,2.1c0,0.1,0,2.8,0,6.4c5.9,5.1,12.4,9.5,19.4,13.2c-0.2-1.8-0.4-3.1-0.4-3.3C39.9,161.2,38.6,144,38.5,142z"/>
</g>
</svg>
