<?xml version="1.0" encoding="utf-8"?>
<!-- Generator: Adobe Illustrator 22.0.1, SVG Export Plug-In . SVG Version: 6.00 Build 0)  -->
<svg version="1.1" id="Capa_1" xmlns="http://www.w3.org/2000/svg" xmlns:xlink="http://www.w3.org/1999/xlink" x="0px" y="0px"
	 viewBox="0 0 211.3 204.5" style="enable-background:new 0 0 211.3 204.5;" xml:space="preserve">
<style type="text/css">
	.st0{fill:#EF7B4F;}
</style>
<g>
	<rect x="108.3" y="117.5" class="st0" width="4" height="37.3"/>
	<rect x="129.2" y="117.5" class="st0" width="4" height="37.3"/>
	<rect x="150.2" y="117.5" class="st0" width="4" height="37.3"/>
	<rect x="97.8" y="117.5" class="st0" width="4" height="37.3"/>
	<rect x="139.8" y="117.5" class="st0" width="4" height="37.3"/>
	<rect x="118.8" y="117.5" class="st0" width="4" height="37.3"/>
	<path class="st0" d="M105.7,2.2c-55.2,0-100,44.8-100,100s44.8,100,100,100s100-44.8,100-100C205.6,46.9,161,2.2,105.7,2.2z
		 M107.8,24.6h15.8v11.5h-15.8V24.6z M104.3,46.6v-22h2v22c30,0.4,35.8,31.3,35.8,31.3H69.2C69.2,77.8,75,47.4,104.3,46.6z
		 M69.2,80.2h72.9v3H69.2C69.2,83.2,69.2,80.2,69.2,80.2z M61.7,86.1h87.4v3.7h-3.6v21H139v-21h-4v21h-6.5v-21h-4v21H118v-21h-4v21
		h-6.5v-21h-4v21H97v-21h-4v21h-6.5v-21h-4v21H76v-21h-4v21h-6.5v-21h-3.7v-3.7H61.7z M165.1,117.5h-4.3v37.3h4.3v3.7H45.6v-3.7h3.7
		v-37.3h-3.7v-3.7h119.5V117.5z"/>
	<rect x="55.8" y="117.5" class="st0" width="4" height="37.3"/>
	<rect x="76.8" y="117.5" class="st0" width="4" height="37.3"/>
	<rect x="87.3" y="117.5" class="st0" width="4" height="37.3"/>
	<rect x="66.3" y="117.5" class="st0" width="4" height="37.3"/>
</g>
</svg>
