<?xml version="1.0" encoding="utf-8"?>
<!-- Generator: Adobe Illustrator 22.0.0, SVG Export Plug-In . SVG Version: 6.00 Build 0)  -->
<svg version="1.1" id="Capa_1" xmlns="http://www.w3.org/2000/svg" xmlns:xlink="http://www.w3.org/1999/xlink" x="0px" y="0px"
	 viewBox="0 0 193.3 168.4" style="enable-background:new 0 0 193.3 168.4;" xml:space="preserve">
<style type="text/css">
	.st0{fill-rule:evenodd;clip-rule:evenodd;fill:#EF7B4F;}
</style>
<g>
	<path class="st0" d="M111.2,110.2c-1.7,0-3.1,1.4-3.1,3.1c0,1.7,1.4,3.1,3.1,3.1c1.7,0,3.1-1.4,3.1-3.1
		C114.3,111.6,112.9,110.2,111.2,110.2z"/>
	<path class="st0" d="M82.9,115.7c-2.6,0-4.7,2.1-4.7,4.7c0,2.6,2.1,4.7,4.7,4.7c2.6,0,4.7-2.1,4.7-4.7
		C87.6,117.8,85.5,115.7,82.9,115.7z"/>
	<path class="st0" d="M98.7,122.7c-4.1,0-7.5,3.4-7.5,7.5c0,4.1,3.4,7.5,7.5,7.5c4.1,0,7.5-3.4,7.5-7.5
		C106.2,126,102.8,122.7,98.7,122.7z"/>
	<path class="st0" d="M71.6,132.6c-1.2,0-2.2,1-2.2,2.2c0,1.2,1,2.2,2.2,2.2c1.2,0,2.2-1,2.2-2.2C73.8,133.5,72.8,132.6,71.6,132.6z
		"/>
	<rect x="78" y="26.7" class="st0" width="39.8" height="7.5"/>
	<path class="st0" d="M137.7,115.9c-3.7-5.7-7.8-11.3-11.8-16.8c-3.2-4.5-6.4-8.9-9.6-13.3c-0.6-0.8-1-1.7-1.3-2.5v-9.6h-14.4v-2.4
		H115v-5.3h-14.4v-2.5H115v-5.3h-14.4v-2.5H115v-5.3h-14.4v-2.5H115v-9.4H80.7v44.9c-0.3,0.8-0.7,1.5-1.2,2.2
		c-3.2,4.4-6.4,8.9-9.6,13.3c-4,5.6-8,11.1-11.8,16.8c-2.4,3.7-4.3,7.6-6.2,11.5c-0.8,1.7-1.2,3.5-1.8,5.2c0,1.4,0,2.7,0,4.1
		c0,3.3,0,6.6,0,10c0,1,0,2,0,3v4.2h95.8v-4.2c0-1,0-2,0-3c0-3.3,0-6.6,0-10c0-1.4,0-2.7,0-4.1c-0.6-1.8-1-3.6-1.8-5.2
		C142,123.5,140.1,119.5,137.7,115.9z M137.1,135.9c0,3.5,0,7.1,0,10.6c-26.2,0-52.4,0-78.6,0c0-3.5,0-7.1,0-10.6c0-1.1,0-2.2,0-3.4
		c0.5-1.4,0.8-2.9,1.5-4.3c1.6-3.2,3.2-6.4,5.1-9.4c3.1-4.7,6.4-9.2,9.7-13.8l46,0c3.3,4.6,6.6,9.1,9.7,13.8c2,3,3.5,6.2,5.1,9.4
		c0.7,1.4,1,2.9,1.5,4.3C137.1,133.7,137.1,134.8,137.1,135.9z"/>
	<path class="st0" d="M123.3,128.9c-3,0-5.4,2.4-5.4,5.4c0,3,2.4,5.4,5.4,5.4c3,0,5.4-2.4,5.4-5.4
		C128.7,131.3,126.2,128.9,123.3,128.9z"/>
</g>
</svg>
