<?xml version="1.0" encoding="utf-8"?>
<!-- Generator: Adobe Illustrator 22.0.1, SVG Export Plug-In . SVG Version: 6.00 Build 0)  -->
<svg version="1.1" id="Capa_1" xmlns="http://www.w3.org/2000/svg" xmlns:xlink="http://www.w3.org/1999/xlink" x="0px" y="0px"
	 viewBox="0 0 205.9 207" style="enable-background:new 0 0 205.9 207;" xml:space="preserve">
<style type="text/css">
	.st0{fill:#EF7B4F;}
</style>
<g id="t8Lx3N.tif">
	<g>
		<path class="st0" d="M103,203c-53.8,1.3-99.8-45.2-99.7-99.6C3.4,49.5,49,4,102.8,4c54.2-0.1,99.6,45.6,99.8,99.4
			C202.7,157.6,156.9,204.3,103,203z M52.3,164.9c0.5-0.7,1.1-1.7,1.8-2.4c10.4-10.5,20.8-20.9,31.2-31.4c1-1,1.7-1.3,3.1-0.3
			c12.9,9.1,27.1,11.9,42.3,8.1c13.2-3.3,23.6-10.9,31-22.6c4.9-7.8,7.6-16.2,7.9-25.2c0.6-18.4-6.3-33.5-21.3-44.4
			c-12.8-9.4-27.2-12.1-42.5-8.3c-14,3.5-24.7,11.7-32,24.2C69.2,70.5,67,79,66.9,88.1c-0.2,11.1,2.9,21.4,9.4,30.4
			c1.3,1.8,1.3,2.8-0.2,4.3C69,129.8,62,137,54.9,144c-4,3.9-8.1,7.8-11.9,11.5C46.2,158.8,49,161.6,52.3,164.9z"/>
		<path class="st0" d="M157.8,88.3c0.1,22.3-18,39.9-39.4,40.1c-21.3,0.2-39.6-18.2-39.6-39.3c0-22.4,18-39.9,39.3-40.2
			C139.5,48.8,157.8,67.1,157.8,88.3z M143.2,108.3c0-13.7,0-27.2,0-40.7c-4.9,0-9.5,0-14.3,0c0,13.6,0,27.1,0,40.7
			C133.8,108.3,138.4,108.3,143.2,108.3z M106.1,108.3c0-10.1,0-19.9,0-29.8c-4.9,0-9.6,0-14.3,0c0,10,0,19.9,0,29.8
			C96.6,108.3,101.2,108.3,106.1,108.3z M110,88c0,6.8,0,13.5,0,20.3c4.9,0,9.6,0,14.4,0c0-6.8,0-13.5,0-20.3
			C119.5,88,114.8,88,110,88z"/>
	</g>
</g>
</svg>
