<?xml version="1.0" encoding="utf-8"?>
<!-- Generator: Adobe Illustrator 22.0.0, SVG Export Plug-In . SVG Version: 6.00 Build 0)  -->
<svg version="1.1" id="Capa_1" xmlns="http://www.w3.org/2000/svg" xmlns:xlink="http://www.w3.org/1999/xlink" x="0px" y="0px"
	 viewBox="0 0 280.5 235.1" style="enable-background:new 0 0 280.5 235.1;" xml:space="preserve">
<style type="text/css">
	.st0{fill-rule:evenodd;clip-rule:evenodd;fill:#EF7B4F;}
</style>
<g>
	<path class="st0" d="M98,149.2c-1.7,0-3,1.3-3,3.1c0,1.8,1.2,3.1,2.9,3.1c1.8,0,3-1.3,3-3.1C101,150.5,99.8,149.2,98,149.2z"/>
	<path class="st0" d="M116.5,84.1c1.6,0,2.6-1.2,2.6-2.7c0-1.6-1-2.7-2.5-2.7c-1.5,0-2.6,1.1-2.6,2.7C114,83,115,84.1,116.5,84.1z"
		/>
	<path class="st0" d="M123.6,149.2c-1.7,0-3,1.3-3,3.1c0,1.8,1.2,3.1,2.9,3.1c1.8,0,3-1.3,3-3.1
		C126.5,150.5,125.3,149.2,123.6,149.2z"/>
	<path class="st0" d="M108,81.4c0-1.6-1-2.7-2.5-2.7c-1.5,0-2.6,1.1-2.6,2.7c0,1.6,1,2.7,2.5,2.7C107,84.1,108,83,108,81.4z"/>
	<path class="st0" d="M94.3,78.7c-1.5,0-2.6,1.1-2.6,2.7c0,1.6,1,2.7,2.5,2.7c1.6,0,2.6-1.2,2.6-2.7C96.9,79.8,95.9,78.7,94.3,78.7z
		"/>
	<path class="st0" d="M110.8,149.2c-1.7,0-3,1.3-3,3.1c0,1.8,1.2,3.1,2.9,3.1c1.8,0,3-1.3,3-3.1
		C113.7,150.5,112.5,149.2,110.8,149.2z"/>
	<path class="st0" d="M178.7,99.5c-2,0-3.5,1.5-3.5,3.7c0,2.1,1.4,3.7,3.4,3.7c2.2,0,3.5-1.6,3.5-3.7
		C182.1,101,180.7,99.5,178.7,99.5z"/>
	<path class="st0" d="M140.2,17.3C84.9,17.3,40,62.2,40,117.6c0,55.4,44.9,100.3,100.3,100.3S240.5,173,240.5,117.6
		C240.5,62.2,195.6,17.3,140.2,17.3z M79.2,63.6H131v34.3h-18l2.4,10.8l-11.2-10.8H79.2V63.6z M142.2,170.7H78.5v-37.6h37.3L132,118
		l-3.4,15.1h13.6V170.7z M170.4,125.2l-15,18.3l3.2-18.3h-14.9V78.8h69v46.4H170.4z"/>
	<path class="st0" d="M193.6,99.5c-2,0-3.5,1.5-3.5,3.7c0,2.1,1.4,3.7,3.4,3.7c2.2,0,3.5-1.6,3.5-3.7
		C197.1,101,195.7,99.5,193.6,99.5z"/>
	<path class="st0" d="M163.7,99.5c-2,0-3.5,1.5-3.5,3.7c0,2.1,1.4,3.7,3.4,3.7c2.2,0,3.5-1.6,3.5-3.7
		C167.1,101,165.7,99.5,163.7,99.5z"/>
</g>
</svg>
