<?xml version="1.0" encoding="utf-8"?>
<!-- Generator: Adobe Illustrator 22.0.0, SVG Export Plug-In . SVG Version: 6.00 Build 0)  -->
<svg version="1.1" id="Capa_1" xmlns="http://www.w3.org/2000/svg" xmlns:xlink="http://www.w3.org/1999/xlink" x="0px" y="0px"
	 viewBox="0 0 193.3 168.4" style="enable-background:new 0 0 193.3 168.4;" xml:space="preserve">
<style type="text/css">
	.st0{fill:#EF7B4F;}
</style>
<g>
	<rect x="100.4" y="22.5" class="st0" width="15.8" height="11.5"/>
	<path class="st0" d="M96.9,22.5v22c-29.3,0.9-35.1,31.3-35.1,31.3h72.9c0,0-5.9-30.9-35.8-31.3v-22H96.9z"/>
	<path class="st0" d="M38.2,115.4h3.7v37.3h-3.7v3.7h119.5v-3.7h-4.3v-37.3h4.3v-3.7H38.2V115.4z M142.9,115.4h4v37.3h-4V115.4z
		 M132.4,115.4h4v37.3h-4V115.4z M121.9,115.4h4v37.3h-4V115.4z M111.4,115.4h4v37.3h-4V115.4z M100.9,115.4h4v37.3h-4V115.4z
		 M90.4,115.4h4v37.3h-4V115.4z M79.9,115.4h4v37.3h-4V115.4z M69.4,115.4h4v37.3h-4V115.4z M58.9,115.4h4v37.3h-4V115.4z
		 M48.4,115.4h4v37.3h-4V115.4z"/>
	<rect x="61.9" y="78.1" class="st0" width="72.9" height="3"/>
	<polygon class="st0" points="138,108.6 138,87.6 141.7,87.6 141.7,83.9 54.3,83.9 54.3,87.6 58,87.6 58,108.6 64.5,108.6 
		64.5,87.6 68.5,87.6 68.5,108.6 75,108.6 75,87.6 79,87.6 79,108.6 85.5,108.6 85.5,87.6 89.5,87.6 89.5,108.6 96,108.6 96,87.6 
		100,87.6 100,108.6 106.5,108.6 106.5,87.6 110.5,87.6 110.5,108.6 117,108.6 117,87.6 121,87.6 121,108.6 127.5,108.6 127.5,87.6 
		131.5,87.6 131.5,108.6 	"/>
</g>
</svg>
