<?xml version="1.0" encoding="utf-8"?>
<!-- Generator: Adobe Illustrator 22.0.1, SVG Export Plug-In . SVG Version: 6.00 Build 0)  -->
<svg version="1.1" id="Capa_1" xmlns="http://www.w3.org/2000/svg" xmlns:xlink="http://www.w3.org/1999/xlink" x="0px" y="0px"
	 viewBox="0 0 206.3 207.5" style="enable-background:new 0 0 206.3 207.5;" xml:space="preserve">
<style type="text/css">
	.st0{fill:#EF7B4F;}
</style>
<g>
	<path class="st0" d="M103.2,3.8c-55.2,0-100,44.7-100,100c0,55.2,44.7,100,100,100c55.2,0,100-44.8,100-100S158.4,3.8,103.2,3.8z
		 M83.2,35.9H123v7.5H83.2V35.9z M151,145.9c0,3.3,0,6.6,0,10c0,1,0,2,0,3v4.2H55.2v-4.2c0-1,0-2,0-3c0-3.3,0-6.6,0-10
		c0-1.4,0-2.7,0-4.1c0.6-1.8,1-3.6,1.8-5.2c2-3.9,3.9-7.8,6.2-11.5c3.7-5.7,7.8-11.3,11.8-16.8c3.2-4.5,6.4-8.9,9.6-13.3
		c0.5-0.7,0.9-1.5,1.2-2.2V47.8H120v9.4h-14.4v2.5H120V65h-14.4v2.5H120v5.3h-14.4v2.5H120v5.3h-14.4V83H120v9.6
		c0.3,0.9,0.7,1.7,1.3,2.5c3.2,4.4,6.4,8.9,9.6,13.3c4,5.6,8.1,11.1,11.8,16.8c2.4,3.7,4.3,7.6,6.2,11.5c0.8,1.7,1.2,3.5,1.8,5.2
		C151,143.2,151,144.5,151,145.9z"/>
	<path class="st0" d="M135.8,128c-3.1-4.7-6.4-9.2-9.7-13.8h-46c-3.3,4.6-6.6,9.1-9.7,13.8c-2,3-3.5,6.2-5.1,9.4
		c-0.7,1.4-1,2.9-1.5,4.3c0,1.1,0,2.2,0,3.4c0,3.5,0,7.1,0,10.6c26.2,0,52.4,0,78.6,0c0-3.5,0-7.1,0-10.6c0-1.1,0-2.2,0-3.4
		c-0.5-1.4-0.8-2.9-1.5-4.3C139.2,134.3,137.6,131.1,135.8,128z M76.9,146.2c-1.2,0-2.2-1-2.2-2.2s1-2.2,2.2-2.2s2.2,1,2.2,2.2
		S78.1,146.2,76.9,146.2z M88.2,134.3c-2.6,0-4.7-2.1-4.7-4.7c0-2.6,2.1-4.7,4.7-4.7s4.7,2.1,4.7,4.7
		C92.8,132.2,90.8,134.3,88.2,134.3z M103.8,146.9c-4.1,0-7.5-3.4-7.5-7.5s3.4-7.5,7.5-7.5s7.5,3.4,7.5,7.5
		C111.3,143.5,108,146.9,103.8,146.9z M116.3,125.7c-1.7,0-3.1-1.4-3.1-3.1c0-1.7,1.4-3.1,3.1-3.1c1.7,0,3.1,1.4,3.1,3.1
		S118.1,125.7,116.3,125.7z M128.5,148.9c-3,0-5.4-2.4-5.4-5.4s2.4-5.4,5.4-5.4c3,0,5.4,2.4,5.4,5.4
		C133.9,146.5,131.5,148.9,128.5,148.9z"/>
</g>
</svg>
