<?xml version="1.0" encoding="utf-8"?>
<!-- Generator: Adobe Illustrator 22.0.0, SVG Export Plug-In . SVG Version: 6.00 Build 0)  -->
<svg version="1.1" id="Capa_1" xmlns="http://www.w3.org/2000/svg" xmlns:xlink="http://www.w3.org/1999/xlink" x="0px" y="0px"
	 viewBox="0 0 231.9 217.6" style="enable-background:new 0 0 231.9 217.6;" xml:space="preserve">
<style type="text/css">
	.st0{fill-rule:evenodd;clip-rule:evenodd;fill:#EF7B4F;}
	.st1{fill-rule:evenodd;clip-rule:evenodd;fill:#FFFFFF;}
</style>
<g>
	<path class="st0" d="M122.3,102c-19.6,0-35.2,15.5-35.2,35.2c0,19.4,15.7,35.1,35.1,35.1c19.4,0,35.1-15.7,35.1-35.2
		C157.2,117.6,141.7,102,122.3,102z"/>
	<path class="st0" d="M170.2,79c-3.1,0-6.3,0-9.4,0h-3.9c-3.2,0-6.5,0-9.7,0c-0.3,0-0.5,0-0.8,0H145v-6.6c-2.3,0-4.2,0-6.2,0
		c-2,0-3.9,0-6,0c1.8-7.8,0.5-12.4-4.2-15.6c-3.8-2.6-9.3-2.8-13.1-0.3c-5.7,3.8-6.6,9.3-4.6,15.8c-3.8,0-7.5,0-11.3,0v6.7H97
		c-0.2,0-0.4,0-0.7,0c-3.6,0-7.2,0-10.7,0H84c-3.5,0-7,0-10.5,0c-0.8,0-1.5,0-2.5,0c0,1.1,0,1.9,0,2.6c0,37.4,0,74.9,0,112.3
		c0,2.1,0.5,2.7,2.6,2.7c32.2-0.1,64.5,0,96.7,0c0.7,0,1.4,0,2.4,0c0-39.3,0-78.3,0-117.6C171.8,79,171,79,170.2,79z M165.7,93.7v88
		v7.5h-2.5c-0.1,0-0.3,0-0.4,0c-9,0-18.1,0-27.1,0H86.1h-7.5v-7.5v-88v-7.5h7.5h13.3v5.2c15.2,0,30.3,0,45.6,0v-5.2h13.3h7.5V93.7z"
		/>
</g>
<polygon class="st1" points="117.1,144.1 107,134 100.6,140.3 110.8,150.4 117.1,156.7 123.4,150.4 143.9,130 137.6,123.6 "/>
</svg>
