<?xml version="1.0" encoding="utf-8"?>
<!-- Generator: Adobe Illustrator 22.0.1, SVG Export Plug-In . SVG Version: 6.00 Build 0)  -->
<svg version="1.1" id="Capa_1" xmlns="http://www.w3.org/2000/svg" xmlns:xlink="http://www.w3.org/1999/xlink" x="0px" y="0px"
	 viewBox="0 0 206.5 208.7" style="enable-background:new 0 0 206.5 208.7;" xml:space="preserve">
<style type="text/css">
	.st0{fill:#EF7B4F;}
</style>
<g>
	<path class="st0" d="M61,135.9c-1.7,0-3,1.3-3,3.1s1.2,3.1,2.9,3.1c1.8,0,3-1.3,3-3.1C64,137.2,62.8,135.9,61,135.9z"/>
	<path class="st0" d="M79.5,70.9c1.6,0,2.6-1.2,2.6-2.7c0-1.6-1-2.7-2.5-2.7S77,66.6,77,68.2C77,69.8,78,70.9,79.5,70.9z"/>
	<path class="st0" d="M86.6,135.9c-1.7,0-3,1.3-3,3.1s1.2,3.1,2.9,3.1c1.8,0,3-1.3,3-3.1S88.3,135.9,86.6,135.9z"/>
	<path class="st0" d="M71,68.2c0-1.6-1-2.7-2.5-2.7s-2.6,1.1-2.6,2.7c0,1.6,1,2.7,2.5,2.7C70,70.9,71,69.8,71,68.2z"/>
	<path class="st0" d="M57.3,65.4c-1.5,0-2.6,1.1-2.6,2.7c0,1.6,1,2.7,2.5,2.7c1.6,0,2.6-1.2,2.6-2.7C59.9,66.6,58.9,65.4,57.3,65.4z
		"/>
	<path class="st0" d="M73.8,135.9c-1.7,0-3,1.3-3,3.1s1.2,3.1,2.9,3.1c1.8,0,3-1.3,3-3.1C76.7,137.2,75.5,135.9,73.8,135.9z"/>
	<path class="st0" d="M141.7,86.2c-2,0-3.5,1.5-3.5,3.7c0,2.1,1.4,3.7,3.4,3.7c2.2,0,3.5-1.6,3.5-3.7
		C145.1,87.8,143.7,86.2,141.7,86.2z"/>
	<path class="st0" d="M103.2,4.1C47.9,4.1,3,49,3,104.4s44.9,100.3,100.3,100.3s100.2-44.9,100.2-100.3S158.6,4.1,103.2,4.1z
		 M42.2,50.4H94v34.3H76l2.4,10.8L67.2,84.6h-25V50.4z M105.2,157.4H41.5v-37.6h37.3L95,104.8l-3.4,15.1h13.6L105.2,157.4
		L105.2,157.4z M133.4,111.9l-15,18.3l3.2-18.3h-14.9V65.6h69V112C175.7,112,133.4,112,133.4,111.9z"/>
	<path class="st0" d="M156.6,86.2c-2,0-3.5,1.5-3.5,3.7c0,2.1,1.4,3.7,3.4,3.7c2.2,0,3.5-1.6,3.5-3.7
		C160.1,87.8,158.7,86.2,156.6,86.2z"/>
	<path class="st0" d="M126.7,86.2c-2,0-3.5,1.5-3.5,3.7c0,2.1,1.4,3.7,3.4,3.7c2.2,0,3.5-1.6,3.5-3.7
		C130.1,87.8,128.7,86.2,126.7,86.2z"/>
</g>
</svg>
