<?xml version="1.0" encoding="utf-8"?>
<!-- Generator: Adobe Illustrator 22.0.1, SVG Export Plug-In . SVG Version: 6.00 Build 0)  -->
<svg version="1.1" id="Capa_1" xmlns="http://www.w3.org/2000/svg" xmlns:xlink="http://www.w3.org/1999/xlink" x="0px" y="0px"
	 viewBox="0 0 129.1 141.9" style="enable-background:new 0 0 129.1 141.9;" xml:space="preserve">
<style type="text/css">
	.st0{fill:#EF7B4F;}
</style>
<g>
	<rect x="67" y="4" class="st0" width="15.8" height="11.5"/>
	<path class="st0" d="M63.5,4v22c-29.3,0.9-35.1,31.3-35.1,31.3h72.9c0,0-5.9-30.9-35.8-31.3V4C65.5,4,63.5,4,63.5,4z"/>
	<path class="st0" d="M4.8,96.9h3.7v37.3H4.8v3.7h119.5v-3.7H120V96.9h4.3v-3.7H4.8V96.9z M109.5,96.9h4v37.3h-4V96.9z M99,96.9h4
		v37.3h-4V96.9z M88.5,96.9h4v37.3h-4V96.9z M78,96.9h4v37.3h-4V96.9z M67.5,96.9h4v37.3h-4V96.9z M57,96.9h4v37.3h-4V96.9z
		 M46.5,96.9h4v37.3h-4V96.9z M36,96.9h4v37.3h-4V96.9z M25.5,96.9h4v37.3h-4V96.9z M15,96.9h4v37.3h-4V96.9z"/>
	<rect x="28.5" y="59.6" class="st0" width="72.9" height="3"/>
	<polygon class="st0" points="104.6,90.1 104.6,69.1 108.3,69.1 108.3,65.4 20.9,65.4 20.9,69.1 24.6,69.1 24.6,90.1 31.1,90.1 
		31.1,69.1 35.1,69.1 35.1,90.1 41.6,90.1 41.6,69.1 45.6,69.1 45.6,90.1 52.1,90.1 52.1,69.1 56.1,69.1 56.1,90.1 62.6,90.1 
		62.6,69.1 66.6,69.1 66.6,90.1 73.1,90.1 73.1,69.1 77.1,69.1 77.1,90.1 83.6,90.1 83.6,69.1 87.6,69.1 87.6,90.1 94.1,90.1 
		94.1,69.1 98.1,69.1 98.1,90.1 	"/>
</g>
</svg>
