<?xml version="1.0" encoding="utf-8"?>
<!-- Generator: Adobe Illustrator 22.0.0, SVG Export Plug-In . SVG Version: 6.00 Build 0)  -->
<svg version="1.1" id="Capa_1" xmlns="http://www.w3.org/2000/svg" xmlns:xlink="http://www.w3.org/1999/xlink" x="0px" y="0px"
	 viewBox="0 0 193.3 168.4" style="enable-background:new 0 0 193.3 168.4;" xml:space="preserve">
<style type="text/css">
	.st0{fill:none;}
	.st1{fill-rule:evenodd;clip-rule:evenodd;fill:#EF7B4F;}
	.st2{fill:#EF7B4F;}
</style>
<g>
	<path class="st0" d="M198.5,90.1c0,55.2-44.8,100-100,100c-55.2,0-100-44.8-100-100c0-55.2,44.8-100,100-100
		C153.8-9.8,198.5,34.9,198.5,90.1z"/>
	<path class="st1" d="M42,35c8.1,2.7,16.2,5.5,24.3,8.2c0.6,0.2,1.2,0.4,2,0.7c-5.9,5.9-11.6,11.6-17.6,17.6
		c-0.3-0.7-0.5-1.3-0.6-1.8c-2.3-7.1-4.7-14.1-7-21.2c-0.3-1-0.9-2-1.4-3.1C41.7,35.2,41.9,35.1,42,35z"/>
	<path class="st1" d="M54,64.9c6-6,11.9-11.9,17.8-17.8c24.4,24.4,48.8,48.8,73.2,73.2c-0.9,0.9-1.7,1.7-2.5,2.5
		c-23-23-46.1-46.1-69.2-69.2c-0.8,0.8-1.6,1.6-2.5,2.5c23,23,46,46,69.3,69.3c-4.3,4.3-8.5,8.5-12.8,12.8
		C103,113.9,78.5,89.5,54,64.9z"/>
	<path class="st1" d="M130.8,141.9c6-6,11.9-11.9,17.9-17.9c3.7,3.9,8.2,7.1,10.3,12c1.3,3,0.4,5.2-1.1,6.9c-2.7,3-5.4,5.9-8.5,8.4
		c-3.3,2.7-6.7,2.3-11.6-2.3C135.6,146.8,133.3,144.4,130.8,141.9z"/>
	<path class="st2" d="M157.4,46c0,0-9.3,10.1-10,11.1c-2.3,3.2-4.3,1.6-4.3,1.6s-9.2-6.6-10.5-7.8c-2.1-2,0.3-5,0.3-5l10.9-12.1
		c1.9-2.5,2.2-2.6-8.6,1.4c-13.5,5-11.9,13.1-12.1,15.6c-0.9,8.8-3.2,11.2-3.2,11.2l-14.5,14.5l0,0L82.4,99.2l-0.1,0.1l-8.7,8.7
		c0,0-5.7,6.1-14.9,6.1c-8.3,0-8.6,2.2-10.4,5c-4.3,6.5-5.5,14.2-6.8,19.4c-0.8,3.4,0.4,1.8,0.4,1.8s9.3-10.1,10-11.1
		c2.3-3.2,4.3-1.6,4.3-1.6s9.2,6.6,10.5,7.8c2,2-0.3,5-0.3,5l-10.9,12.1c-1.9,2.5-2.2,2.6,8.6-1.4c13.5-5,11.9-13.1,12.1-15.6
		c0.9-8.8,3.2-11.2,3.2-11.2l14.5-14.5l0,0l31.6-31.5c0,0,5.7-6.1,14.9-6.1c8.3,0,8.6-2.2,10.4-5c4.3-6.5,5.5-14.2,6.8-19.4
		C158.6,44.4,157.4,46,157.4,46z M124.8,72.5C124.7,73,79.2,118,79.2,118s-5.8,1.8-4.4-4.4l45.5-45.5
		C120.4,68.1,126.2,66.8,124.8,72.5z"/>
</g>
</svg>
