<?xml version="1.0" encoding="utf-8"?>
<!-- Generator: Adobe Illustrator 22.0.0, SVG Export Plug-In . SVG Version: 6.00 Build 0)  -->
<svg version="1.1" id="Capa_1" xmlns="http://www.w3.org/2000/svg" xmlns:xlink="http://www.w3.org/1999/xlink" x="0px" y="0px"
	 viewBox="0 0 280.5 235.1" style="enable-background:new 0 0 280.5 235.1;" xml:space="preserve">
<style type="text/css">
	.st0{fill:#EF7B4F;}
</style>
<path class="st0" d="M140.2,17.6c-55.2,0-100,44.8-100,100c0,55.2,44.8,100,100,100c55.2,0,100-44.8,100-100
	C240.3,62.3,195.5,17.6,140.2,17.6z M115.8,168.3c-15.2,0-30.4,0-45.7,0c-0.1-0.4-0.2-0.7-0.2-1.1c-0.2-3.6-0.4-7.3-0.6-10.9
	c-0.2-4,1.3-7.1,4.8-9.1c2.5-1.4,4.9-2.8,7.7-4.1c-1.2,3.1-2.4,6.1-3.7,9.4c1.4-0.2,2.5-0.2,3.6-0.5c1.1-0.3,1.8,0,2.4,1
	c2.5,3.7,5,7.4,7.5,11.1c0.3,0.4,0.8,1.2,1.3,1.7c-1.9-6.4-4-13.4-5.8-19.8c-0.6-2.2-0.8-4.6-1.3-7c-3.8-0.3-7.9-0.5-11.2-3.6
	c3.8-2.2,4.2-5.9,4.5-9.6c0.3-3.6,0.2-7.3,0.7-10.9c0.6-4.8,6.2-9.5,13-9c1,0.1,2.4,0.5,3.2,1c1.5,1,2.9,0.2,4.6,0.8
	c2.3,0.8,4,2,5,4.3c1.6,3.9,1.7,6.9,1.5,11c-0.1,1.1-0.2,2.1-0.2,3.2c0,3.6,0.9,6.9,4.3,9c-1.5,1.5-3.4,2.3-5.3,2.7
	c-1.9,0.4-3.9,0.6-5.8,0.9c-0.6,8.6-4.5,16.2-6.5,24.4c-0.1,0.6-0.5,1.7-0.6,2.4c1.1-1.7,2.7-4,3.8-5.6c1.7-2.4,3.4-4.8,4.9-7.3
	c0.6-0.9,1.2-1.1,2.2-0.9c1.1,0.2,2.3,0.4,3.7,0.6c-1.3-3.3-2.5-6.3-3.7-9.4c0.1-0.1,6.9,3.6,10,5.9c2.1,1.5,2.5,4.1,2.5,6.5
	C116.3,159.8,116,163.9,115.8,168.3z M123.3,147.6l-2.8-2.8l14.3-14.3l2.8,2.8L123.3,147.6z M142,126.4h-3.9v-20.2h3.9V126.4z
	 M157,147.6l-14.3-14.3l2.8-2.8l14.3,14.3L157,147.6z M163.1,100.9c-15.2,0-30.4,0-45.7,0c-0.1-0.4-0.2-0.7-0.2-1.1
	c-0.2-3.6-0.4-7.3-0.6-10.9c-0.2-4,1.3-7.1,4.8-9.1c2.5-1.4,4.9-2.8,7.7-4.1c-1.2,3.1-2.4,6.1-3.7,9.4c1.4-0.2,2.5-0.2,3.6-0.5
	c1.1-0.3,1.8,0,2.4,1c2.5,3.7,5,7.4,7.5,11.1c0.3,0.4,0.8,1.2,1.3,1.7c-1.9-6.4-4-13.4-5.8-19.8c-0.6-2.2-0.8-4.6-1.3-7
	c-0.8-0.4-1.5-1-2.2-1.8c-0.3,2.1-1.6,2.9-1.8,3c0.2-0.1,1.2-0.9-0.7-5.5c0,5.7-2.9,6.8-3,6.9c0.1,0,1.4-0.7-0.3-10.1
	c-1.9-10.5,1.1-16.8,3.4-20c2.1-3.4,6.6-5.9,11.7-5.5c0.9,0.1,2.4,0.5,3.2,1c1.5,1,2.9,0.2,4.6,0.8c1.6,0.6,2.9,1.3,3.8,2.5v0
	c0,0,6.7,8,4.2,21.5c-1.6,8.5-0.4,9.5-0.2,9.6c-0.3-0.1-2.6-1.6-2.1-8.2c0,0,0,0,0,0c-2.3,5.9-1.2,6.8-1,6.9
	c-0.2-0.1-2.1-1.2-1.8-4.7c-1,1.6-2.3,2.9-3.5,3.5c-0.6,8.6-4.5,16.2-6.5,24.4c-0.1,0.6-0.5,1.7-0.6,2.4c1.1-1.7,2.7-4,3.8-5.6
	c1.7-2.4,3.4-4.8,4.9-7.2c0.6-0.9,1.2-1.1,2.2-0.9c1.1,0.2,2.3,0.4,3.7,0.6c-1.3-3.3-2.5-6.3-3.7-9.4c0.1-0.1,6.9,3.6,10,5.9
	c2.1,1.5,2.5,4.1,2.5,6.5C163.7,92.4,163.4,96.6,163.1,100.9z M210.2,168.3c-15.2,0-30.4,0-45.6,0c-0.1-0.4-0.2-0.7-0.2-1.1
	c-0.2-3.6-0.4-7.3-0.6-10.9c-0.2-4,1.3-7.1,4.8-9.1c2.5-1.4,4.9-2.8,7.7-4.1c-1.2,3.1-2.4,6.1-3.7,9.4c1.4-0.2,2.5-0.2,3.6-0.5
	c1.1-0.3,1.8,0,2.4,1c2.5,3.7,5,7.4,7.5,11.1c0.3,0.4,0.8,1.2,1.3,1.7c-1.9-6.4-4-13.4-5.8-19.8c-0.6-2.2-0.8-4.6-1.3-7
	c-3.4-0.3-6.2-7.4-6.6-11.7c-1,0.3-2.3,1.1-2.3,1.1c-2-9.3,4.8-17.8,4.8-17.8c2.3-3,6.4-5.1,11.1-4.7c1,0.1,2.4,0.5,3.2,1
	c1.5,1,2.9,0.2,4.6,0.8c1.9,0.7,3.3,1.6,4.4,3.2l0,0c0,0,6.3,8.7,3.9,17.8c0,0-1.2-0.8-2.1-1.2c-0.8,4.1-5,11.2-6.7,11.4
	c-0.6,8.6-4.5,16.2-6.5,24.4c-0.1,0.6-0.5,1.7-0.6,2.4c1.1-1.7,2.7-4,3.8-5.6c1.7-2.4,3.4-4.8,4.9-7.3c0.6-0.9,1.2-1.1,2.2-0.9
	c1.1,0.2,2.3,0.4,3.7,0.6c-1.3-3.3-2.5-6.3-3.7-9.4c0.1-0.1,6.9,3.6,10,5.9c2.1,1.5,2.5,4.1,2.5,6.5
	C210.8,159.8,210.5,163.9,210.2,168.3z"/>
</svg>
