<?xml version="1.0" encoding="utf-8"?>
<!-- Generator: Adobe Illustrator 22.0.0, SVG Export Plug-In . SVG Version: 6.00 Build 0)  -->
<svg version="1.1" id="Capa_1" xmlns="http://www.w3.org/2000/svg" xmlns:xlink="http://www.w3.org/1999/xlink" x="0px" y="0px"
	 viewBox="0 0 231.9 217.6" style="enable-background:new 0 0 231.9 217.6;" xml:space="preserve">
<style type="text/css">
	.st0{fill-rule:evenodd;clip-rule:evenodd;fill:#EF7B4F;}
	.st1{fill-rule:evenodd;clip-rule:evenodd;fill:#FFFFFF;}
</style>
<g>
	<path class="st0" d="M57.4,120.3c0.5-3.1,0.8-6.1,1.4-9.2c1.9-9.5,5.9-18.1,11.8-25.8c0.2-0.3,0.5-0.6,1-1.2
		c1.3,1.3,2.7,2.4,3.8,3.7c1,1.2,2,2.5,2.6,3.9c0.5,1.3,0.5,2.8,0.6,4.2c0.1,2-0.1,4.1,0.2,6c0.4,2.5,2,4.5,4.1,6
		c1,0.7,1.9,1.8,2.7,2.9c2,2.7,4,5.5,6,8.3c0.2-0.1,0.4-0.3,0.6-0.4c-1.5-2.3-2.9-4.5-4.4-6.8c0.2-0.2,0.3-0.3,0.5-0.5
		c0.6,0.5,1.4,0.8,1.9,1.4c1.9,2.6,3.6,5.3,5.5,7.9c0.8,1.1,1.8,2.1,2.8,2.8c1.2,0.9,2.6,1.6,4,2.1c1,0.4,2.2,0.6,3.3,0.5
		c1.3-0.2,2.1,0.2,3.1,0.9c0.9,0.7,2.2,1,3.2,1.6c0.9,0.5,1.9,1,2.6,1.7c1.7,2,3.4,3.8,6.4,3.1c1.1-0.2,2.1,0.9,1.9,2.3
		c-0.2,1-0.6,2-1.2,2.7c-1.1,1.4-1.7,2.9-1.6,4.7c0,0.5-0.2,1-0.3,1.5c0,0.6-0.2,1.4,0.1,1.8c2.2,3.5,4.1,7.4,7.9,9.6
		c1.9,1.1,2.5,2.9,2.2,4.9c-0.9,5.3-0.6,10.8-2.8,16c-0.4,0.9-0.4,2.1-0.1,3c0.8,3-0.7,5.2-2.4,7.3c-2.4,0-4.8,0-7.1,0
		c-1.6-0.2-3.1-0.5-4.7-0.7c-26.9-3.4-49-23.9-54.2-50.5c-0.6-2.9-0.9-5.9-1.4-8.8C57.4,125,57.4,122.6,57.4,120.3z"/>
	<path class="st0" d="M133,185.9c1.4-2.5,2.1-5.3,4.5-7.1c0.2-0.2,0.5-0.2,0.8-0.2c3.3-0.6,3.9-1.2,4.5-4.4c2.2,0.5,3.3-1.1,4.4-2.6
		c1.5-2,3.4-3.7,4.3-6.3c0.3-0.8,1.7-1.5,2.7-1.8c3.4-1.2,5.2-3.5,5.2-7c0-1.8,0.5-3.3,2-4.5c0.3-0.3,0.6-0.5,0.9-0.8
		c2.7-2.9,2.2-5.3-1.5-6.6c-1.3-0.4-2.6-0.6-3.9-1c-1-0.3-2.1-0.5-3.1-0.9c-1.2-0.6-2.2-1.2-3.2,0.3c0,0-0.3-0.1-0.6-0.1
		c0.3-0.4,0.5-0.7,0.9-1.2c-1,0.1-1.7,0.1-2.5,0.2c0-0.2,0-0.3,0-0.4c1.3-2.7,0.5-4.8-2.5-5.5c-2.5-0.6-4.4-1.8-6.5-3
		c-1.2-0.7-2.8-0.8-4.3-1.2c-0.4-0.1-0.9-0.1-1.3-0.3c-1.3-0.8-2.5-1.4-3.9-0.3c-0.1,0.1-0.2,0.1-0.3,0.1c-2.1-0.9-3.6,0-4.9,1.5
		c-0.2,0.2-0.6,0.2-1,0.2c-1.2,0-2.4-0.1-3.5-0.1c-1.9,0-2.9-1.3-2.6-3.3c0.4-2.4,0-2.8-2.4-2.8c-2,0-2.5-0.7-1.5-2.5
		c0.2-0.3,0.4-0.6,0.5-0.9c0.1-0.7,0.1-1.3,0.1-2c-0.8,0.1-1.6,0.1-2.3,0.3c-0.3,0.1-0.6,0.5-0.8,0.8c-1.5,1.7-3.2,2.1-5,1.2
		c-1.7-0.9-2.7-3.1-2.3-5c0.7-2.7,2.3-4.5,5.1-5c1.7-0.3,3.4-0.7,5.2-0.9c1.9-0.2,3.3,0.5,4.2,2.3c0.4,0.8,1.1,1.5,1.6,2.3
		c1.5-1,1-2.2,0.7-3.1c-1.1-2.5,0.1-3.9,2-5.1c1.2-0.8,2.8-1.4,1.9-3.4c0-0.1,0-0.3,0.1-0.5c0.8-1,1.6-2.1,2.6-2.9
		c1.8-1.6,3.8-3.2,5.7-4.7c0.6-0.5,1.4-0.7,2.2-1c0.1,0.1,0.1,0.2,0.2,0.4c-0.7,0.5-1.3,0.9-2,1.4c0.1,0.2,0.2,0.4,0.2,0.6
		c1.1-0.3,2.4-0.3,3.3-0.9c2.8-2,5.7-3.7,9.5-2.5c0.1-0.2,0.1-0.3,0.2-0.5c-0.9-1.3-1.7-2.6-2.7-3.7c-0.2-0.2-1.4,0.1-1.8,0.5
		c-0.6,0.6-0.7,1.6-1.2,2.2c-0.8,0.8-1.7,1.6-2.8,2c-1.8,0.6-2.3,0-2.1-1.9c0.1-1.3-0.6-1.5-1.6-1.1c-1.2,0.5-2.3,1.1-3.5,1.6
		c-0.1-0.1-0.2-0.3-0.4-0.4c0.7-0.6,1.3-1.5,2.1-1.7c1.2-0.3,2.6-0.4,3.9-0.3c2.2,0.1,4.1-0.4,6-1.5c1.2-0.7,1.3-1.5,0.4-2.4
		c-0.5-0.5-0.9-1-1.5-1.4c-1.9-1.3-3.2-3-4-5.1c-0.3-0.7-1-1.5-1.7-1.6c-0.5-0.1-1.3,0.7-1.7,1.3c-0.6,0.9-1.2,0.9-2,0.3
		c-0.4-0.3-0.9-0.7-1.2-1.2c-1.4-2.5-3.9-2.8-6.2-3.1c-1.7-0.3-2.4,0.5-2,2.2c0.3,1.3,0.7,2.6,1.1,3.9c0.4,1.1,0.1,1.8-0.8,2.5
		c-1.9,1.4-1.9,1.4-0.6,3.9c-0.8,0.1-1.6,0.5-2.2,0.3c-0.4-0.1-0.9-1-0.9-1.5c0-1.2-0.6-1.8-1.6-2.1c-2.1-0.8-4.3-1.5-6.4-2.3
		c-0.9-0.3-1.8-0.7-2.6-1.2c-2.2-1.3-2.4-3-0.6-4.7c1-0.9,2.1-1.8,3.3-2.4c1.3-0.7,2.5-1.3,2.9-2.8c0.1-0.4,1.2-0.7,1.8-0.7
		c2.5-0.1,3-0.5,3.5-2.9c0.4-2.2,1.7-3,3.8-1.9c1.4,0.7,2.7,1.7,3.9,2.7c0.3,0.3,0.3,1.5,0,1.8c-0.9,1-2,1.7-2.7,2.2
		c3,1.2,6.2,2.5,9.4,3.8c0.1-0.2,0.2-0.4,0.3-0.6c-0.6-0.4-1.1-0.8-1.7-1.2c0-0.1,0.1-0.2,0.1-0.3c0.5,0.2,1.1,0.4,1.6,0.5
		c0.4,0,0.9-0.2,1.3-0.4c-0.2-0.5-0.2-1.1-0.6-1.4c-0.5-0.4-1.2-0.6-1.7-1c-0.2-0.2-0.1-0.8-0.2-1.2c0.3,0.1,0.8,0.2,1,0.4
		c1.5,1.7,2.4,1.6,3.6-0.6c-1.6-1.2-4.1-1.3-5.1-3.2c0.1-0.1,0.2-0.3,0.3-0.4c2.6,1.6,5.2,3.3,7.7,5c0.3,0.2,0.1,1,0.1,1.5
		c1.3,0.4,3.3-0.8,4.1,1.6c-1.1-0.2-2.1-0.3-3-0.4c0,0.2,0,0.3-0.1,0.5c0.8,0.2,1.6,0.4,2.4,0.7c0.4,0.2,1,0.7,1,1.1
		c0,0.4-0.6,0.9-1,1.1c-0.7,0.4-1.5,0.7-2.1,1c0.3,0.8,0.5,1.5,0.9,2.1c1.6,2.7,2.9,5.6,5.9,7.2c1.5,0.8,2.9,0.3,3.9-1.4
		c0.7-1.2,1.2-2.4,1.8-3.6c0.7-1.4,1.7-2,3.4-2.2c1.1-0.1,2.2-0.7,3.2-1.2c0.8-0.4,1.4-1,2.2-1.3c2.6-1.1,3.6-0.8,5.5,1.3
		c5.3,5.9,9.4,12.5,12.2,19.8c0.3,0.8,0.4,1.4-0.2,2.3c-2.1,3.2-1.3,7.1,2.7,8.4c0.9,0.3,1.3,2.3,0.6,3.2c-1.4,1.9-2.8,3.8-4.5,5.6
		c-1.8,1.9-4.1,4.4-3,7.7c0.2,0.6,0.2,1.3,0,1.8c-0.8,2.9,0.6,5,2.6,6.9c0.5,0.5,1,1.1,1.6,1.5c2.2,1.1,2,2.8,1.3,4.8
		c-8.1,22.6-23.8,36.9-47.2,42.6c-0.4,0.1-0.8,0.1-1.2,0.2C133.4,186.1,133.3,186,133,185.9z"/>
	<path class="st0" d="M105.7,68.3c-1-0.2-2-0.5-3-0.7c0.2,1,0.7,1.9,0.5,2.1c-0.4,0.4-1.2,0.6-1.8,0.5c-1.9-0.1-3.8-0.4-5.7-0.5
		c-0.6,0-1.2,0.4-2.2,0.8c-0.3-0.2-0.9-0.6-1.7-1c1-1.2,2.2-1.1,3.5-1c1.1,0.1,2.3,0.4,3.4,0.2c0.8-0.1,1.5-0.8,2.7-1.4
		c-1.7-0.7-2.8-1.2-3.9-1.7c0-0.2,0-0.5,0-0.7c2.7-0.9,5.5-1.8,8.2-2.8c0.5,2.6,1.1,2.8,3.2,1.5c0.8-0.6,1.8-1,3.1-1.7
		c-0.9,1.8-1.6,3.1-2.4,4.4c-2.3-2-2.9-1.9-4.3,0.1c2.6,2.4,2.7,3.1,0.3,4.2C105.6,69.9,105.6,69.3,105.7,68.3z"/>
	<path class="st1" d="M75.5,133.7c-0.1-0.1-0.2-0.2-0.2-0.4c-1.3-2.1-2.6-4.3-3.8-6.5c-0.6-1.1-1.1-2.2-1.5-3.4
		c-0.2-0.5-0.3-1-0.4-1.5c-0.1-0.9,0-1.8,0.3-2.6c0.4-1.3,1.1-2.3,2.2-3c1.1-0.7,2.4-1,3.7-1c1,0,1.9,0.3,2.8,0.8
		c1.3,0.8,2.1,1.9,2.5,3.3c0.2,0.7,0.3,1.5,0.3,2.3c0,0.5-0.1,0.9-0.3,1.3c-0.3,1.1-0.8,2.1-1.3,3.1c-1,2-2.1,3.9-3.2,5.7
		c-0.4,0.6-0.7,1.2-1.1,1.7C75.6,133.7,75.6,133.7,75.5,133.7z M75.5,123.5c1.1,0,2.1-0.9,2-2.1c0-1.1-0.9-2-2.1-2
		c-1.1,0-2,0.9-2,2.1C73.5,122.6,74.4,123.5,75.5,123.5z"/>
	<path class="st1" d="M72.9,130.3c-0.2,0-0.4,0-0.6,0.1c-0.9,0.1-1.9,0.4-2.7,0.8c-0.4,0.2-0.7,0.4-1,0.7c-0.4,0.5-0.5,1-0.1,1.6
		c0.3,0.4,0.7,0.7,1.1,0.9c0.7,0.4,1.5,0.6,2.2,0.8c1.7,0.4,3.4,0.5,5.1,0.4c0.9-0.1,1.8-0.2,2.7-0.5c0.8-0.2,1.5-0.5,2.2-1
		c0.3-0.2,0.5-0.4,0.7-0.6c0.4-0.6,0.4-1.2-0.1-1.7c-0.3-0.4-0.8-0.6-1.2-0.8c-0.8-0.3-1.5-0.5-2.4-0.6c-0.2,0-0.5-0.1-0.7-0.1
		c0.1-0.1,0.2-0.2,0.3-0.3c0,0,0.1,0,0.1,0c1.3,0.1,2.7,0.4,3.9,0.9c0.4,0.2,0.8,0.4,1.1,0.7c1,0.9,1.1,2.1,0.4,3.1
		c-0.4,0.5-0.9,0.9-1.4,1.2c-0.8,0.5-1.7,0.8-2.6,1c-1.8,0.5-3.7,0.6-5.5,0.5c-1.3-0.1-2.5-0.3-3.8-0.6c-0.9-0.3-1.8-0.7-2.6-1.2
		c-0.4-0.3-0.7-0.6-1-1.1c-0.6-1-0.4-2.1,0.5-2.9c0.5-0.4,1.1-0.7,1.7-1c0.9-0.3,1.8-0.5,2.8-0.6c0.2,0,0.4,0,0.5-0.1
		c0,0,0.1,0,0.1,0C72.7,130.1,72.8,130.2,72.9,130.3z"/>
	<path class="st1" d="M162.1,105.2c-0.1-0.1-0.2-0.2-0.2-0.4c-1.3-2.1-2.6-4.3-3.8-6.5c-0.6-1.1-1.1-2.2-1.5-3.4
		c-0.2-0.5-0.3-1-0.4-1.5c-0.1-0.9,0-1.8,0.3-2.6c0.4-1.3,1.1-2.3,2.2-3c1.1-0.7,2.4-1,3.7-1c1,0,1.9,0.3,2.8,0.8
		c1.3,0.8,2.1,1.9,2.5,3.3c0.2,0.7,0.3,1.5,0.3,2.3c0,0.5-0.1,0.9-0.3,1.3c-0.3,1.1-0.8,2.1-1.3,3.1c-1,2-2.1,3.9-3.2,5.7
		c-0.4,0.6-0.7,1.2-1.1,1.7C162.2,105.1,162.2,105.2,162.1,105.2z M162.2,95c1.1,0,2.1-0.9,2-2.1c0-1.1-0.9-2-2.1-2
		c-1.1,0-2,0.9-2,2.1C160.1,94,161,95,162.2,95z"/>
	<path class="st1" d="M159.5,101.8c-0.2,0-0.4,0.1-0.6,0.1c-0.9,0.1-1.9,0.4-2.7,0.8c-0.4,0.2-0.7,0.4-1,0.7c-0.4,0.5-0.5,1-0.1,1.6
		c0.3,0.4,0.7,0.7,1.1,0.9c0.7,0.4,1.5,0.6,2.2,0.8c1.7,0.4,3.4,0.5,5.1,0.4c0.9-0.1,1.8-0.2,2.7-0.5c0.8-0.2,1.5-0.5,2.2-1
		c0.3-0.2,0.5-0.4,0.7-0.6c0.4-0.6,0.4-1.2-0.1-1.7c-0.3-0.4-0.8-0.6-1.2-0.8c-0.8-0.3-1.5-0.5-2.4-0.6c-0.2,0-0.5-0.1-0.7-0.1
		c0.1-0.1,0.2-0.2,0.3-0.3c0,0,0.1,0,0.1,0c1.3,0.1,2.7,0.4,3.9,0.9c0.4,0.2,0.8,0.4,1.1,0.7c1,0.9,1.1,2.1,0.4,3.1
		c-0.4,0.5-0.9,0.9-1.4,1.2c-0.8,0.5-1.7,0.8-2.6,1c-1.8,0.5-3.7,0.6-5.5,0.5c-1.3-0.1-2.5-0.3-3.8-0.6c-0.9-0.3-1.8-0.7-2.6-1.2
		c-0.4-0.3-0.7-0.6-1-1.1c-0.6-1-0.4-2.1,0.5-2.9c0.5-0.4,1.1-0.7,1.7-1c0.9-0.3,1.8-0.5,2.8-0.6c0.2,0,0.4,0,0.5-0.1
		c0,0,0.1,0,0.1,0C159.3,101.6,159.4,101.7,159.5,101.8z"/>
	<path class="st1" d="M111.8,171.2c-0.1-0.1-0.2-0.3-0.2-0.4c-1.3-2.1-2.6-4.3-3.8-6.5c-0.6-1.1-1.1-2.2-1.5-3.4
		c-0.2-0.5-0.3-1-0.4-1.5c-0.1-0.9,0-1.8,0.3-2.6c0.4-1.3,1.1-2.3,2.2-3c1.1-0.7,2.4-1,3.7-1c1,0,1.9,0.3,2.8,0.8
		c1.3,0.8,2.1,1.9,2.5,3.3c0.2,0.7,0.3,1.5,0.3,2.3c0,0.5-0.1,0.9-0.3,1.3c-0.3,1.1-0.8,2.1-1.3,3.1c-1,2-2.1,3.9-3.2,5.7
		c-0.4,0.6-0.7,1.2-1.1,1.7C111.8,171.1,111.8,171.2,111.8,171.2z M111.8,161c1.1,0,2.1-0.9,2-2.1c0-1.1-0.9-2-2.1-2
		c-1.1,0-2,0.9-2,2.1C109.7,160,110.6,161,111.8,161z"/>
	<path class="st1" d="M109.1,167.8c-0.2,0-0.4,0-0.6,0.1c-0.9,0.1-1.9,0.4-2.7,0.8c-0.4,0.2-0.7,0.4-1,0.7c-0.4,0.5-0.5,1-0.1,1.6
		c0.3,0.4,0.7,0.7,1.1,0.9c0.7,0.4,1.5,0.6,2.2,0.8c1.7,0.4,3.4,0.5,5.1,0.4c0.9-0.1,1.8-0.2,2.7-0.5c0.8-0.2,1.5-0.5,2.2-1
		c0.3-0.2,0.5-0.4,0.7-0.6c0.4-0.6,0.4-1.2-0.1-1.7c-0.3-0.4-0.8-0.6-1.2-0.8c-0.8-0.3-1.5-0.5-2.4-0.6c-0.2,0-0.5-0.1-0.7-0.1
		c0.1-0.1,0.2-0.2,0.3-0.3c0,0,0.1,0,0.1,0c1.3,0.1,2.7,0.4,3.9,0.9c0.4,0.2,0.8,0.4,1.1,0.7c1,0.9,1.1,2.1,0.4,3.1
		c-0.4,0.5-0.9,0.9-1.4,1.2c-0.8,0.5-1.7,0.8-2.6,1c-1.8,0.5-3.7,0.6-5.5,0.5c-1.3-0.1-2.5-0.3-3.8-0.6c-0.9-0.3-1.8-0.7-2.6-1.2
		c-0.4-0.3-0.7-0.6-1-1.1c-0.6-1-0.4-2.1,0.5-2.9c0.5-0.4,1.1-0.7,1.7-1c0.9-0.3,1.8-0.5,2.8-0.6c0.2,0,0.4,0,0.5-0.1
		c0,0,0.1,0,0.1,0C108.9,167.6,109,167.7,109.1,167.8z"/>
</g>
</svg>
