<?xml version="1.0" encoding="utf-8"?>
<!-- Generator: Adobe Illustrator 22.0.0, SVG Export Plug-In . SVG Version: 6.00 Build 0)  -->
<svg version="1.1" id="Capa_1" xmlns="http://www.w3.org/2000/svg" xmlns:xlink="http://www.w3.org/1999/xlink" x="0px" y="0px"
	 viewBox="0 0 231.9 217.6" style="enable-background:new 0 0 231.9 217.6;" xml:space="preserve">
<style type="text/css">
	.st0{fill-rule:evenodd;clip-rule:evenodd;fill:#EF7B4F;}
</style>
<g>
	<path class="st0" d="M107.1,71.7H55.3v34.3h24.9l11.2,10.8l-2.4-10.8h18V71.7z M70.4,92.2c-1.5,0-2.5-1.2-2.5-2.7
		c0-1.6,1.1-2.7,2.6-2.7c1.5,0,2.5,1.1,2.5,2.7C73,91.1,72,92.2,70.4,92.2z M81.5,92.2c-1.5,0-2.5-1.2-2.5-2.7
		c0-1.6,1.1-2.7,2.6-2.7c1.5,0,2.5,1.1,2.5,2.7C84.1,91.1,83.1,92.2,81.5,92.2z M92.6,92.2c-1.5,0-2.5-1.2-2.5-2.7
		c0-1.6,1.1-2.7,2.6-2.7c1.5,0,2.5,1.1,2.5,2.7C95.2,91.1,94.2,92.2,92.6,92.2z"/>
	<path class="st0" d="M118.3,141.2h-13.6l3.4-15.1L92,141.2H54.7v37.6h63.6V141.2z M74.1,163.5c-1.7,0-2.9-1.3-2.9-3.1
		c0-1.8,1.2-3.1,3-3.1c1.7,0,2.9,1.3,2.9,3.1C77.1,162.2,75.9,163.5,74.1,163.5z M86.9,163.5c-1.7,0-2.9-1.3-2.9-3.1
		c0-1.8,1.2-3.1,3-3.1c1.7,0,2.9,1.3,2.9,3.1C89.8,162.2,88.7,163.5,86.9,163.5z M99.6,163.5c-1.7,0-2.9-1.3-2.9-3.1
		c0-1.8,1.2-3.1,3-3.1c1.7,0,2.9,1.3,2.9,3.1C102.6,162.2,101.5,163.5,99.6,163.5z"/>
	<path class="st0" d="M188.8,86.9h-69v46.4h14.9l-3.2,18.3l15-18.3h42.2V86.9z M139.7,114.9c-2,0-3.4-1.6-3.4-3.7
		c0-2.2,1.5-3.7,3.5-3.7c2,0,3.4,1.5,3.4,3.7C143.2,113.4,141.9,114.9,139.7,114.9z M154.7,114.9c-2,0-3.4-1.6-3.4-3.7
		c0-2.2,1.5-3.7,3.5-3.7c2,0,3.4,1.5,3.4,3.7C158.2,113.4,156.9,114.9,154.7,114.9z M169.7,114.9c-2,0-3.4-1.6-3.4-3.7
		c0-2.2,1.5-3.7,3.5-3.7c2,0,3.4,1.5,3.4,3.7C173.2,113.4,171.9,114.9,169.7,114.9z"/>
</g>
</svg>
