<?xml version="1.0" encoding="utf-8"?>
<!-- Generator: Adobe Illustrator 22.0.1, SVG Export Plug-In . SVG Version: 6.00 Build 0)  -->
<svg version="1.1" id="Capa_1" xmlns="http://www.w3.org/2000/svg" xmlns:xlink="http://www.w3.org/1999/xlink" x="0px" y="0px"
	 viewBox="0 0 141.6 116.4" style="enable-background:new 0 0 141.6 116.4;" xml:space="preserve">
<style type="text/css">
	.st0{fill:#EF7B4F;}
</style>
<g>
	<path class="st0" d="M56.1,4.7H4.3V39h24.9l11.2,10.8L38,39h18V4.7H56.1z M19.4,25.2c-1.5,0-2.5-1.2-2.5-2.7c0-1.6,1.1-2.7,2.6-2.7
		s2.5,1.1,2.5,2.7S21,25.2,19.4,25.2z M30.5,25.2C29,25.2,28,24,28,22.5c0-1.6,1.1-2.7,2.6-2.7s2.5,1.1,2.5,2.7S32.1,25.2,30.5,25.2
		z M41.6,25.2c-1.5,0-2.5-1.2-2.5-2.7c0-1.6,1.1-2.7,2.6-2.7s2.5,1.1,2.5,2.7S43.2,25.2,41.6,25.2z"/>
	<path class="st0" d="M67.3,74.2H53.8l3.4-15.1L41,74.2H3.7v37.6h63.6V74.2z M23.1,96.5c-1.7,0-2.9-1.3-2.9-3.1s1.2-3.1,3-3.1
		c1.7,0,2.9,1.3,2.9,3.1S24.9,96.5,23.1,96.5z M35.9,96.5c-1.7,0-2.9-1.3-2.9-3.1s1.2-3.1,3-3.1c1.7,0,2.9,1.3,2.9,3.1
		C38.8,95.2,37.7,96.5,35.9,96.5z M48.6,96.5c-1.7,0-2.9-1.3-2.9-3.1s1.2-3.1,3-3.1c1.7,0,2.9,1.3,2.9,3.1S50.5,96.5,48.6,96.5z"/>
	<path class="st0" d="M137.9,19.9h-69v46.4h14.9l-3.2,18.3l15-18.3h42.2V19.9H137.9z M88.7,47.9c-2,0-3.4-1.6-3.4-3.7
		c0-2.2,1.5-3.7,3.5-3.7s3.4,1.5,3.4,3.7S90.9,47.9,88.7,47.9z M103.7,47.9c-2,0-3.4-1.6-3.4-3.7c0-2.2,1.5-3.7,3.5-3.7
		s3.4,1.5,3.4,3.7S105.9,47.9,103.7,47.9z M118.7,47.9c-2,0-3.4-1.6-3.4-3.7c0-2.2,1.5-3.7,3.5-3.7s3.4,1.5,3.4,3.7
		S120.9,47.9,118.7,47.9z"/>
</g>
</svg>
