<?xml version="1.0" encoding="utf-8"?>
<!-- Generator: Adobe Illustrator 22.0.0, SVG Export Plug-In . SVG Version: 6.00 Build 0)  -->
<svg version="1.1" id="Capa_1" xmlns="http://www.w3.org/2000/svg" xmlns:xlink="http://www.w3.org/1999/xlink" x="0px" y="0px"
	 viewBox="0 0 280.5 235.1" style="enable-background:new 0 0 280.5 235.1;" xml:space="preserve">
<style type="text/css">
	.st0{fill:#EF7B4F;}
	.st1{fill:#FFFFFF;}
	.st2{fill:none;stroke:#EF7B4F;stroke-width:3;stroke-miterlimit:10;}
	.st3{fill-rule:evenodd;clip-rule:evenodd;fill:#FFFFFF;}
</style>
<g>
	
		<ellipse transform="matrix(0.9936 -0.1128 0.1128 0.9936 -12.387 15.9835)" class="st0" cx="135.1" cy="117.5" rx="99.9" ry="99.9"/>
	<g>
		<path class="st1" d="M185.5,109.7c0,27.6-22.4,50-50,50c-27.6,0-50-22.4-50-50c0-27.6,22.4-50,50-50
			C163.1,59.6,185.5,82,185.5,109.7z"/>
		<path class="st2" d="M135.5,161.9V57.8c0,0-26.2,15.4-26.2,52C109.3,146.5,135.5,161.9,135.5,161.9z"/>
		<path class="st2" d="M135.5,162.1V58c0,0,26.2,15.4,26.2,52C161.7,146.7,135.5,162.1,135.5,162.1z"/>
		<path class="st2" d="M80.6,58h109.2c0,0-16.1,27.5-54.6,27.5C96.7,85.5,80.6,58,80.6,58z"/>
		<path class="st2" d="M190.3,161.4H81.1c0,0,16.1-27.5,54.6-27.5C174.2,133.9,190.3,161.4,190.3,161.4z"/>
		<line class="st2" x1="186" y1="110" x2="85" y2="110"/>
	</g>
	<g>
		<path class="st3" d="M161.4,171.1c-4.8-2-9.4-4.4-14.8-4.8c-3.2-0.2-6.4-0.1-9.5,0.7c-0.9,0.2-1.7,0.6-2.7,0.3
			c-4.2-1.3-8.4-1.3-12.7-0.4c-4.8,1.1-9.2,3.1-13.7,5.1c-4.7,2-9.5,2.4-14.4,1.1c-1.7-0.4-3.2-1.2-5-2c5.6,6.1,14.3,9.2,22.8,6.3
			c3.8-1.3,7-3.5,10.2-5.7c1.4-1,2.7-1.9,4.3-2.6c2.1-1,4.6-1.1,6.1-0.3c-1.1,0.6-2.1,1.1-3.1,1.7c-4.8,2.6-9.1,6-13.1,9.8
			c-0.4,0.4-0.4,0.6,0.1,1c0.8,0.7,1.8,1.2,2.4,2.2c0.1,0,0.2,0,0.3,0c1.5-2.2,3.4-4.1,5.4-6c2.9-2.7,6.1-5,9.5-7
			c1.3-0.7,2.4-0.9,3.7-0.1c5,2.9,9.2,6.7,13.2,10.8c2.2,2.2,2.2,2.2,4.4-0.1c0.5-0.5,0.6-0.8,0-1.3c-3.3-3-6.7-5.7-10.5-8
			c-1.8-1.1-3.7-1.9-5.6-3.1c3.1-0.7,5.7-0.4,8.2,1.3c3.3,2.2,6.4,4.7,10.2,6.2c7.3,3,14.3,2.5,20.8-1.9c2-1.4,2.9-2.2,3.5-3.5
			c-2.8,1.6-5.7,2.4-8.9,2.6C168.6,173.6,165,172.6,161.4,171.1z"/>
		<path class="st3" d="M68.2,140.4c3.4,3,7.1,5.4,10.8,7.8c1.4,0.9,2.7,1.7,4.1,2.6c-0.2-1-0.6-1.9-1-2.7c-0.5-1.1-1-2.2-1.2-3.3
			c-0.7-3.2-1-6.5-1.3-9.8c-0.5-5.6-0.9-11.3-3.1-16.6c-0.1-0.1-0.2-0.1-0.3,0c0.1,1.8-0.1,3.6-0.4,5.4c-0.5,2.6-1.1,5.2-1.4,7.8
			c-0.3,3.8,0.5,7.3,2,10.7c0,0.2,0.1,0.3,0.2,0.5c-0.2,0-0.3-0.1-0.4-0.2c-1.5-1.9-2.6-4.1-4.3-5.9c-2.5-2.7-5-5.3-7.5-8
			c-2-2.3-3.8-4.7-4.5-7.8c-0.3-0.2-0.3,0.1-0.5,0.2c0,0.5,0,1,0,1.5c0.2,0.5,0.2,1,0,1.5c0,0.4,0,0.8,0,1.3c0.4,0.2,0.3,0.7,0.4,1
			C60.9,132.1,63.9,136.7,68.2,140.4z"/>
		<path class="st3" d="M210.8,119.4c-0.1-0.2,0.2-0.6-0.3-0.5c-0.5,3-1.9,5.5-3.8,7.8c-1.8,2.4-4,4.4-6.1,6.5
			c-2.4,2.5-4.2,5.5-6.3,8.3c-0.3,0.1-0.4,0.3-0.5,0.4c0-0.1,0.1-0.4,0.2-0.7c2.1-4.3,2.5-8.8,1.5-13.5c-0.5-2.5-1-5.1-1.3-7.7
			c-0.2-0.5,0-1-0.1-1.4c-0.1-0.3,0.3-0.8-0.3-0.8c-0.5,1.3-1,2.6-1.3,3.9c-1.2,4.8-1.2,9.8-1.7,14.7c-0.5,4.6-1.1,9.1-3.4,13.2
			c0.4,0.2,0.6,0,0.9-0.1c3.5-2.3,7-4.6,10.4-7.1c4.8-3.5,8.6-7.8,10.9-13.4c0.6-1.6,0.8-3.4,1.5-5c0-0.9,0-1.8,0-2.8
			C210.6,120.7,210.8,120.1,210.8,119.4z"/>
		<path class="st3" d="M64.2,123.2c2.5,3.4,5.5,6.4,7.6,10c0,0.1,0.2,0.1,0.4,0.1c-0.8-4.2-0.1-8.1,1.2-12.1
			c1.8-5.6,3.2-11.4,3.6-17.3c0.2-0.8,0.1-1.5,0.1-2.3c0-0.3,0.2-0.7-0.4-0.7c-0.5,2.2-1.5,4.2-2.7,6c-3.2,4.9-5.6,10-5.1,16.1
			c0.2,0.4-0.1,0.8,0.1,1.2c0,0.2,0.1,0.3,0.1,0.5c0,0.1,0.1,0.2,0,0.3c0-0.1,0-0.2,0-0.4c-0.1-0.4-0.2-0.8-0.5-1.1
			c-0.9-5.4-3-10.4-5.2-15.3c-1.4-3.1-2.3-6.4-2.1-9.9c0.1-0.3,0.2-0.5-0.3-0.5c-0.5,2-1,4-1.5,6c0,0.6,0,1.2,0,1.8c0.2,1,0.2,2,0,3
			c0,0.6,0,1.2,0,1.8c0.5,0.4,0.4,1.1,0.5,1.6C60.7,116.1,61.7,119.9,64.2,123.2z"/>
		<path class="st3" d="M205.4,139.3c-1.4,2.8-3.5,5-6.1,6.8c-2.7,1.9-5.6,3.3-8.6,4.8c-3.6,1.8-7,3.8-10,6.5c-0.5,0.4-1,1-1.9,1
			c3.6-3.3,6.2-7,7.2-11.7c1-4.6,1.1-9.4,2.8-13.9c-0.5,0-0.6,0.3-0.8,0.5c-3.1,3.9-5.8,8.2-7.3,13c-0.9,2.8-1.8,5.5-2.9,8.2
			c-1.3,2.9-2.9,5.6-5.3,7.9c1.9-0.4,3.6-0.9,5.4-1.2c2.9-0.6,5.9-1,8.7-1.9c4.6-1.6,8.5-4.2,11.9-7.6c3.3-3.4,6-7.3,6.9-12.1
			C205.7,139.3,205.6,139.2,205.4,139.3z"/>
		<path class="st3" d="M92.5,161.7c1.7,0.3,3.3,0.7,5,1c-1.2-1.5-2.4-2.9-3.4-4.5c-1.7-2.8-2.8-5.8-3.8-8.9c-1.6-5.1-4-9.9-7.4-14.1
			c-0.4-0.5-0.7-1.1-1.6-1.6c1.5,3.8,1.8,7.6,2.4,11.3c0.8,5.1,2.8,9.6,6.8,13c0.2,0.2,0.5,0.3,0.3,0.7c-1.4-0.6-2.5-1.7-3.7-2.6
			c-3.6-2.7-7.7-4.4-11.7-6.5c-2.9-1.5-5.6-3.1-7.8-5.4c-1-1.1-1.8-2.4-2.7-3.6c-0.2,0.3-0.1,0.5,0,0.8c0.8,2.8,2.1,5.4,3.9,7.7
			c3.5,4.6,7.7,8.2,13.1,10.3C85.3,160.7,89,161.1,92.5,161.7z"/>
		<path class="st3" d="M193.6,158.3c-0.1,0.1-0.3,0.2-0.4,0.3c-2.9,2.8-6.5,4-10.3,4.6c-6.1,1-12.4,1-18.5,2.3c-0.3,0-0.8,0.5-1-0.2
			c0.4-0.1,0.8-0.2,1.2-0.4c3.4-1,6.1-2.8,8.1-5.8c2.1-3.3,3.3-7.1,5.5-10.5c-0.7,0-1,0.4-1.4,0.7c-3.8,2.9-7.1,6.3-10.4,9.7
			c-2.9,3-6.2,5.3-10.3,6.3c-1,0.3-1.9,0.5-2.9,0.8c4,0.8,7.9,1.8,11.8,2.7c3.1,0.7,6.3,1.2,9.5,1.1c7.1-0.3,12.8-3.5,17.5-8.8
			c0.7-0.8,1.4-1.7,1.9-2.8C193.8,158.3,193.7,158.3,193.6,158.3z"/>
		<path class="st3" d="M100.1,170.2c5.8-0.6,11.3-2.8,17.1-3.9c-0.5-0.1-1-0.3-1.6-0.4c-3.7-1-7.1-2.4-9.9-5c-2.2-2-4.3-4.1-6.5-6.2
			c-2.2-2.1-4.5-4-7.1-5.6c2.1,3.3,3.5,7.1,5.6,10.3c1.8,2.7,4.2,4.6,7.4,5.6c0.8,0.2,1.6,0.3,2.3,0.8c-0.6,0-1.2,0-1.8-0.1
			c-1.9-0.3-3.7-0.7-5.6-0.9c-3.7-0.4-7.4-0.6-11-1c-4.4-0.5-8.5-1.6-11.9-4.6c-0.1-0.1-0.3-0.1-0.4,0c0,0.1,0,0.2,0.1,0.2
			c0.1,0.1,0.1,0.2,0.2,0.3C82.8,167.8,90.5,171.2,100.1,170.2z"/>
		<path class="st3" d="M206.7,107.6c-2.1,4.7-4,9.4-4.9,14.4c-0.1,0-0.2,0.5-0.2,0.1c-0.2-1.6,0.1-3.2-0.2-4.9
			c-0.5-3.3-2.1-6.1-3.8-8.8c-1.6-2.6-3.2-5.2-4.4-8.1c-0.3,2.3,0.1,4.6,0.5,6.9c0.9,5.2,2.3,10.3,4,15.3c0.9,2.6,1,5.3,0.7,8
			c-0.1,0.6-0.1,1.2-0.1,1.8c2.2-3,4.6-5.8,6.8-8.7c0.8-1.1,1.7-2.2,2.3-3.4c1.8-3.6,2.8-7.5,3.1-11.5c0.3-3.8,0-7.6-1.4-11.3
			c-0.5,0-0.3,0.4-0.4,0.6c-0.1,0.8,0.1,1.6-0.1,2.4C208.3,102.9,207.7,105.3,206.7,107.6z"/>
		<path class="st3" d="M201.8,89.8c-0.4,4.4-0.3,8.7,0,13.1c0,0.3,0.5,0.7-0.2,0.8c-0.2-1.2-0.4-2.4-0.8-3.5
			c-1.2-3.6-3.8-6.1-6.5-8.5c-2-1.8-4.2-3.5-5.6-5.9c-0.2-0.1-0.3,0-0.3,0.3c0.9,4.3,2.7,8.2,5.3,11.7c3.4,4.6,7.3,8.9,8.5,14.9
			c0.6-2.9,1.4-5.8,2.4-8.6c0.5-1.4,1.1-2.8,1.5-4.3c2-8,0.5-15.4-4.4-22c-0.4-0.5-0.4-0.5-1.1-0.9c1.3,2.6,1.7,5.2,1.7,8
			C202.3,86.5,202,88.2,201.8,89.8z"/>
		<path class="st3" d="M68.1,113.4c0.4-0.9,0.6-1.8,0.9-2.6c1.2-3.2,3.1-6,5-8.8c2.1-3.1,4.5-6,5.8-9.6c0.7-1.8,1.3-3.6,1.3-5.5
			c-1.9,2.7-4.5,4.5-6.7,6.8c-2.9,3-5.2,6.3-5.8,10.5c-0.1,0.1-0.2,0.3-0.2,0.4c0,0.1,0,0.2,0,0.2c0,0.2,0,0.2,0,0.3c0,0,0,0,0,0
			c0,0,0,0,0,0c0,0,0,0,0-0.1c0-0.1,0-0.2,0.1-0.4c0-0.4-0.3-0.9,0-1.5c0-0.8-0.1-1.7,0.1-2.5c0.4-2.6,0.1-5.1-0.1-7.7
			c-0.2-2-0.6-4-0.7-6c-0.2-2.8-0.2-5.7,1.2-8.7c-1.1,0.7-1.4,1.5-1.9,2.2c-3.4,5.2-4.5,10.9-3.6,17.1
			C64.2,103.1,67.4,107.9,68.1,113.4z"/>
		<path class="st3" d="M193.1,72.9c1.2,4.2,2.1,8.4,3.4,12.6c0,0.2,0.1,0.4,0,0.5c0-0.1-0.1-0.2-0.2-0.3c-1.5-2.3-3.4-4.2-5.7-5.8
			c-1.9-1.4-3.9-2.7-5.8-4.3c-1.2-1-2.1-2.4-3.2-3.8c0.8,5.2,3.4,9.1,7.3,12.2c3.8,3,7.9,5.8,10.6,10.1c0.2-0.3,0.2-0.6,0-0.9
			c-0.1-3.1-0.1-6.1,0.1-9.2c0.3-4.9-0.7-9.3-4-13.1c-1.8-2.1-4-3.7-7.2-4.5C190.9,68.3,192.4,70.4,193.1,72.9z"/>
		<path class="st3" d="M70.4,95c0,0,0.1,0.1,0.2,0.1c1.6-2.8,3.8-5.1,6.3-7.1c2.5-1.9,4.9-3.8,6.9-6.3c2-2.5,3.5-5.2,4-8.4
			c0-0.3,0.4-0.7-0.3-0.8c-1.2,2.5-3.2,4.2-5.4,5.9c-2.5,1.8-5.2,3.5-7.1,6c-0.8,1-1.5,2.1-2.2,3.2c0.3-1.5,0.8-2.9,1.2-4.4
			c0.6-2.4,1.2-4.8,1.7-7.2c0.7-3.2,1.9-6.1,4.3-8.4c-0.4,0-0.7,0.1-1,0.3c-0.3,0.1-0.5,0.2-0.8,0.4c-5.2,3-7.9,7.4-8.2,13.4
			C69.9,86.2,70.7,90.6,70.4,95z"/>
		<path class="st3" d="M176.1,61.7c0.9,0.9,1.9,1.8,2.6,2.9c2.7,4.2,5.9,7.8,9.6,11.1c1.3,1.2,2.5,2.3,4,3.2
			c-1.7-10.5-7.8-16.8-18.2-19.1C174.8,60.4,175.5,61,176.1,61.7z"/>
		<path class="st3" d="M77.7,79.4c2.8-2.4,5.8-4.5,8-7.4c3-3.9,5.5-8,9-11.5c-9.7,3.6-14.2,5.5-17.6,18.9
			C77.4,79.5,77.6,79.5,77.7,79.4z"/>
	</g>
</g>
</svg>
