<?xml version="1.0" encoding="utf-8"?>
<!-- Generator: Adobe Illustrator 22.0.1, SVG Export Plug-In . SVG Version: 6.00 Build 0)  -->
<svg version="1.1" id="Capa_1" xmlns="http://www.w3.org/2000/svg" xmlns:xlink="http://www.w3.org/1999/xlink" x="0px" y="0px"
	 viewBox="0 0 212.3 205.5" style="enable-background:new 0 0 212.3 205.5;" xml:space="preserve">
<style type="text/css">
	.st0{fill:#EF7B4F;}
	.st1{fill:#FFFFFF;}
</style>
<g>
	<g>
		<path class="st0" d="M206.1,102.7c0,55.2-44.8,100-100,100s-100-44.8-100-100s44.8-100,100-100C161.5,2.7,206.1,47.5,206.1,102.7z
			"/>
	</g>
	<g id="kLBFWm.tif">
		<g>
			<path class="st1" d="M49.7,47.5c8.1,2.7,16.2,5.5,24.3,8.2c0.6,0.2,1.2,0.4,2,0.7C70.1,62.3,64.4,68,58.4,74
				c-0.3-0.7-0.5-1.3-0.6-1.8c-2.3-7.1-4.7-14.1-7-21.2c-0.3-1-0.9-2-1.4-3.1C49.4,47.8,49.6,47.6,49.7,47.5z"/>
			<path class="st1" d="M61.7,77.5c6-6,11.9-11.9,17.8-17.8c24.4,24.4,48.8,48.8,73.2,73.2c-0.9,0.9-1.7,1.7-2.5,2.5
				c-23-23-46.1-46.1-69.2-69.2c-0.8,0.8-1.6,1.6-2.5,2.5c23,23,46,46,69.3,69.3c-4.3,4.3-8.5,8.5-12.8,12.8
				C110.7,126.5,86.2,102,61.7,77.5z"/>
			<path class="st1" d="M138.5,154.5c6-6,11.9-11.9,17.9-17.9c3.7,3.9,8.2,7.1,10.3,12c1.3,3,0.4,5.2-1.1,6.9
				c-2.7,3-5.4,5.9-8.5,8.4c-3.3,2.7-6.7,2.3-11.6-2.3C143.2,159.3,141,157,138.5,154.5z"/>
		</g>
	</g>
	<g>
		<g>
			<path class="st1" d="M142.8,47.8c-13.5,5-11.9,13.1-12.1,15.6c-0.9,8.8-3.2,11.2-3.2,11.2L113,89l0,0l-22.8,22.7l-0.1,0.1l0,0
				l-8.7,8.7c0,0-5.7,6.1-14.9,6.1c-8.3,0-8.6,2.2-10.4,5c-4.3,6.5-5.5,14.2-6.8,19.4c-0.8,3.4,0.4,1.8,0.4,1.8s9.3-10.1,10-11.1
				c2.3-3.2,4.3-1.6,4.3-1.6s9.2,6.6,10.5,7.8c2,2-0.3,5-0.3,5l-10.9,12.1c-1.9,2.5-2.2,2.6,8.6-1.4c13.5-5,11.9-13.1,12.1-15.6
				c0.9-8.8,3.2-11.2,3.2-11.2l14.5-14.5l0,0l31.6-31.5c0,0,5.7-6.1,14.9-6.1c8.3,0,8.6-2.2,10.4-5c4.3-6.5,5.5-14.2,6.8-19.4
				c0.8-3.4-0.4-1.8-0.4-1.8s-9.3,10.1-10,11.1c-2.3,3.2-4.3,1.6-4.3,1.6s-9.2-6.6-10.5-7.8c-2.1-2,0.3-5,0.3-5l10.9-12.1
				C153.2,43.8,153.6,43.7,142.8,47.8z"/>
			<path class="st0" d="M82.6,126.1l45.5-45.5c0,0,5.8-1.3,4.4,4.4c-0.1,0.5-45.5,45.5-45.5,45.5S81.1,132.3,82.6,126.1z"/>
		</g>
	</g>
</g>
</svg>
