<?xml version="1.0" encoding="utf-8"?>
<!-- Generator: Adobe Illustrator 22.0.0, SVG Export Plug-In . SVG Version: 6.00 Build 0)  -->
<svg version="1.0" id="Layer_1" xmlns="http://www.w3.org/2000/svg" xmlns:xlink="http://www.w3.org/1999/xlink" x="0px" y="0px"
	 viewBox="0 0 311.8 311.8" style="enable-background:new 0 0 311.8 311.8;" xml:space="preserve">
<style type="text/css">
	.st0{fill:#192C59;}
	.st1{fill:#D60171;}
	.st2{fill:#C17A21;}
	.st3{fill:#0B68AE;}
	.st4{fill:#EC561E;}
	.st5{fill:#F48B1E;}
	.st6{fill:#3A652F;}
	.st7{fill:#7B0A2A;}
	.st8{fill:#B30B27;}
	.st9{fill:#248C38;}
	.st10{fill:#0A4178;}
	.st11{fill:#E20123;}
	.st12{fill:#4EB036;}
	.st13{fill:#E72822;}
	.st14{fill:#139ECF;}
</style>
<g>
	<path class="st0" d="M109.2,173.6c-0.5-2.2,0.7-4.3,0.5-6.4c0-0.1,0-0.1,0-0.1c1.6-1.6-0.4-2-1-2.8c-1.1-1.3-2.5-2.4-3.6-3.7
		c-1.7-2.1-3.1-4.5-4-7.1c-0.5-1.4-0.8-2.8-1.6-4c-0.1-0.1-0.1-0.2-0.1-0.3c0.4-2.8-1.4-5.5-0.1-8.3c0.2-0.3,0.1-0.7,0-1
		c-0.2-1.9,0.7-3.5,1.3-5.2c0.4-1,0.9-2,1.1-3.1c0.3-1.2,1.1-2,1.6-3c1.8-2.9,4.2-5.4,6.9-7.4c3.1-2.3,6.5-3.9,10.3-4.9
		c1.1-0.3,2.2-0.2,3.3-0.5c1.1-0.4,2.4-0.5,3.3-1.5c0.7-0.7,0.4-1.5,0.9-2.3c1.5-2.4,3-4.8,5-6.7c1.5-1.5,3.2-2.7,4.9-4
		c1.6-1.3,3.6-1.8,5.2-2.9c0.6-0.4,1.6-0.5,2.4-0.8c1.6-0.4,3.3-0.7,5-1c1.5-0.4,3.1-0.2,4.6-0.2c2.1,0.1,4.1,0.3,6.1,1.1
		c0.8,0.3,1.9,0.5,2.8,0.8c1,0.2,2,0.9,3,1.4c2.8,1.4,5.5,3.2,7.6,5.5c1.1,1.2,2.3,2.6,3.2,4c1.1,1.8,1.9,3.7,3,5.5
		c0.1,0.1,0.2,0.3,0.2,0.3c1.4-0.3,2.2,1,3.6,0.9c2.1-0.3,4,0.8,5.8,1.5c0.5,0.2,1.1,0.2,1.7,0.5c3.7,1.9,6.9,4.4,9.7,7.5
		c1.4,1.5,2.7,3.2,3.6,4.9c0.9,1.8,1.8,3.8,2.2,6c0.2,1.3,0.4,2.7,0.8,4.1c0.5,2.1,0.7,4.2-0.1,6.3c-0.1,0.2-0.1,0.3-0.1,0.5
		c-0.2,1.1,0,2.1-0.6,3.2c-0.5,1-0.8,2.4-1.2,3.7c-1,3-2.8,5.5-4.9,7.8c-0.9,1-1.9,1.8-2.9,2.7c-0.6,0.6-1,1.1-0.7,2.2
		c0.9,3.4,0.8,7,0.4,10.5c-0.2,1.2,0.1,2.8-1,4c-0.4,0.5-0.7,1.7-0.9,2.6c-0.4,1.5-1.2,2.7-2,3.9c-1.4,2.2-2.9,4.6-5,6.2
		c-2.5,1.9-4.9,4-7.9,5c-1.6,0.5-3.2,1.2-4.8,1.6c-1.3,0.3-2.5,0.2-3.8,0.4c-1.2,0.2-2.3,1.3-3.6,0.7c-2-0.8-4.1-0.5-6.1-1.1
		c-1-0.3-2.1-0.7-3.2-0.9c-1.3-0.2-2.3-0.9-3.4-1.4c-0.8-0.4-1.6-0.9-2.4-1.4c-0.8-0.5-1.4,0-1.9,0.4c-1.8,1.6-4.2,2-6.2,3
		c-0.9,0.4-2.1,0.9-3.3,0.7c-0.7-0.1-1.5-0.2-2,0.6c-0.2,0.3-0.7,0.2-1,0.2c-1.3,0-2.5,0.1-3.8,0c-1-0.1-2.1,0.4-2.9-0.7
		c-0.1-0.2-0.6-0.1-0.9-0.1c-2.1,0-4-0.9-5.9-1.7c-1.4-0.5-2.7-1.3-4-2c-2-1-3.7-2.4-5.3-3.9c-1.9-1.8-3.3-4-4.6-6.3
		c-0.7-1.2-0.9-2.6-1.7-3.7c-0.9-1.1-1-2.5-1.3-3.6c-0.4-1.6-1-3.3-0.7-5.1C109.3,174.4,109.2,174,109.2,173.6z M124,121.3
		c-1-0.4-1.7,0.6-2.6,0.7c-2.5,0.3-4.5,1.6-6.5,3c-2.6,1.7-4.9,4-6.6,6.7c-1.8,3-3.1,6-3.3,9.5c-0.1,1.6,0,3.3,0,4.9
		c0,1.6,0.5,3.1,1,4.5c0.7,1.8,1.5,3.6,2.6,5.2c1,1.5,2.4,2.5,3.5,3.8c0.3,0.4,0.7,0.8,0.9-0.2c0.2-1,1-1.9,1.6-2.5
		c1.5-1.5,2.9-3.2,4.5-4.7c2.7-2.4,5.8-4,9.1-5.2c1.7-0.7,3.7-1.4,5.7-1.2c0.3,0,0.7,0,0.8-0.3c0.2-0.4-0.2-0.5-0.4-0.7
		c-2.7-2.4-4.7-5.3-6.2-8.6c-0.4-0.9-0.7-1.9-1-2.7c-0.8-1.5-1.1-3.1-1.1-4.8c0-0.3,0.1-0.8-0.1-1c-0.9-1.6-0.6-3.4-0.4-5.1
		C125.5,121.4,125.4,121,124,121.3z M141.8,173.9c0-1.4,0-2.8,0-4.2c0-0.9-0.4-1-1.3-0.8c-2,0.5-3.6,1.7-5.7,2c-2,0.2-4,0.8-6,0.9
		c-1.5,0.1-3-0.1-4.4-0.4c-1.9-0.4-3.9-0.4-5.7-1.3c-0.5-0.3-1.2-0.3-1.8-0.8c-0.9-0.7-2,0.4-2,1.8c0.1,2.2-0.1,4.5,0.4,6.7
		c0.4,1.9,1,3.7,1.8,5.4c1.1,2.5,2.7,4.6,4.7,6.6c1.4,1.4,3.1,2.5,4.8,3.4c1.6,0.8,3.2,1.4,4.9,2c2,0.7,3.9,1,6,1.1
		c2.5,0.1,4.9-0.4,7.3-1.1c1.3-0.4,2.4-1.1,3.7-1.5c0.9-0.2,1-0.9,0.2-1.6c-1.1-0.9-1.7-2.2-2.5-3.3c-0.4-0.6-0.9-1.1-1.3-1.7
		c-0.8-1.8-1.6-3.6-2.1-5.5c-0.5-1.7-1.1-3.3-1-5.1C141.8,175.6,141.8,174.8,141.8,173.9z M153.6,101.9c-1.1-0.4-2.5,0.8-3.9,0.7
		c-1.2-0.1-2.3,0.5-3.3,0.9c-2.5,1-4.8,2.2-7,3.9c-2.6,2-4.3,4.5-5.8,7.2c-0.3,0.5-0.3,0.9,0.5,1.3c1.2,0.6,2.5,0.4,3.7,1.1
		c1.3,0.8,2.8,1.1,4.3,1.9c3.1,1.7,5.7,4,8.1,6.7c1.4,1.6,2.6,3.3,3.7,5.1c0.1,0.2-0.1,0.5,0.4,0.5c0.3,0,0.2-0.3,0.3-0.5
		c0.9-1.5,1.6-3.1,2.8-4.3c2.7-2.7,5.2-5.7,8.8-7.5c2.2-1.1,4.5-2.2,6.9-2.6c1.9-0.4,2.3-1.4,1.1-3c-0.7-0.9-1.6-1.8-2.1-2.8
		c-1.1-2.2-3.2-3.3-5-4.5c-1.9-1.3-4.1-2.2-6.4-2.8C158.5,102.6,156.3,102.1,153.6,101.9z M203.9,143.8c-0.2-2.1-1-3.7-1-5.6
		c0-0.7-0.2-1.7-0.6-2.3c-0.8-1-1.3-2.1-1.7-3.2c-0.8-2-2.6-3.2-3.6-5.1c-0.2-0.3-0.6-0.5-0.9-0.7c-0.6-0.4-1.3-0.7-1.7-1.3
		c-1-1.4-2.7-1.6-4-2.5c-1.4-0.9-3-1.1-4.5-1.7c-1.2-0.5-2.6-0.1-2.7,0.9c-0.1,2.1,0,4.3-0.4,6.4c-0.4,2-0.8,3.8-1.5,5.7
		c-0.4,1.2-0.8,2.5-1.5,3.6c-1.5,2.2-2.8,4.6-5.1,6.3c-0.3,0.2-0.5,0.7-0.3,1c0.2,0.4,0.6,0.3,0.9,0.3c2.2-0.2,4.1,1,6.2,1.6
		c1,0.3,1.9,1.1,2.9,1.4c2,0.8,3.4,2.3,5.2,3.4c1,0.6,1.9,1.5,2.5,2.4c0.9,1.3,2.2,2.4,2.8,4c0.1,0.2,0.4,2.2,1.6,0.9
		c1.1-1.1,2.4-2.2,3.1-3.6c1.1-2,2.4-4,3-6.3C203.1,147.5,202.9,145.5,203.9,143.8z M193.3,173.9c0-1.3,0.1-2.2,0-3.1
		c-0.1-1.1-0.9-1.8-2-1.3c-1.3,0.6-2.6,1.1-4,1.4c-1.9,0.4-3.8,0.7-5.6,0.9c-1.7,0.2-3.5-0.2-5.2-0.4c-3.1-0.3-5.7-1.4-8.5-2.4
		c-1-0.4-1.4-0.2-1.3,0.9c0.1,1.4,0.3,2.7,0.2,4c-0.3,2.1,0.1,4.3-0.7,6.4c-0.4,1.1-0.8,2.4-1.2,3.5c-0.4,1-1,1.9-1.4,2.9
		c-0.9,1.9-2,3.6-3.5,5c-1,1-1,1.5,0.5,1.9c1.4,0.4,2.7,1,4,1.4c2.1,0.7,4.2,0.7,6.3,0.7c2.7,0,5.5-0.3,8.1-1.5
		c2.6-1.1,5-2.5,7.1-4.3c1.1-0.9,1.9-2.1,2.8-3.2c1.9-2.2,3.2-4.8,3.9-7.5C193.1,177.6,193.8,175.6,193.3,173.9z M170.7,150.8
		c-1.3,0.1-2.4,0.4-3.4,0.4c-2.6,0.1-4.9,1.2-7.3,2c-0.3,0.1-0.4,0.3-0.3,0.4c0.9,1,1.3,2.4,2.2,3.3c2.4,2.5,4.6,5,7.8,6.4
		c2.4,1.1,4.7,2.2,7.4,2.3c0.5,0,1.1,0,1.5,0.2c0.9,0.4,1.9,0.5,2.8,0.2c1.3-0.3,2.5-0.5,3.7-0.4c0.1,0,0.3,0,0.4-0.1
		c1.6-0.8,3.3-1,4.9-1.7c0.7-0.3,0.8-0.8,0.5-1c-0.5-0.4-0.5-1.1-0.9-1.5c-1.9-2.4-3.8-4.5-6.3-6.3c-2.5-1.7-5.1-3-8-3.6
		C174.1,151.1,172.2,150.5,170.7,150.8z M127.9,166.5c1.9-0.9,4-0.7,6-1.2s3.8-1.3,5.6-2.2c3.4-1.8,6.1-4.5,8.1-7.8
		c0.5-0.9,1.4-1.5-0.5-2.2c-2.4-1-4.7-1.6-7.2-1.6c-4-0.1-8-0.1-11.7,1.8c-2.4,1.2-4.6,2.6-6.5,4.4c-1.7,1.6-3.1,3.5-4.2,5.6
		c-0.3,0.5-0.1,0.5,0.4,0.7c1.4,0.3,2.8,1,4.2,1.4C123.9,165.8,126,165.5,127.9,166.5z M151.2,143.4c0.4-1.2-0.5-2.2-0.6-3.3
		c-0.2-2.2-0.9-4.1-1.8-6.1c-1-2.1-2.2-3.9-3.7-5.6c-2.4-2.7-5.4-4.3-8.6-5.8c-1.1-0.5-2.6-0.1-3.6-1.1c-0.2-0.2-1.3-0.3-1.3,0.4
		c-0.1,1.1-0.7,2-0.7,3.1c-0.1,1,0.8,1.9,0.6,2.9c-0.3,2.2,0.7,4.2,1.5,6.1c0.9,2.2,2.3,4.3,4,6c1.6,1.6,3.3,3.2,5.3,4.5
		c2.2,1.4,4.8,1.9,7.3,2.8c0.5,0.2,0.9,0,1.1-0.6C151,145.4,151.5,144.5,151.2,143.4z M160.7,173.8c0-1.6,0.2-3.1-0.1-4.5
		c-0.3-1.7-0.9-3.5-1.8-5.1c-1.1-2.1-2.3-4.2-4-5.9c-0.5-0.5-1-0.4-1.5,0c-0.5,0.4-1,0.9-1.3,1.4c-1,1.7-2.2,3.2-3,5
		c-0.7,1.6-1.4,3.4-1.5,4.9c-0.2,3-0.6,6.1,0.4,9.2c0.6,1.8,1.3,3.6,2.1,5.2c0.8,1.7,1.9,3.2,3.2,4.6c0.5,0.5,1,0.9,1.7,0
		c0.8-1.1,1.8-2,2.6-3.1c1.3-1.7,1.9-3.7,2.6-5.5C160.9,178,160.8,175.8,160.7,173.8z M177.5,125c-0.1-0.5-0.1-0.7-0.1-0.9
		c-0.4-2.8-0.4-2.8-3-2.2c-0.1,0-0.2,0-0.3,0c-2.8,0.3-5.3,1.8-7.4,3.4c-3.2,2.4-5.9,5.4-7.5,9.1c-0.7,1.5-1,3.1-1.4,4.6
		c-0.3,1.1-0.1,2.4-0.5,3.6c-0.2,0.5-0.1,1.2,0.1,1.8c0.2,0.5,0.4,1,0.4,1.6c-0.1,1.1,0.8,1,1.3,0.8c0.7-0.4,1.4-0.5,2.1-0.7
		c0.7-0.2,1.5-0.2,2.1-0.5c2.3-1.3,4.6-2.5,6.6-4.4c1.6-1.6,3.4-3.2,4.5-5.2c0.9-1.7,1.6-3.4,2.2-5.4
		C177,128.7,176.8,126.7,177.5,125z"/>
	<path class="st1" d="M135.6,239.5c-0.3,1.3-0.5,2.6-0.8,4c-0.6,4.3-1.7,8.5-2.5,12.8c-0.4,2.7-1,5.4-1.6,8c-1,4.9-1.9,9.8-2.8,14.6
		c-0.5,2.7-1.1,5.4-1.6,8.1c-0.4,2.3-0.8,4.5-1.3,6.8c-0.6,3.1-1.2,6.1-1.9,9.2c-0.1,0.5-0.5,0.4-0.8,0.3
		c-5.1-1.4-10.4-2.5-15.5-4.3c-4.3-1.4-8.5-2.9-12.6-4.6c-4.6-1.9-9.1-3.9-13.4-6.4c-0.7-0.4-1.8-0.5-1.9-1.1
		c-0.1-0.7,0.6-1.4,1-2.1c2.4-3.8,4.8-7.5,7.2-11.3c2.8-4.5,5.7-9,8.6-13.4c3.3-5.3,6.7-10.5,10-15.8c2.6-4.1,5.2-8.2,7.9-12.3
		c0.4-0.7,0.8-0.7,1.5-0.3c2.5,1.2,5.1,2.4,7.7,3.4c3.9,1.6,8,2.7,12.1,3.9C135.6,238.9,135.7,239.1,135.6,239.5z"/>
	<path class="st2" d="M8.3,202.3c0-0.5,0.2-0.7,0.7-0.8c2.1-0.7,4.3-1.3,6.5-1.8c1.5-0.3,3-0.9,4.4-1.3c2.5-0.7,4.9-1.4,7.4-2.1
		c5.7-1.6,11.4-3.2,17-4.8c3.2-0.9,6.4-1.9,9.7-2.7c2.9-0.7,5.7-1.6,8.6-2.4c2.7-0.7,5.5-1.3,8.1-2.4c1.9-0.8,2.1-0.5,2.8,1.5
		c0.9,2.8,2.2,5.5,3.6,8.1c1.6,3.1,3.2,6.2,5.4,8.9c0.3,0.4,0.5,0.8-0.2,1.3c-6.4,4.6-12.7,9.2-19,14c-3.3,2.5-6.8,5-10.1,7.5
		c-3.8,3-7.9,5.7-11.8,8.6c-3.8,2.8-7.5,5.7-11.4,8.5c-0.5,0.4-0.9,0.3-1.3-0.3c-1.5-2.2-3-4.4-4.5-6.6c-2-3-3.8-6.2-5.6-9.3
		c-2.1-3.8-4-7.7-5.7-11.8c-1.1-2.7-2.2-5.5-3.3-8.2C9.1,205.2,8.7,203.7,8.3,202.3z"/>
	<path class="st3" d="M67.5,142.2c-3.3-0.3-6.7-0.5-10.1-1c-1.5-0.2-3-0.1-4.4-0.2c-2.1-0.1-4.1-0.5-6.2-0.7c-3.3-0.3-6.6-0.4-9.8-1
		c-1.5-0.2-3.1-0.2-4.6-0.3c-4.1-0.1-8.2-0.9-12.3-1c-3.2-0.1-6.3-0.8-9.5-0.9c-2.7-0.1-5.4-0.2-8-0.7c-0.5-0.1-0.5-0.3-0.6-0.8
		c-0.2-1.6,0.6-3.1,0.7-4.7c0.1-2.1,0.8-4.2,1.3-6.3c0.6-3.1,1.4-6.1,2.3-9.1c0.7-2.4,1.5-4.8,2.3-7.2c1.1-3.7,2.7-7.2,4.1-10.8
		c0.7-1.6,1.4-3.2,2.1-4.8c0.3-0.6,0.5-1,1.3-0.5c2.3,1.5,4.9,2.4,7.3,3.7c5.2,2.6,10.4,5.4,15.8,7.8c4.6,2.1,9.1,4.4,13.7,6.5
		c4.4,2.1,8.8,4.5,13.3,6.7c2.8,1.3,5.6,2.7,8.5,4c1.1,0.5,0.9,1.1,0.5,1.7c-1.8,3.4-2.9,7-3.9,10.7c-0.7,2.6-1.5,5.2-1.9,8
		C69.3,142.4,68.4,142.2,67.5,142.2z"/>
	<path class="st4" d="M160.8,306.6c-4.4,0-8.9,0.3-13.3-0.1c-4.1-0.3-8.3-0.3-12.4-1.2c-0.4-0.1-0.8,0-1.2-0.1
		c-0.5-0.1-0.7-0.3-0.7-0.8c0.3-1.5,0.5-3,0.8-4.4c0.4-2.7,1.1-5.5,1.6-8.2c0.7-3.6,1.3-7.1,2.1-10.7c0.5-2.2,0.9-4.6,1.2-6.9
		c0.3-2,0.8-3.8,1.2-5.8c0.5-2.5,0.9-5,1.4-7.4c0.5-2.5,0.9-5.1,1.5-7.5c0.3-1,0.3-2.1,0.5-3.2c0.5-2.8,1.4-5.7,1.6-8.6
		c0.1-0.9,0.5-1.1,1.5-1c4.4,0.4,8.7,0.7,13.1,0.3c2.5-0.2,5.1-0.3,7.7-0.4c0.4,0,0.5,0.2,0.5,0.5c0.6,3.2,1.4,6.3,1.9,9.6
		c0.3,2.5,1,5,1.5,7.5c0.7,3.7,1.3,7.4,2.1,11.1c1.2,5.5,2.1,11.1,3.3,16.6c0.8,3.6,1.5,7.3,2.1,10.9c0.5,2.4,0.8,4.9,1.3,7.3
		c0.1,0.5-0.2,0.5-0.5,0.6c-3.9,0.8-7.9,1.1-11.9,1.4C165.6,306.3,163.2,306.6,160.8,306.6z"/>
	<path class="st5" d="M223.4,210.1c4,2.9,7.9,5.7,11.9,8.6c2.8,2,5.5,4.1,8.3,6.1c3.7,2.7,7.3,5.3,10.9,8c3.4,2.6,6.8,5.2,10.3,7.7
		c3.8,2.7,7.4,5.6,11.3,8.2c1.2,0.8,0.7,1.5,0.2,2.1c-2.8,3-5.5,6.1-8.4,9.1c-3.8,3.9-7.8,7.5-12,11c-4,3.4-8.5,6.4-12.7,9.6
		c-0.5,0.4-0.8,0.3-1.1-0.2c-3.4-5.5-6.9-11.1-10.4-16.6c-2.2-3.4-4.3-6.8-6.5-10.2c-2.7-4.3-5.6-8.4-8.2-12.7
		c-1.9-3.1-3.9-6.1-5.7-9.1c-1.1-1.9-2.2-3.7-3.6-5.5c-0.6-0.9-0.5-1.4,0.3-1.9c4.7-3.3,8.9-7.2,12.8-11.3
		C221.8,211.9,222.6,210.9,223.4,210.1z"/>
	<path class="st5" d="M35.5,251c4.4-3.3,8.8-6.6,13.2-9.8c4.2-3.1,8.3-6.1,12.4-9.2c3.7-2.8,7.4-5.4,11.1-8.1
		c3.4-2.6,6.8-5.2,10.3-7.7c2-1.4,3.9-2.8,5.8-4.3c0.6-0.5,1.1-0.3,1.6,0.3c2.7,3.2,5.7,6,9,8.6c2.1,1.7,4.2,3.4,6.4,4.9
		c0.7,0.4,0.1,0.8,0,0.9c-1.3,2-2.7,3.8-3.8,5.8c-1.5,2.7-3.3,5.3-5,8c-2.6,4.2-5.4,8.4-8,12.5c-1.4,2.1-2.7,4.3-4.1,6.4
		c-2.1,3.2-4,6.5-6.2,9.7c-1,1.5-2,3.2-3,4.8c-1.5,2.4-3,4.8-4.5,7.2c-0.3,0.5-0.4,0.7-1.1,0.2c-3.5-2.2-6.8-4.7-10.1-7.2
		c-2.7-2-5.2-4.2-7.7-6.3c-2.2-1.9-4.3-3.8-6.3-5.8c-3-3-5.9-5.9-8.5-9.2C36.6,252.1,36.1,251.6,35.5,251z"/>
	<path class="st2" d="M256.6,41.6c-3.4,3.7-6.9,7.3-10.4,11c-2.6,2.8-5.2,5.6-7.8,8.4c-3,3.1-6,6.3-9.1,9.5
		c-2.7,2.7-5.1,5.6-7.7,8.4c-2.4,2.6-4.9,5.1-7.3,7.6c-0.7,0.7-1.4,1.4-2.1,2.1c-1.2,1.4-1.2,1.5-2.6,0.3c-1.7-1.5-3.6-2.7-5.5-3.9
		c-3.4-2.2-6.8-4.3-10.7-5.8c-0.9-0.4-1.3-1-0.9-2c0.8-2,1.6-4,2.4-6.1c0.7-2,1.7-3.8,2.3-5.8c0.5-1.8,1.5-3.4,2.1-5.2
		c1-2.8,2.2-5.6,3.3-8.3c1.3-3,2.4-6,3.6-9c1.5-3.6,2.8-7.2,4.3-10.8c1.7-4.3,3.3-8.6,5.1-12.8c0.8-1.9,0.8-1.9,2.6-1.1
		c4.3,1.9,8.6,3.9,12.7,6.2c2.8,1.5,5.6,3.1,8.3,4.9c4,2.6,7.9,5.2,11.7,8.1C253,38.6,254.9,39.9,256.6,41.6z"/>
	<path class="st0" d="M151.4,38c0,10.4,0,20.9,0,31.4c0,1-0.2,1.4-1.4,1.5c-2.7,0.1-5.4,0.3-8,0.8c-4,0.8-8,1.4-11.8,2.7
		c-0.7,0.2-0.9,0.2-1.2-0.6c-1.4-3.9-3.1-7.6-4.5-11.4c-1.9-4.9-3.8-9.7-5.7-14.5c-1.1-2.9-2.4-5.8-3.6-8.7c-1.4-3.5-2.8-7-4.2-10.5
		c-1.7-4.4-3.5-8.7-5.2-13.1c-0.8-2.1-0.7-2.3,1.5-2.9c2.4-0.7,4.6-1.3,7-2c2-0.7,4-0.9,6.1-1.4c2-0.5,4-1,6.1-1.5
		c1.5-0.3,3.2-0.3,4.7-0.7c3.7-0.8,7.4-0.9,11.1-1.5c2.7-0.4,5.5-0.2,8.2-0.4c1.1-0.1,0.8,0.7,0.8,1.2c0,7.3,0,14.6,0,21.9
		C151.4,31.5,151.4,34.7,151.4,38z"/>
	<path class="st6" d="M1,156.2c0-2.8,0-5.6,0-8.4c0-0.8,0.1-1.1,1-1.1c3.6,0.2,7.3,0.2,10.9,0.8c1,0.2,2,0.3,3.1,0.3
		c3.3,0,6.5,0.6,9.7,1c1.9,0.2,3.8,0.2,5.7,0.3c4.8,0.5,9.5,0.7,14.3,1.2c2.1,0.2,4.3,0.5,6.4,0.7c2.3,0.2,4.6,0.1,6.9,0.6
		c2.5,0.5,5.2,0.3,7.8,0.4c0.9,0,1.4-0.1,1.2,1.4c-0.3,1.9-0.4,4,0.1,6c0.1,0.4,0.1,0.9,0.1,1.3c-0.2,3.3,0.8,6.6,0.9,9.9
		c0.1,0.8,0.2,1.8,0.6,2.7c0.2,0.4,0.1,0.9-0.5,1.1c-3.9,1-7.9,2-11.7,3.2c-2.1,0.7-4.4,1-6.4,1.8c-2.5,1-5.2,1.3-7.8,2.1
		c-3.7,1.2-7.4,1.9-11.1,3.1c-2.7,0.9-5.5,1.4-8.1,2.4c-1.5,0.5-3.3,0.8-4.9,1.3c-2.8,0.8-5.5,1.5-8.3,2.4c-1.5,0.4-3,0.9-4.5,1.3
		c-0.8,0.2-1.5-0.6-1.6-1.6c-0.4-2.7-0.9-5.3-1.5-7.9c-0.3-1.2-0.3-2.5-0.6-3.7c-1.1-4.4-0.9-9-1.5-13.6C0.7,162.2,1,159.2,1,156.2z
		"/>
	<path class="st7" d="M178.3,239.2c-0.2-0.8,0.3-1,0.8-1.1c5.1-1.4,10.1-3.1,14.9-5.5c1.2-0.6,2.5-1,3.6-1.7
		c0.8-0.5,1.4-0.3,1.9,0.4c1.2,1.9,2.4,3.7,3.6,5.6c1.5,2.5,3.2,4.9,4.6,7.3c2.1,3.4,4.3,6.8,6.4,10.3c2.2,3.6,4.6,7.2,6.8,10.8
		c3.2,5,6.4,10,9.5,15c1,1.6,2,3.3,3.2,4.8c0.5,0.5,0.5,1.3-0.3,1.7c-3.7,1.9-7.3,3.8-11,5.6c-3.4,1.6-6.9,3.1-10.4,4.4
		c-2.4,0.9-4.8,1.6-7.1,2.5c-2.6,0.9-5.2,1.6-7.8,2.4c-1.8,0.5-3.7,0.9-5.5,1.3c-0.5,0.1-0.9,0.1-1-0.6c-0.4-3.6-1.5-7.1-2-10.7
		c-0.6-4.1-1.6-8.1-2.3-12.2c-0.6-3.5-1.4-7.1-2.1-10.5c-0.5-2.6-1-5.3-1.5-7.9c-0.7-3.9-1.7-7.7-2.3-11.5c-0.4-2.7-1.4-5.2-1.4-8
		C178.8,240.5,178,240,178.3,239.2z"/>
	<path class="st8" d="M309.5,136.1c0.2,1-0.7,1.1-1.2,1.1c-2.2,0-4.4,0.3-6.6,0.6c-3,0.4-6,0.4-9,1c-1.4,0.3-2.8,0.2-4.2,0.3
		c-3.6,0.1-7.2,0.6-10.7,0.9c-3.8,0.3-7.5,0.9-11.3,1.3c-1.7,0.2-3.6,0.1-5.4,0.3c-3.3,0.4-6.7,0.8-10.1,1c-2.1,0.1-4.2,0.9-6.3,0.6
		c-0.2,0-0.4,0-0.7,0c-2,0.3-2,0.3-2.2-1.7c-0.2-2-0.8-3.8-1.3-5.8c-0.7-3.1-1.7-6.1-2.7-9c-0.4-1-0.8-2.1-1.3-3.1
		c-0.4-0.8-0.3-1,0.5-1.4c3-1.4,5.9-2.8,8.9-4.3c3.3-1.6,6.6-3.2,9.9-4.8c4.3-2.1,8.6-4.1,12.8-6.2c3.7-1.9,7.4-3.7,11.1-5.5
		c3.8-1.8,7.5-3.8,11.4-5.5c1.5-0.7,3.1-1.4,4.5-2.2c0.8-0.4,1.1-0.2,1.3,0.4c0.6,1.7,1.6,3.2,2.2,4.9c0.7,2,1.5,3.9,2.2,5.8
		c0.5,1.5,1,3.1,1.5,4.6c1.3,3.2,2,6.5,2.9,9.8c1.2,4.2,2,8.6,2.8,12.9C309.2,133.4,309.3,134.8,309.5,136.1z"/>
	<path class="st9" d="M264.4,48.2c0.7,0.8,1.4,1.5,2.1,2.3c3.2,3.3,6.3,6.7,9.3,10.3c2.5,3.1,5,6.1,7.3,9.3c1.3,1.8,2.4,3.8,3.7,5.5
		c2,2.6,3.2,5.7,5.1,8.3c0.4,0.6-0.1,0.6-0.3,0.8c-1.3,1-2.9,1.5-4.3,2.2c-2.5,1.3-5,2.4-7.5,3.6c-2.7,1.3-5.5,2.6-8.1,3.9
		c-4.2,2.1-8.4,4-12.5,6.1c-3.5,1.7-7.1,3.4-10.5,5.2c-3,1.5-6.1,2.9-9.2,4.4c-2.1,1-4.2,2-6.2,3.1c-0.9,0.5-1.4,0.4-1.9-0.5
		c-2.3-3.7-4.8-7.3-7.7-10.6c-1.4-1.6-2.7-3.3-4.3-4.7c-0.6-0.5-0.5-0.9,0.1-1.5c2.7-2.8,5.4-5.6,8-8.5c3.2-3.4,6.4-6.8,9.6-10.2
		c2.8-3,5.5-5.9,8.3-8.8c3.8-4,7.5-8.1,11.3-12.2c1.7-1.9,3.6-3.7,5.4-5.5C262.9,49.8,263.4,48.8,264.4,48.2z"/>
	<path class="st10" d="M119.9,77.6c0,0.4-0.2,0.6-0.6,0.8c-3.9,1.7-7.7,3.7-11.3,6c-2,1.2-3.8,2.6-5.7,4c-0.7,0.5-1.1,0.4-1.7-0.2
		c-2-2.2-4-4.3-6-6.4c-3.8-4.1-7.6-8.3-11.5-12.4c-3.4-3.7-6.9-7.3-10.4-10.9c-4.5-4.7-9-9.4-13.3-14.2c-0.9-1-1.9-2-2.8-3
		c-0.5-0.5-0.8-0.9,0.1-1.6c2.8-2.2,5.7-4.3,8.6-6.4c4.4-3.1,9-6,13.7-8.6c3-1.7,6.1-3.1,9.1-4.6c2.1-1.1,4.4-1.9,6.7-3
		c0.7-0.3,1-0.2,1.3,0.5c0.8,1.9,1.5,3.9,2.3,5.8c1.2,3,2.4,5.8,3.6,8.8c1,2.6,2,5.1,3,7.7c1.7,4.3,3.5,8.6,5.2,12.9
		c1.1,2.8,2.1,5.6,3.2,8.4c0.7,1.6,1.3,3.3,2.1,4.9c0.5,1,0.7,2.2,1.2,3.2c1.1,2.5,2,5,3,7.5C119.8,77.2,119.9,77.4,119.9,77.6z"/>
	<path class="st11" d="M161.4,37.9c0-10.4,0-20.9,0-31.4c0-1,0.2-1.4,1.3-1.4c4.5,0.3,9,0.8,13.4,1.3c2.8,0.3,5.5,0.9,8.3,1.2
		c2.4,0.3,4.7,1.1,7.1,1.6c4.2,0.8,8.3,2.2,12.4,3.3c0.9,0.2,1.7,0.6,2.6,0.9c0.4,0.2,0.5,0.3,0.3,0.8c-2.1,5.1-4.2,10.3-6.1,15.4
		c-1,2.8-2.1,5.6-3.2,8.3c-2.8,6.7-5.2,13.4-8,20.1c-1.5,3.6-2.8,7.1-4.3,10.7c-0.7,1.7-1.3,3.4-1.9,5.1c-0.3,0.7-0.5,1-1.4,0.7
		c-2.5-0.8-5-1.4-7.5-2c-2.7-0.5-5.4-0.9-8.1-1.3c-1.1-0.2-2.1-0.2-3.2-0.3c-1-0.1-1.6-0.4-1.6-1.7c0.1-8.2,0.1-16.3,0.1-24.5
		C161.4,42.4,161.4,40.1,161.4,37.9z"/>
	<path class="st12" d="M93.4,95.5c-0.3,0.7-0.9,1.2-1.4,1.7c-1.7,1.6-3.2,3.5-4.8,5.2c-2.2,2.5-4,5.2-5.9,7.9
		c-1.3,1.8-1.3,2.1-3.3,1.1c-2.4-1.1-4.8-2.2-7.2-3.4c-2.2-1.1-4.4-2.2-6.6-3.3c-2.6-1.3-5.2-2.5-7.8-3.7c-2.6-1.2-5.2-2.4-7.7-3.7
		c-3.8-1.9-7.7-3.7-11.5-5.6c-2.3-1.1-4.7-2.2-7.1-3.3c-2.1-1-4.4-1.8-6.3-3.2c-0.9-0.6-1.9-0.9-2.8-1.3c-1.1-0.4-0.8-0.9-0.4-1.5
		c0.7-1.1,1.3-2.3,2.1-3.4c2.6-3.8,5-7.8,7.8-11.4c2.7-3.6,5.5-7,8.5-10.3c1.8-2.1,3.8-4,5.6-6c1.1-1.2,2.3-2.5,3.7-3.4
		c0.4-0.3,0.6-0.1,0.8,0.2c1.1,1.2,2.5,2.3,3.4,3.6c0.8,1.1,2,1.9,2.8,3c1.4,1.7,3,3.2,4.5,4.8c3.2,3.4,6.4,6.8,9.7,10.2
		c2.6,2.7,5,5.6,7.6,8.4c2.5,2.7,5.2,5.4,7.7,8c2.6,2.7,5.2,5.5,7.8,8.3C92.8,94.5,93.1,95,93.4,95.5z"/>
	<path class="st13" d="M310.8,155.6c0.1,5.1-0.4,9.8-0.8,14.5c-0.4,5.4-1.2,10.7-2.4,15.9c-0.4,1.7-0.5,3.5-1.1,5.2
		c-0.3,0.9-0.7,0.8-1.2,0.7c-2.7-0.8-5.4-1.9-8.2-2.5c-3.1-0.7-6.1-1.7-9.1-2.5c-4.2-1.1-8.3-2.4-12.4-3.5c-3.1-0.9-6.3-1.8-9.5-2.6
		c-2.8-0.7-5.5-1.7-8.3-2.4c-1.6-0.4-3.2-0.8-4.7-1.3c-3.6-1.1-7.3-1.8-10.8-3.1c-0.7-0.2-0.6-0.4-0.5-1c0.5-3.7,1.2-7.4,1.5-11.2
		c0.2-2.5,0.1-5,0.1-7.5c-0.1-1.1,0.3-1.4,1.4-1.4c2.8-0.2,5.7-0.8,8.6-1c1.9-0.2,3.8-0.1,5.7-0.3c3.4-0.3,6.8-0.7,10.3-1
		c3-0.2,6-0.7,9-0.9c3.6-0.2,7.1-0.8,10.7-0.9c2.1-0.1,4.2-0.3,6.3-0.6c2.8-0.4,5.7-0.4,8.6-0.9c1.9-0.3,3.9-0.2,5.8-0.4
		c0.7-0.1,0.8,0.3,0.8,0.9C310.5,150.5,311.1,153.3,310.8,155.6z"/>
	<path class="st14" d="M239.4,183.7c1.6-0.1,3.3,0.7,4.9,1.2c2.9,1,6,1.6,8.9,2.5c3.1,1,6.3,1.7,9.3,2.7c3,0.9,6,1.6,9,2.5
		c3,1,6.1,1.6,9.2,2.5c3.8,1,7.5,2.2,11.4,3.2c2.2,0.6,4.3,1.3,6.6,1.8c1.3,0.3,2.6,0.7,3.9,1.1c0.7,0.2,0.9,0.5,0.7,1.4
		c-1.6,4.5-3.3,8.9-5.2,13.3c-1.7,4.2-3.8,8.1-6,12.1c-2.6,4.5-5.4,9-8.4,13.2c-0.3,0.4-0.5,0.5-1.1,0.1c-3.6-2.8-7.3-5.5-11-8.1
		c-4-2.9-8-5.8-12-8.8c-3.6-2.6-7.2-5.2-10.7-7.9c-4.3-3.2-8.7-6.3-13-9.5c-1.9-1.4-3.8-2.8-5.7-4.2c-0.9-0.7-0.5-1.4-0.1-2
		c1.8-2.5,3.2-5.2,4.6-8c1.4-2.7,2.6-5.5,3.6-8.4C238.4,184,238.5,183.4,239.4,183.7z"/>
</g>
</svg>
