<?xml version="1.0" encoding="utf-8"?>
<!-- Generator: Adobe Illustrator 22.0.1, SVG Export Plug-In . SVG Version: 6.00 Build 0)  -->
<svg version="1.1" id="Capa_1" xmlns="http://www.w3.org/2000/svg" xmlns:xlink="http://www.w3.org/1999/xlink" x="0px" y="0px"
	 viewBox="0 0 208.7 209.1" style="enable-background:new 0 0 208.7 209.1;" xml:space="preserve">
<style type="text/css">
	.st0{fill:#EF7B4F;}
</style>
<g>
	<rect x="103.1" y="113.4" class="st0" width="4.9" height="7.2"/>
	<rect x="94.7" y="61.5" class="st0" width="4.9" height="7.2"/>
	<rect x="94.7" y="82.2" class="st0" width="4.9" height="7.2"/>
	<rect x="119.9" y="123.7" class="st0" width="4.9" height="7.2"/>
	<rect x="119.9" y="92.6" class="st0" width="4.9" height="7.2"/>
	<rect x="119.9" y="71.8" class="st0" width="4.9" height="7.2"/>
	<rect x="119.9" y="103" class="st0" width="4.9" height="7.2"/>
	<rect x="119.9" y="82.2" class="st0" width="4.9" height="7.2"/>
	<rect x="119.9" y="61.5" class="st0" width="4.9" height="7.2"/>
	<rect x="103.1" y="82.2" class="st0" width="4.9" height="7.2"/>
	<rect x="103.1" y="61.5" class="st0" width="4.9" height="7.2"/>
	<rect x="103.1" y="92.6" class="st0" width="4.9" height="7.2"/>
	<rect x="103.1" y="103" class="st0" width="4.9" height="7.2"/>
	<rect x="94.7" y="123.7" class="st0" width="4.9" height="7.2"/>
	<rect x="94.7" y="103" class="st0" width="4.9" height="7.2"/>
	<rect x="94.7" y="113.4" class="st0" width="4.9" height="7.2"/>
	<rect x="92" y="138.6" class="st0" width="27.2" height="13.8"/>
	<rect x="103.1" y="71.8" class="st0" width="4.9" height="7.2"/>
	<rect x="94.7" y="71.8" class="st0" width="4.9" height="7.2"/>
	<rect x="156.2" y="123.7" class="st0" width="4.9" height="7.2"/>
	<rect x="156.2" y="134.1" class="st0" width="4.9" height="7.2"/>
	<rect x="164.6" y="102.9" class="st0" width="4.9" height="7.2"/>
	<rect x="156.2" y="113.3" class="st0" width="4.9" height="7.2"/>
	<rect x="164.6" y="123.7" class="st0" width="4.9" height="7.2"/>
	<path class="st0" d="M36.6,152.5V73.7h19V55.2h1.8v18.5h19v78.8h5.1V52.8h48.1v99.7h5.1V94.4h39.8v58.1h17.1
		c7.8-14.2,12.3-30.5,12.3-47.9c0-55-44.6-99.6-99.6-99.6S4.7,49.6,4.7,104.6c0,17.4,4.5,33.7,12.3,47.9H36.6z"/>
	<rect x="156.2" y="102.9" class="st0" width="4.9" height="7.2"/>
	<rect x="164.6" y="113.3" class="st0" width="4.9" height="7.2"/>
	<rect x="164.6" y="134.1" class="st0" width="4.9" height="7.2"/>
	<rect x="139.4" y="123.7" class="st0" width="4.9" height="7.2"/>
	<rect x="139.4" y="113.3" class="st0" width="4.9" height="7.2"/>
	<rect x="139.4" y="134.1" class="st0" width="4.9" height="7.2"/>
	<rect x="139.4" y="102.9" class="st0" width="4.9" height="7.2"/>
	<rect x="119.9" y="113.4" class="st0" width="4.9" height="7.2"/>
	<rect x="147.8" y="102.9" class="st0" width="4.9" height="7.2"/>
	<rect x="147.8" y="134.1" class="st0" width="4.9" height="7.2"/>
	<rect x="147.8" y="123.7" class="st0" width="4.9" height="7.2"/>
	<rect x="147.8" y="113.3" class="st0" width="4.9" height="7.2"/>
	<rect x="94.7" y="92.6" class="st0" width="4.9" height="7.2"/>
	<rect x="58.3" y="103" class="st0" width="4.9" height="7.2"/>
	<rect x="58.3" y="92.6" class="st0" width="4.9" height="7.2"/>
	<rect x="49.9" y="123.7" class="st0" width="4.9" height="7.2"/>
	<rect x="58.3" y="82.2" class="st0" width="4.9" height="7.2"/>
	<rect x="47.7" y="135.6" class="st0" width="17.7" height="16.8"/>
	<rect x="49.9" y="82.2" class="st0" width="4.9" height="7.2"/>
	<rect x="49.9" y="113.4" class="st0" width="4.9" height="7.2"/>
	<rect x="49.9" y="92.6" class="st0" width="4.9" height="7.2"/>
	<rect x="49.9" y="103" class="st0" width="4.9" height="7.2"/>
	<rect x="41.5" y="103" class="st0" width="4.9" height="7.2"/>
	<rect x="41.5" y="82.2" class="st0" width="4.9" height="7.2"/>
	<rect x="41.5" y="92.6" class="st0" width="4.9" height="7.2"/>
	<rect x="66.7" y="82.2" class="st0" width="4.9" height="7.2"/>
	<rect x="58.3" y="113.4" class="st0" width="4.9" height="7.2"/>
	<path class="st0" d="M20.3,158.4c17.7,27.5,48.6,45.8,83.8,45.8s66.1-18.2,83.8-45.8H20.3z"/>
	<rect x="58.3" y="123.7" class="st0" width="4.9" height="7.2"/>
	<rect x="103.1" y="123.7" class="st0" width="4.9" height="7.2"/>
	<rect x="41.5" y="123.7" class="st0" width="4.9" height="7.2"/>
	<rect x="41.5" y="113.4" class="st0" width="4.9" height="7.2"/>
	<rect x="111.5" y="113.4" class="st0" width="4.9" height="7.2"/>
	<rect x="111.5" y="123.7" class="st0" width="4.9" height="7.2"/>
	<rect x="86.3" y="113.4" class="st0" width="4.9" height="7.2"/>
	<rect x="111.5" y="103" class="st0" width="4.9" height="7.2"/>
	<rect x="111.5" y="61.5" class="st0" width="4.9" height="7.2"/>
	<rect x="111.5" y="92.6" class="st0" width="4.9" height="7.2"/>
	<rect x="86.3" y="123.7" class="st0" width="4.9" height="7.2"/>
	<rect x="111.5" y="71.8" class="st0" width="4.9" height="7.2"/>
	<rect x="111.5" y="82.2" class="st0" width="4.9" height="7.2"/>
	<rect x="66.7" y="113.4" class="st0" width="4.9" height="7.2"/>
	<rect x="66.7" y="123.7" class="st0" width="4.9" height="7.2"/>
	<rect x="66.7" y="92.6" class="st0" width="4.9" height="7.2"/>
	<rect x="66.7" y="103" class="st0" width="4.9" height="7.2"/>
	<rect x="86.3" y="61.5" class="st0" width="4.9" height="7.2"/>
	<rect x="86.3" y="92.6" class="st0" width="4.9" height="7.2"/>
	<rect x="86.3" y="71.8" class="st0" width="4.9" height="7.2"/>
	<rect x="86.3" y="103" class="st0" width="4.9" height="7.2"/>
	<rect x="86.3" y="82.2" class="st0" width="4.9" height="7.2"/>
</g>
</svg>
