<?xml version="1.0" encoding="utf-8"?>
<!-- Generator: Adobe Illustrator 22.0.0, SVG Export Plug-In . SVG Version: 6.00 Build 0)  -->
<svg version="1.1" id="Capa_1" xmlns="http://www.w3.org/2000/svg" xmlns:xlink="http://www.w3.org/1999/xlink" x="0px" y="0px"
	 viewBox="0 0 231.9 217.6" style="enable-background:new 0 0 231.9 217.6;" xml:space="preserve">
<style type="text/css">
	.st0{fill:#EF7B4F;}
	.st1{fill:none;stroke:#EF7B4F;stroke-width:2;stroke-miterlimit:10;}
</style>
<g>
	<rect x="120.2" y="135.3" class="st0" width="4.9" height="7.2"/>
	<rect x="111.8" y="83.4" class="st0" width="4.9" height="7.2"/>
	<rect x="111.8" y="104.2" class="st0" width="4.9" height="7.2"/>
	<rect x="137" y="145.6" class="st0" width="4.9" height="7.2"/>
	<rect x="137" y="114.5" class="st0" width="4.9" height="7.2"/>
	<rect x="137" y="93.8" class="st0" width="4.9" height="7.2"/>
	<rect x="137" y="124.9" class="st0" width="4.9" height="7.2"/>
	<rect x="137" y="104.2" class="st0" width="4.9" height="7.2"/>
	<rect x="137" y="83.4" class="st0" width="4.9" height="7.2"/>
	<rect x="120.2" y="104.2" class="st0" width="4.9" height="7.2"/>
	<rect x="120.2" y="83.4" class="st0" width="4.9" height="7.2"/>
	<rect x="120.2" y="114.5" class="st0" width="4.9" height="7.2"/>
	<rect x="120.2" y="124.9" class="st0" width="4.9" height="7.2"/>
	<rect x="111.8" y="145.6" class="st0" width="4.9" height="7.2"/>
	<rect x="111.8" y="124.9" class="st0" width="4.9" height="7.2"/>
	<rect x="111.8" y="135.3" class="st0" width="4.9" height="7.2"/>
	<rect x="109.1" y="160.6" class="st0" width="27.2" height="13.8"/>
	<rect x="120.2" y="93.8" class="st0" width="4.9" height="7.2"/>
	<rect x="111.8" y="93.8" class="st0" width="4.9" height="7.2"/>
	<rect x="173.3" y="145.6" class="st0" width="4.9" height="7.2"/>
	<rect x="173.3" y="156" class="st0" width="4.9" height="7.2"/>
	<rect x="181.7" y="124.8" class="st0" width="4.9" height="7.2"/>
	<rect x="173.3" y="135.2" class="st0" width="4.9" height="7.2"/>
	<rect x="181.7" y="145.6" class="st0" width="4.9" height="7.2"/>
	<polyline class="st1" points="33.9,174.4 53.7,174.4 53.7,95.6 72.7,95.6 72.7,77.1 74.5,77.1 74.5,95.6 93.5,95.6 93.5,174.4 
		98.5,174.4 98.5,74.8 146.6,74.8 146.6,174.4 151.7,174.4 151.7,116.3 191.4,116.3 191.4,174.4 208.5,174.4 	"/>
	<rect x="173.3" y="124.8" class="st0" width="4.9" height="7.2"/>
	<rect x="181.7" y="135.2" class="st0" width="4.9" height="7.2"/>
	<rect x="181.7" y="156" class="st0" width="4.9" height="7.2"/>
	<rect x="156.5" y="145.6" class="st0" width="4.9" height="7.2"/>
	<rect x="156.5" y="135.2" class="st0" width="4.9" height="7.2"/>
	<rect x="156.5" y="156" class="st0" width="4.9" height="7.2"/>
	<rect x="156.5" y="124.8" class="st0" width="4.9" height="7.2"/>
	<rect x="137" y="135.3" class="st0" width="4.9" height="7.2"/>
	<rect x="164.9" y="124.8" class="st0" width="4.9" height="7.2"/>
	<rect x="164.9" y="156" class="st0" width="4.9" height="7.2"/>
	<rect x="164.9" y="145.6" class="st0" width="4.9" height="7.2"/>
	<rect x="164.9" y="135.2" class="st0" width="4.9" height="7.2"/>
	<rect x="111.8" y="114.5" class="st0" width="4.9" height="7.2"/>
	<rect x="75.3" y="124.9" class="st0" width="4.9" height="7.2"/>
	<rect x="75.3" y="114.5" class="st0" width="4.9" height="7.2"/>
	<rect x="66.9" y="145.6" class="st0" width="4.9" height="7.2"/>
	<rect x="75.3" y="104.2" class="st0" width="4.9" height="7.2"/>
	<rect x="64.8" y="157.7" class="st0" width="17.7" height="16.8"/>
	<rect x="66.9" y="104.2" class="st0" width="4.9" height="7.2"/>
	<rect x="66.9" y="135.3" class="st0" width="4.9" height="7.2"/>
	<rect x="66.9" y="114.5" class="st0" width="4.9" height="7.2"/>
	<rect x="66.9" y="124.9" class="st0" width="4.9" height="7.2"/>
	<rect x="58.5" y="124.9" class="st0" width="4.9" height="7.2"/>
	<rect x="58.5" y="104.2" class="st0" width="4.9" height="7.2"/>
	<rect x="58.5" y="114.5" class="st0" width="4.9" height="7.2"/>
	<rect x="83.7" y="104.2" class="st0" width="4.9" height="7.2"/>
	<rect x="75.3" y="135.3" class="st0" width="4.9" height="7.2"/>
	<rect x="75.3" y="145.6" class="st0" width="4.9" height="7.2"/>
	<rect x="120.2" y="145.6" class="st0" width="4.9" height="7.2"/>
	<rect x="58.5" y="145.6" class="st0" width="4.9" height="7.2"/>
	<rect x="58.5" y="135.3" class="st0" width="4.9" height="7.2"/>
	<rect x="128.6" y="135.3" class="st0" width="4.9" height="7.2"/>
	<rect x="128.6" y="145.6" class="st0" width="4.9" height="7.2"/>
	<rect x="103.4" y="135.3" class="st0" width="4.9" height="7.2"/>
	<rect x="128.6" y="124.9" class="st0" width="4.9" height="7.2"/>
	<rect x="128.6" y="83.4" class="st0" width="4.9" height="7.2"/>
	<rect x="128.6" y="114.5" class="st0" width="4.9" height="7.2"/>
	<rect x="103.4" y="145.6" class="st0" width="4.9" height="7.2"/>
	<rect x="128.6" y="93.8" class="st0" width="4.9" height="7.2"/>
	<rect x="128.6" y="104.2" class="st0" width="4.9" height="7.2"/>
	<rect x="83.7" y="135.3" class="st0" width="4.9" height="7.2"/>
	<rect x="83.7" y="145.6" class="st0" width="4.9" height="7.2"/>
	<rect x="83.7" y="114.5" class="st0" width="4.9" height="7.2"/>
	<rect x="83.7" y="124.9" class="st0" width="4.9" height="7.2"/>
	<rect x="103.4" y="83.4" class="st0" width="4.9" height="7.2"/>
	<rect x="103.4" y="114.5" class="st0" width="4.9" height="7.2"/>
	<rect x="103.4" y="93.8" class="st0" width="4.9" height="7.2"/>
	<rect x="103.4" y="124.9" class="st0" width="4.9" height="7.2"/>
	<rect x="103.4" y="104.2" class="st0" width="4.9" height="7.2"/>
</g>
</svg>
