<?xml version="1.0" encoding="utf-8"?>
<!-- Generator: Adobe Illustrator 22.0.0, SVG Export Plug-In . SVG Version: 6.00 Build 0)  -->
<svg version="1.1" id="Capa_1" xmlns="http://www.w3.org/2000/svg" xmlns:xlink="http://www.w3.org/1999/xlink" x="0px" y="0px"
	 viewBox="0 0 280.5 235.1" style="enable-background:new 0 0 280.5 235.1;" xml:space="preserve">
<style type="text/css">
	.st0{fill-rule:evenodd;clip-rule:evenodd;fill:#EF7B4F;}
</style>
<g>
	<polygon class="st0" points="135.2,128.2 125,118.1 118.7,124.4 128.8,134.6 135.2,140.9 141.5,134.6 161.9,114.1 155.6,107.8 	"/>
	<path class="st0" d="M140.6,17.6c-55-0.2-100.2,45.2-100.4,99.7c-0.2,54.8,45.1,100.8,99.9,100.3c54.8,0.7,99.9-45,100.2-99.3
		C240.6,63.3,195.3,17.8,140.6,17.6z M190.6,180.7c-1,0-1.7,0-2.4,0c-32.2,0-64.5,0-96.7,0c-2.1,0-2.7-0.6-2.6-2.7
		c0.1-37.4,0-74.9,0-112.3c0-0.8,0-1.6,0-2.6c1,0,1.8,0,2.5,0c3.5,0,7,0,10.5,0h1.6c3.6,0,7.2,0,10.7,0c0.3,0,0.5,0,0.7,0h2.5v-6.7
		c3.8,0,7.5,0,11.3,0c-2-6.5-1.1-12,4.6-15.8c3.9-2.6,9.3-2.4,13.1,0.3c4.7,3.2,6,7.9,4.2,15.6c2.1,0,4,0,6,0c1.9,0,3.9,0,6.2,0v6.6
		h1.5c0.2,0,0.5,0,0.8,0c3.2,0,6.5,0,9.7,0h3.9c3.1,0,6.3,0,9.4,0c0.8,0,1.5,0,2.4,0C190.6,102.4,190.6,141.4,190.6,180.7z"/>
	<path class="st0" d="M163,70.4v5.2c-15.2,0-30.3,0-45.6,0v-5.2h-13.3h-7.5v7.5v88v7.5h7.5h49.6c9,0,18.1,0,27.1,0
		c0.1,0,0.3,0,0.4,0h2.5v-7.5v-88v-7.5h-7.5H163z M140.2,156.4c-19.4,0-35.1-15.7-35.1-35.1c0-19.6,15.5-35.2,35.2-35.2
		c19.5,0,35,15.6,35,35.1C175.3,140.7,159.6,156.4,140.2,156.4z"/>
	<path class="st0" d="M139.8,56.9c3.4,0,6.2-2.8,6.2-6.2c0-3.5-2.8-6.2-6.2-6.2c-3.5,0-6.2,2.8-6.2,6.2
		C133.6,54.1,136.4,56.9,139.8,56.9z"/>
</g>
</svg>
