<?xml version="1.0" encoding="utf-8"?>
<!-- Generator: Adobe Illustrator 22.0.1, SVG Export Plug-In . SVG Version: 6.00 Build 0)  -->
<svg version="1.1" id="Capa_1" xmlns="http://www.w3.org/2000/svg" xmlns:xlink="http://www.w3.org/1999/xlink" x="0px" y="0px"
	 viewBox="0 0 211.3 205.5" style="enable-background:new 0 0 211.3 205.5;" xml:space="preserve">
<style type="text/css">
	.st0{fill:#EF7B4F;}
</style>
<g>
	<polygon class="st0" points="100.6,113.3 90.4,103.2 84.1,109.5 94.2,119.7 100.6,126 106.9,119.7 127.3,99.2 121,92.9 	"/>
	<path class="st0" d="M106,2.7C51,2.5,5.8,47.9,5.6,102.4c-0.2,54.8,45.1,100.8,99.9,100.3c54.8,0.7,99.9-45,100.2-99.3
		C206,48.4,160.7,2.9,106,2.7z M156,165.8c-1,0-1.7,0-2.4,0c-32.2,0-64.5,0-96.7,0c-2.1,0-2.7-0.6-2.6-2.7c0.1-37.4,0-74.9,0-112.3
		c0-0.8,0-1.6,0-2.6c1,0,1.8,0,2.5,0c3.5,0,7,0,10.5,0h1.6c3.6,0,7.2,0,10.7,0c0.3,0,0.5,0,0.7,0h2.5v-6.7c3.8,0,7.5,0,11.3,0
		c-2-6.5-1.1-12,4.6-15.8c3.9-2.6,9.3-2.4,13.1,0.3c4.7,3.2,6,7.9,4.2,15.6c2.1,0,4,0,6,0c1.9,0,3.9,0,6.2,0v6.6h1.5
		c0.2,0,0.5,0,0.8,0c3.2,0,6.5,0,9.7,0h3.9c3.1,0,6.3,0,9.4,0c0.8,0,1.5,0,2.4,0C156,87.5,156,126.5,156,165.8z"/>
	<path class="st0" d="M128.4,55.5v5.2c-15.2,0-30.3,0-45.6,0v-5.2H69.5H62V63v88v7.5h7.5h49.6c9,0,18.1,0,27.1,0c0.1,0,0.3,0,0.4,0
		h2.5V151V63v-7.5h-7.5C141.6,55.5,128.4,55.5,128.4,55.5z M105.6,141.5c-19.4,0-35.1-15.7-35.1-35.1c0-19.6,15.5-35.2,35.2-35.2
		c19.5,0,35,15.6,35,35.1S125,141.5,105.6,141.5z"/>
	<path class="st0" d="M105.2,42c3.4,0,6.2-2.8,6.2-6.2c0-3.5-2.8-6.2-6.2-6.2c-3.5,0-6.2,2.8-6.2,6.2C99,39.2,101.8,42,105.2,42z"/>
</g>
</svg>
