<?xml version="1.0" encoding="utf-8"?>
<!-- Generator: Adobe Illustrator 22.0.1, SVG Export Plug-In . SVG Version: 6.00 Build 0)  -->
<svg version="1.1" id="Capa_1" xmlns="http://www.w3.org/2000/svg" xmlns:xlink="http://www.w3.org/1999/xlink" x="0px" y="0px"
	 viewBox="0 0 211.9 204.9" style="enable-background:new 0 0 211.9 204.9;" xml:space="preserve">
<style type="text/css">
	.st0{fill:#EF7B4F;}
	.st1{fill:#FFFFFF;}
	.st2{fill:none;stroke:#EF7B4F;stroke-width:3;stroke-miterlimit:10;}
</style>
<g>
	<ellipse class="st0" cx="105.9" cy="102.4" rx="99.9" ry="99.9"/>
	<g>
		<path class="st1" d="M156.3,94.6c0,27.6-22.4,50-50,50s-50-22.4-50-50s22.4-50,50-50C133.9,44.5,156.3,66.9,156.3,94.6z"/>
		<path class="st2" d="M106.3,146.8V42.7c0,0-26.2,15.4-26.2,52C80.1,131.4,106.3,146.8,106.3,146.8z"/>
		<path class="st2" d="M106.3,147V42.9c0,0,26.2,15.4,26.2,52C132.5,131.6,106.3,147,106.3,147z"/>
		<path class="st2" d="M51.4,42.9h109.2c0,0-16.1,27.5-54.6,27.5S51.4,42.9,51.4,42.9z"/>
		<path class="st2" d="M161.1,146.3H51.9c0,0,16.1-27.5,54.6-27.5S161.1,146.3,161.1,146.3z"/>
		<line class="st2" x1="156.8" y1="94.9" x2="55.8" y2="94.9"/>
	</g>
	<g>
		<path class="st1" d="M132.2,156c-4.8-2-9.4-4.4-14.8-4.8c-3.2-0.2-6.4-0.1-9.5,0.7c-0.9,0.2-1.7,0.6-2.7,0.3
			c-4.2-1.3-8.4-1.3-12.7-0.4c-4.8,1.1-9.2,3.1-13.7,5.1c-4.7,2-9.5,2.4-14.4,1.1c-1.7-0.4-3.2-1.2-5-2c5.6,6.1,14.3,9.2,22.8,6.3
			c3.8-1.3,7-3.5,10.2-5.7c1.4-1,2.7-1.9,4.3-2.6c2.1-1,4.6-1.1,6.1-0.3c-1.1,0.6-2.1,1.1-3.1,1.7c-4.8,2.6-9.1,6-13.1,9.8
			c-0.4,0.4-0.4,0.6,0.1,1c0.8,0.7,1.8,1.2,2.4,2.2c0.1,0,0.2,0,0.3,0c1.5-2.2,3.4-4.1,5.4-6c2.9-2.7,6.1-5,9.5-7
			c1.3-0.7,2.4-0.9,3.7-0.1c5,2.9,9.2,6.7,13.2,10.8c2.2,2.2,2.2,2.2,4.4-0.1c0.5-0.5,0.6-0.8,0-1.3c-3.3-3-6.7-5.7-10.5-8
			c-1.8-1.1-3.7-1.9-5.6-3.1c3.1-0.7,5.7-0.4,8.2,1.3c3.3,2.2,6.4,4.7,10.2,6.2c7.3,3,14.3,2.5,20.8-1.9c2-1.4,2.9-2.2,3.5-3.5
			c-2.8,1.6-5.7,2.4-8.9,2.6C139.4,158.5,135.8,157.5,132.2,156z"/>
		<path class="st1" d="M39,125.3c3.4,3,7.1,5.4,10.8,7.8c1.4,0.9,2.7,1.7,4.1,2.6c-0.2-1-0.6-1.9-1-2.7c-0.5-1.1-1-2.2-1.2-3.3
			c-0.7-3.2-1-6.5-1.3-9.8c-0.5-5.6-0.9-11.3-3.1-16.6c-0.1-0.1-0.2-0.1-0.3,0c0.1,1.8-0.1,3.6-0.4,5.4c-0.5,2.6-1.1,5.2-1.4,7.8
			c-0.3,3.8,0.5,7.3,2,10.7c0,0.2,0.1,0.3,0.2,0.5c-0.2,0-0.3-0.1-0.4-0.2c-1.5-1.9-2.6-4.1-4.3-5.9c-2.5-2.7-5-5.3-7.5-8
			c-2-2.3-3.8-4.7-4.5-7.8c-0.3-0.2-0.3,0.1-0.5,0.2c0,0.5,0,1,0,1.5c0.2,0.5,0.2,1,0,1.5c0,0.4,0,0.8,0,1.3c0.4,0.2,0.3,0.7,0.4,1
			C31.7,117,34.7,121.6,39,125.3z"/>
		<path class="st1" d="M181.6,104.3c-0.1-0.2,0.2-0.6-0.3-0.5c-0.5,3-1.9,5.5-3.8,7.8c-1.8,2.4-4,4.4-6.1,6.5
			c-2.4,2.5-4.2,5.5-6.3,8.3c-0.3,0.1-0.4,0.3-0.5,0.4c0-0.1,0.1-0.4,0.2-0.7c2.1-4.3,2.5-8.8,1.5-13.5c-0.5-2.5-1-5.1-1.3-7.7
			c-0.2-0.5,0-1-0.1-1.4c-0.1-0.3,0.3-0.8-0.3-0.8c-0.5,1.3-1,2.6-1.3,3.9c-1.2,4.8-1.2,9.8-1.7,14.7c-0.5,4.6-1.1,9.1-3.4,13.2
			c0.4,0.2,0.6,0,0.9-0.1c3.5-2.3,7-4.6,10.4-7.1c4.8-3.5,8.6-7.8,10.9-13.4c0.6-1.6,0.8-3.4,1.5-5c0-0.9,0-1.8,0-2.8
			C181.4,105.6,181.6,105,181.6,104.3z"/>
		<path class="st1" d="M35,108.1c2.5,3.4,5.5,6.4,7.6,10c0,0.1,0.2,0.1,0.4,0.1c-0.8-4.2-0.1-8.1,1.2-12.1
			c1.8-5.6,3.2-11.4,3.6-17.3c0.2-0.8,0.1-1.5,0.1-2.3c0-0.3,0.2-0.7-0.4-0.7C47,88,46,90,44.8,91.8c-3.2,4.9-5.6,10-5.1,16.1
			c0.2,0.4-0.1,0.8,0.1,1.2c0,0.2,0.1,0.3,0.1,0.5c0,0.1,0.1,0.2,0,0.3c0-0.1,0-0.2,0-0.4c-0.1-0.4-0.2-0.8-0.5-1.1
			c-0.9-5.4-3-10.4-5.2-15.3c-1.4-3.1-2.3-6.4-2.1-9.9c0.1-0.3,0.2-0.5-0.3-0.5c-0.5,2-1,4-1.5,6c0,0.6,0,1.2,0,1.8c0.2,1,0.2,2,0,3
			c0,0.6,0,1.2,0,1.8c0.5,0.4,0.4,1.1,0.5,1.6C31.5,101,32.5,104.8,35,108.1z"/>
		<path class="st1" d="M176.2,124.2c-1.4,2.8-3.5,5-6.1,6.8c-2.7,1.9-5.6,3.3-8.6,4.8c-3.6,1.8-7,3.8-10,6.5c-0.5,0.4-1,1-1.9,1
			c3.6-3.3,6.2-7,7.2-11.7c1-4.6,1.1-9.4,2.8-13.9c-0.5,0-0.6,0.3-0.8,0.5c-3.1,3.9-5.8,8.2-7.3,13c-0.9,2.8-1.8,5.5-2.9,8.2
			c-1.3,2.9-2.9,5.6-5.3,7.9c1.9-0.4,3.6-0.9,5.4-1.2c2.9-0.6,5.9-1,8.7-1.9c4.6-1.6,8.5-4.2,11.9-7.6c3.3-3.4,6-7.3,6.9-12.1
			C176.5,124.2,176.4,124.1,176.2,124.2z"/>
		<path class="st1" d="M63.3,146.6c1.7,0.3,3.3,0.7,5,1c-1.2-1.5-2.4-2.9-3.4-4.5c-1.7-2.8-2.8-5.8-3.8-8.9c-1.6-5.1-4-9.9-7.4-14.1
			c-0.4-0.5-0.7-1.1-1.6-1.6c1.5,3.8,1.8,7.6,2.4,11.3c0.8,5.1,2.8,9.6,6.8,13c0.2,0.2,0.5,0.3,0.3,0.7c-1.4-0.6-2.5-1.7-3.7-2.6
			c-3.6-2.7-7.7-4.4-11.7-6.5c-2.9-1.5-5.6-3.1-7.8-5.4c-1-1.1-1.8-2.4-2.7-3.6c-0.2,0.3-0.1,0.5,0,0.8c0.8,2.8,2.1,5.4,3.9,7.7
			c3.5,4.6,7.7,8.2,13.1,10.3C56.1,145.6,59.8,146,63.3,146.6z"/>
		<path class="st1" d="M164.4,143.2c-0.1,0.1-0.3,0.2-0.4,0.3c-2.9,2.8-6.5,4-10.3,4.6c-6.1,1-12.4,1-18.5,2.3c-0.3,0-0.8,0.5-1-0.2
			c0.4-0.1,0.8-0.2,1.2-0.4c3.4-1,6.1-2.8,8.1-5.8c2.1-3.3,3.3-7.1,5.5-10.5c-0.7,0-1,0.4-1.4,0.7c-3.8,2.9-7.1,6.3-10.4,9.7
			c-2.9,3-6.2,5.3-10.3,6.3c-1,0.3-1.9,0.5-2.9,0.8c4,0.8,7.9,1.8,11.8,2.7c3.1,0.7,6.3,1.2,9.5,1.1c7.1-0.3,12.8-3.5,17.5-8.8
			c0.7-0.8,1.4-1.7,1.9-2.8C164.6,143.2,164.5,143.2,164.4,143.2z"/>
		<path class="st1" d="M70.9,155.1c5.8-0.6,11.3-2.8,17.1-3.9c-0.5-0.1-1-0.3-1.6-0.4c-3.7-1-7.1-2.4-9.9-5c-2.2-2-4.3-4.1-6.5-6.2
			c-2.2-2.1-4.5-4-7.1-5.6c2.1,3.3,3.5,7.1,5.6,10.3c1.8,2.7,4.2,4.6,7.4,5.6c0.8,0.2,1.6,0.3,2.3,0.8c-0.6,0-1.2,0-1.8-0.1
			c-1.9-0.3-3.7-0.7-5.6-0.9c-3.7-0.4-7.4-0.6-11-1c-4.4-0.5-8.5-1.6-11.9-4.6c-0.1-0.1-0.3-0.1-0.4,0c0,0.1,0,0.2,0.1,0.2
			c0.1,0.1,0.1,0.2,0.2,0.3C53.6,152.7,61.3,156.1,70.9,155.1z"/>
		<path class="st1" d="M177.5,92.5c-2.1,4.7-4,9.4-4.9,14.4c-0.1,0-0.2,0.5-0.2,0.1c-0.2-1.6,0.1-3.2-0.2-4.9
			c-0.5-3.3-2.1-6.1-3.8-8.8c-1.6-2.6-3.2-5.2-4.4-8.1c-0.3,2.3,0.1,4.6,0.5,6.9c0.9,5.2,2.3,10.3,4,15.3c0.9,2.6,1,5.3,0.7,8
			c-0.1,0.6-0.1,1.2-0.1,1.8c2.2-3,4.6-5.8,6.8-8.7c0.8-1.1,1.7-2.2,2.3-3.4c1.8-3.6,2.8-7.5,3.1-11.5c0.3-3.8,0-7.6-1.4-11.3
			c-0.5,0-0.3,0.4-0.4,0.6c-0.1,0.8,0.1,1.6-0.1,2.4C179.1,87.8,178.5,90.2,177.5,92.5z"/>
		<path class="st1" d="M172.6,74.7c-0.4,4.4-0.3,8.7,0,13.1c0,0.3,0.5,0.7-0.2,0.8c-0.2-1.2-0.4-2.4-0.8-3.5
			c-1.2-3.6-3.8-6.1-6.5-8.5c-2-1.8-4.2-3.5-5.6-5.9c-0.2-0.1-0.3,0-0.3,0.3c0.9,4.3,2.7,8.2,5.3,11.7c3.4,4.6,7.3,8.9,8.5,14.9
			c0.6-2.9,1.4-5.8,2.4-8.6c0.5-1.4,1.1-2.8,1.5-4.3c2-8,0.5-15.4-4.4-22c-0.4-0.5-0.4-0.5-1.1-0.9c1.3,2.6,1.7,5.2,1.7,8
			C173.1,71.4,172.8,73.1,172.6,74.7z"/>
		<path class="st1" d="M38.9,98.3c0.4-0.9,0.6-1.8,0.9-2.6c1.2-3.2,3.1-6,5-8.8c2.1-3.1,4.5-6,5.8-9.6c0.7-1.8,1.3-3.6,1.3-5.5
			c-1.9,2.7-4.5,4.5-6.7,6.8c-2.9,3-5.2,6.3-5.8,10.5c-0.1,0.1-0.2,0.3-0.2,0.4s0,0.2,0,0.2c0,0.2,0,0.2,0,0.3l0,0l0,0
			c0,0,0,0,0-0.1s0-0.2,0.1-0.4c0-0.4-0.3-0.9,0-1.5c0-0.8-0.1-1.7,0.1-2.5c0.4-2.6,0.1-5.1-0.1-7.7c-0.2-2-0.6-4-0.7-6
			c-0.2-2.8-0.2-5.7,1.2-8.7c-1.1,0.7-1.4,1.5-1.9,2.2c-3.4,5.2-4.5,10.9-3.6,17.1C35,88,38.2,92.8,38.9,98.3z"/>
		<path class="st1" d="M163.9,57.8c1.2,4.2,2.1,8.4,3.4,12.6c0,0.2,0.1,0.4,0,0.5c0-0.1-0.1-0.2-0.2-0.3c-1.5-2.3-3.4-4.2-5.7-5.8
			c-1.9-1.4-3.9-2.7-5.8-4.3c-1.2-1-2.1-2.4-3.2-3.8c0.8,5.2,3.4,9.1,7.3,12.2c3.8,3,7.9,5.8,10.6,10.1c0.2-0.3,0.2-0.6,0-0.9
			c-0.1-3.1-0.1-6.1,0.1-9.2c0.3-4.9-0.7-9.3-4-13.1c-1.8-2.1-4-3.7-7.2-4.5C161.7,53.2,163.2,55.3,163.9,57.8z"/>
		<path class="st1" d="M41.2,79.9c0,0,0.1,0.1,0.2,0.1c1.6-2.8,3.8-5.1,6.3-7.1c2.5-1.9,4.9-3.8,6.9-6.3s3.5-5.2,4-8.4
			c0-0.3,0.4-0.7-0.3-0.8c-1.2,2.5-3.2,4.2-5.4,5.9c-2.5,1.8-5.2,3.5-7.1,6c-0.8,1-1.5,2.1-2.2,3.2c0.3-1.5,0.8-2.9,1.2-4.4
			c0.6-2.4,1.2-4.8,1.7-7.2c0.7-3.2,1.9-6.1,4.3-8.4c-0.4,0-0.7,0.1-1,0.3c-0.3,0.1-0.5,0.2-0.8,0.4c-5.2,3-7.9,7.4-8.2,13.4
			C40.7,71.1,41.5,75.5,41.2,79.9z"/>
		<path class="st1" d="M146.9,46.6c0.9,0.9,1.9,1.8,2.6,2.9c2.7,4.2,5.9,7.8,9.6,11.1c1.3,1.2,2.5,2.3,4,3.2
			c-1.7-10.5-7.8-16.8-18.2-19.1C145.6,45.3,146.3,45.9,146.9,46.6z"/>
		<path class="st1" d="M48.5,64.3c2.8-2.4,5.8-4.5,8-7.4c3-3.9,5.5-8,9-11.5c-9.7,3.6-14.2,5.5-17.6,18.9
			C48.2,64.4,48.4,64.4,48.5,64.3z"/>
	</g>
</g>
</svg>
