<?xml version="1.0" encoding="utf-8"?>
<!-- Generator: Adobe Illustrator 22.0.1, SVG Export Plug-In . SVG Version: 6.00 Build 0)  -->
<svg version="1.1" id="Capa_1" xmlns="http://www.w3.org/2000/svg" xmlns:xlink="http://www.w3.org/1999/xlink" x="0px" y="0px"
	 viewBox="0 0 136.4 130.5" style="enable-background:new 0 0 136.4 130.5;" xml:space="preserve">
<style type="text/css">
	.st0{fill:#EF7B4F;}
</style>
<g>
	<path class="st0" d="M105,31.9c-4.9,0-9.5,0-14.3,0c0,13.6,0,27.1,0,40.7c4.8,0,9.5,0,14.3,0C105,59,105,45.5,105,31.9z"/>
	<path class="st0" d="M86.1,52.3c-4.9,0-9.6,0-14.4,0c0,6.8,0,13.5,0,20.3c4.9,0,9.6,0,14.4,0C86.1,65.8,86.1,59.1,86.1,52.3z"/>
	<path class="st0" d="M53.6,72.7c4.8,0,9.5,0,14.3,0c0-10.1,0-19.9,0-29.8c-4.9,0-9.6,0-14.3,0C53.6,52.9,53.6,62.7,53.6,72.7z"/>
	<path class="st0" d="M92.6,103.3c13.2-3.3,23.6-10.9,31-22.6c4.9-7.8,7.6-16.2,7.9-25.2c0.6-18.4-6.3-33.5-21.3-44.4
		C97.4,1.7,83-1,67.7,2.8C53.7,6.3,43,14.5,35.7,27c-4.6,7.9-6.8,16.4-6.9,25.5c-0.2,11.1,2.9,21.4,9.4,30.4
		c1.3,1.8,1.3,2.8-0.2,4.3c-7.1,7-14.1,14.2-21.2,21.2c-4,3.9-8.1,7.8-11.9,11.5c3.3,3.3,6.1,6.1,9.4,9.4c0.5-0.7,1.1-1.7,1.8-2.4
		c10.4-10.5,20.8-20.9,31.2-31.4c1-1,1.7-1.3,3.1-0.3C63.1,104.2,77.4,107,92.6,103.3z M40.6,53.5c0-22.4,18-39.9,39.3-40.2
		c21.4-0.2,39.8,18.2,39.7,39.4c0.1,22.3-18,39.9-39.4,40.1C58.9,92.9,40.6,74.5,40.6,53.5z"/>
</g>
</svg>
