<?xml version="1.0" encoding="utf-8"?>
<!-- Generator: Adobe Illustrator 22.0.0, SVG Export Plug-In . SVG Version: 6.00 Build 0)  -->
<svg version="1.1" id="Capa_1" xmlns="http://www.w3.org/2000/svg" xmlns:xlink="http://www.w3.org/1999/xlink" x="0px" y="0px"
	 viewBox="0 0 280.5 235.1" style="enable-background:new 0 0 280.5 235.1;" xml:space="preserve">
<style type="text/css">
	.st0{fill:#EF7B4F;}
</style>
<g>
	<rect x="139.2" y="126.4" class="st0" width="4.9" height="7.2"/>
	<rect x="130.8" y="74.5" class="st0" width="4.9" height="7.2"/>
	<rect x="130.8" y="95.2" class="st0" width="4.9" height="7.2"/>
	<rect x="156" y="136.7" class="st0" width="4.9" height="7.2"/>
	<rect x="156" y="105.6" class="st0" width="4.9" height="7.2"/>
	<rect x="156" y="84.8" class="st0" width="4.9" height="7.2"/>
	<rect x="156" y="116" class="st0" width="4.9" height="7.2"/>
	<rect x="156" y="95.2" class="st0" width="4.9" height="7.2"/>
	<rect x="156" y="74.5" class="st0" width="4.9" height="7.2"/>
	<rect x="139.2" y="95.2" class="st0" width="4.9" height="7.2"/>
	<rect x="139.2" y="74.5" class="st0" width="4.9" height="7.2"/>
	<rect x="139.2" y="105.6" class="st0" width="4.9" height="7.2"/>
	<rect x="139.2" y="116" class="st0" width="4.9" height="7.2"/>
	<rect x="130.8" y="136.7" class="st0" width="4.9" height="7.2"/>
	<rect x="130.8" y="116" class="st0" width="4.9" height="7.2"/>
	<rect x="130.8" y="126.4" class="st0" width="4.9" height="7.2"/>
	<rect x="128.1" y="151.7" class="st0" width="27.2" height="13.8"/>
	<rect x="139.2" y="84.8" class="st0" width="4.9" height="7.2"/>
	<rect x="130.8" y="84.8" class="st0" width="4.9" height="7.2"/>
	<rect x="192.3" y="136.7" class="st0" width="4.9" height="7.2"/>
	<rect x="192.3" y="147.1" class="st0" width="4.9" height="7.2"/>
	<rect x="200.7" y="115.9" class="st0" width="4.9" height="7.2"/>
	<rect x="192.3" y="126.3" class="st0" width="4.9" height="7.2"/>
	<rect x="200.7" y="136.7" class="st0" width="4.9" height="7.2"/>
	<path class="st0" d="M72.7,165.5V86.7h19V68.2h1.8v18.5h19v78.8h5.1V65.8h48.1v99.7h5.1v-58.1h39.8v58.1h17.1
		c7.8-14.2,12.3-30.5,12.3-47.9c0-55-44.6-99.6-99.6-99.6c-55,0-99.6,44.6-99.6,99.6c0,17.4,4.5,33.7,12.3,47.9H72.7z"/>
	<rect x="192.3" y="115.9" class="st0" width="4.9" height="7.2"/>
	<rect x="200.7" y="126.3" class="st0" width="4.9" height="7.2"/>
	<rect x="200.7" y="147.1" class="st0" width="4.9" height="7.2"/>
	<rect x="175.5" y="136.7" class="st0" width="4.9" height="7.2"/>
	<rect x="175.5" y="126.3" class="st0" width="4.9" height="7.2"/>
	<rect x="175.5" y="147.1" class="st0" width="4.9" height="7.2"/>
	<rect x="175.5" y="115.9" class="st0" width="4.9" height="7.2"/>
	<rect x="156" y="126.4" class="st0" width="4.9" height="7.2"/>
	<rect x="183.9" y="115.9" class="st0" width="4.9" height="7.2"/>
	<rect x="183.9" y="147.1" class="st0" width="4.9" height="7.2"/>
	<rect x="183.9" y="136.7" class="st0" width="4.9" height="7.2"/>
	<rect x="183.9" y="126.3" class="st0" width="4.9" height="7.2"/>
	<rect x="130.8" y="105.6" class="st0" width="4.9" height="7.2"/>
	<rect x="94.4" y="116" class="st0" width="4.9" height="7.2"/>
	<rect x="94.4" y="105.6" class="st0" width="4.9" height="7.2"/>
	<rect x="86" y="136.7" class="st0" width="4.9" height="7.2"/>
	<rect x="94.4" y="95.2" class="st0" width="4.9" height="7.2"/>
	<rect x="83.8" y="148.7" class="st0" width="17.7" height="16.8"/>
	<rect x="86" y="95.2" class="st0" width="4.9" height="7.2"/>
	<rect x="86" y="126.4" class="st0" width="4.9" height="7.2"/>
	<rect x="86" y="105.6" class="st0" width="4.9" height="7.2"/>
	<rect x="86" y="116" class="st0" width="4.9" height="7.2"/>
	<rect x="77.6" y="116" class="st0" width="4.9" height="7.2"/>
	<rect x="77.6" y="95.2" class="st0" width="4.9" height="7.2"/>
	<rect x="77.6" y="105.6" class="st0" width="4.9" height="7.2"/>
	<rect x="102.8" y="95.2" class="st0" width="4.9" height="7.2"/>
	<rect x="94.4" y="126.4" class="st0" width="4.9" height="7.2"/>
	<path class="st0" d="M56.4,171.4c17.7,27.5,48.6,45.8,83.8,45.8c35.2,0,66.1-18.2,83.8-45.8H56.4z"/>
	<rect x="94.4" y="136.7" class="st0" width="4.9" height="7.2"/>
	<rect x="139.2" y="136.7" class="st0" width="4.9" height="7.2"/>
	<rect x="77.6" y="136.7" class="st0" width="4.9" height="7.2"/>
	<rect x="77.6" y="126.4" class="st0" width="4.9" height="7.2"/>
	<rect x="147.6" y="126.4" class="st0" width="4.9" height="7.2"/>
	<rect x="147.6" y="136.7" class="st0" width="4.9" height="7.2"/>
	<rect x="122.4" y="126.4" class="st0" width="4.9" height="7.2"/>
	<rect x="147.6" y="116" class="st0" width="4.9" height="7.2"/>
	<rect x="147.6" y="74.5" class="st0" width="4.9" height="7.2"/>
	<rect x="147.6" y="105.6" class="st0" width="4.9" height="7.2"/>
	<rect x="122.4" y="136.7" class="st0" width="4.9" height="7.2"/>
	<rect x="147.6" y="84.8" class="st0" width="4.9" height="7.2"/>
	<rect x="147.6" y="95.2" class="st0" width="4.9" height="7.2"/>
	<rect x="102.8" y="126.4" class="st0" width="4.9" height="7.2"/>
	<rect x="102.8" y="136.7" class="st0" width="4.9" height="7.2"/>
	<rect x="102.8" y="105.6" class="st0" width="4.9" height="7.2"/>
	<rect x="102.8" y="116" class="st0" width="4.9" height="7.2"/>
	<rect x="122.4" y="74.5" class="st0" width="4.9" height="7.2"/>
	<rect x="122.4" y="105.6" class="st0" width="4.9" height="7.2"/>
	<rect x="122.4" y="84.8" class="st0" width="4.9" height="7.2"/>
	<rect x="122.4" y="116" class="st0" width="4.9" height="7.2"/>
	<rect x="122.4" y="95.2" class="st0" width="4.9" height="7.2"/>
</g>
</svg>
