<?xml version="1.0" encoding="utf-8"?>
<!-- Generator: Adobe Illustrator 22.0.0, SVG Export Plug-In . SVG Version: 6.00 Build 0)  -->
<svg version="1.1" id="Capa_1" xmlns="http://www.w3.org/2000/svg" xmlns:xlink="http://www.w3.org/1999/xlink" x="0px" y="0px"
	 viewBox="0 0 193.3 168.4" style="enable-background:new 0 0 193.3 168.4;" xml:space="preserve">
<style type="text/css">
	.st0{fill:none;stroke:#EF7B4F;stroke-width:4;stroke-miterlimit:10;}
	.st1{fill-rule:evenodd;clip-rule:evenodd;fill:#EF7B4F;}
	.st2{fill:#EF7B4F;}
</style>
<g>
	<path class="st0" d="M148.3,78.7c0,27.6-22.4,50-50,50c-27.6,0-50-22.4-50-50c0-27.6,22.4-50,50-50C125.9,28.6,148.3,51,148.3,78.7
		z"/>
</g>
<g>
	<g>
		<path class="st1" d="M124.1,140.1c-4.8-2-9.4-4.4-14.8-4.8c-3.2-0.2-6.4-0.1-9.5,0.7c-0.9,0.2-1.7,0.6-2.7,0.3
			C93,135,88.8,135,84.5,136c-4.8,1.1-9.2,3.1-13.7,5.1c-4.7,2-9.5,2.4-14.4,1.1c-1.7-0.4-3.2-1.2-5-2c5.6,6.1,14.3,9.2,22.8,6.3
			c3.8-1.3,7-3.5,10.2-5.7c1.4-1,2.7-1.9,4.3-2.6c2.1-1,4.6-1.1,6.1-0.3c-1.1,0.6-2.1,1.1-3.1,1.7c-4.8,2.6-9.1,6-13.1,9.8
			c-0.4,0.4-0.4,0.6,0.1,1c0.8,0.7,1.8,1.2,2.4,2.2c0.1,0,0.2,0,0.3,0c1.5-2.2,3.4-4.1,5.4-6c2.9-2.7,6.1-5,9.5-7
			c1.3-0.7,2.4-0.9,3.7-0.1c5,2.9,9.2,6.7,13.2,10.8c2.2,2.2,2.2,2.2,4.4-0.1c0.5-0.5,0.6-0.8,0-1.3c-3.3-3-6.7-5.7-10.5-8
			c-1.8-1.1-3.7-1.9-5.6-3.1c3.1-0.7,5.7-0.4,8.2,1.3c3.3,2.2,6.4,4.7,10.2,6.2c7.3,3,14.3,2.5,20.8-1.9c2-1.4,2.9-2.2,3.5-3.5
			c-2.8,1.6-5.7,2.4-8.9,2.6C131.4,142.6,127.7,141.6,124.1,140.1z"/>
	</g>
	<g>
		<path class="st1" d="M30.9,109.4c3.4,3,7.1,5.4,10.8,7.8c1.4,0.9,2.7,1.7,4.1,2.6c-0.2-1-0.6-1.9-1-2.7c-0.5-1.1-1-2.2-1.2-3.3
			c-0.7-3.2-1-6.5-1.3-9.8c-0.5-5.6-0.9-11.3-3.1-16.6c-0.1-0.1-0.2-0.1-0.3,0c0.1,1.8-0.1,3.6-0.4,5.4c-0.5,2.6-1.1,5.2-1.4,7.8
			c-0.3,3.8,0.5,7.3,2,10.7c0,0.2,0.1,0.3,0.2,0.5c-0.2,0-0.3-0.1-0.4-0.2c-1.5-1.9-2.6-4.1-4.3-5.9c-2.5-2.7-5-5.3-7.5-8
			c-2-2.3-3.8-4.7-4.5-7.8c-0.3-0.2-0.3,0.1-0.5,0.2c0,0.5,0,1,0,1.5c0.2,0.5,0.2,1,0,1.5c0,0.4,0,0.8,0,1.3c0.4,0.2,0.3,0.7,0.4,1
			C23.7,101.1,26.6,105.7,30.9,109.4z"/>
	</g>
	<g>
		<path class="st1" d="M173.5,88.4c-0.1-0.2,0.2-0.6-0.3-0.5c-0.5,3-1.9,5.5-3.8,7.8c-1.8,2.4-4,4.4-6.1,6.5
			c-2.4,2.5-4.2,5.5-6.3,8.3c-0.3,0.1-0.4,0.3-0.5,0.4c0-0.1,0.1-0.4,0.2-0.7c2.1-4.3,2.5-8.8,1.5-13.5c-0.5-2.5-1-5.1-1.3-7.7
			c-0.2-0.5,0-1-0.1-1.4c-0.1-0.3,0.3-0.8-0.3-0.8c-0.5,1.3-1,2.6-1.3,3.9c-1.2,4.8-1.2,9.8-1.7,14.7c-0.5,4.6-1.1,9.1-3.4,13.2
			c0.4,0.2,0.6,0,0.9-0.1c3.5-2.3,7-4.6,10.4-7.1c4.8-3.5,8.6-7.8,10.9-13.4c0.6-1.6,0.8-3.4,1.5-5c0-0.9,0-1.8,0-2.8
			C173.4,89.7,173.6,89.1,173.5,88.4z"/>
	</g>
	<g>
		<path class="st1" d="M27,92.2c2.5,3.4,5.5,6.4,7.6,10c0,0.1,0.2,0.1,0.4,0.1c-0.8-4.2-0.1-8.1,1.2-12.1c1.8-5.6,3.2-11.4,3.6-17.3
			c0.2-0.8,0.1-1.5,0.1-2.3c0-0.3,0.2-0.7-0.4-0.7c-0.5,2.2-1.5,4.2-2.7,6c-3.2,4.9-5.6,10-5.1,16.1c0.2,0.4-0.1,0.8,0.1,1.2
			c0,0.2,0.1,0.3,0.1,0.5c0,0.1,0.1,0.2,0,0.3c0-0.1,0-0.2,0-0.4c-0.1-0.4-0.2-0.8-0.5-1.1c-0.9-5.4-3-10.4-5.2-15.3
			c-1.4-3.1-2.3-6.4-2.1-9.9c0.1-0.3,0.2-0.5-0.3-0.5c-0.5,2-1,4-1.5,6c0,0.6,0,1.2,0,1.8c0.2,1,0.2,2,0,3c0,0.6,0,1.2,0,1.8
			c0.5,0.4,0.4,1.1,0.5,1.6C23.5,85.1,24.5,88.9,27,92.2z"/>
	</g>
	<g>
		<path class="st1" d="M168.1,108.3c-1.4,2.8-3.5,5-6.1,6.8c-2.7,1.9-5.6,3.3-8.6,4.8c-3.6,1.8-7,3.8-10,6.5c-0.5,0.4-1,1-1.9,1
			c3.6-3.3,6.2-7,7.2-11.7c1-4.6,1.1-9.4,2.8-13.9c-0.5,0-0.6,0.3-0.8,0.5c-3.1,3.9-5.8,8.2-7.3,13c-0.9,2.8-1.8,5.5-2.9,8.2
			c-1.3,2.9-2.9,5.6-5.3,7.9c1.9-0.4,3.6-0.9,5.4-1.2c2.9-0.6,5.9-1,8.7-1.9c4.6-1.6,8.5-4.2,11.9-7.6c3.3-3.4,6-7.3,6.9-12.1
			C168.5,108.3,168.4,108.2,168.1,108.3z"/>
	</g>
	<g>
		<path class="st1" d="M55.3,130.7c1.7,0.3,3.3,0.7,5,1c-1.2-1.5-2.4-2.9-3.4-4.5c-1.7-2.8-2.8-5.8-3.8-8.9c-1.6-5.1-4-9.9-7.4-14.1
			c-0.4-0.5-0.7-1.1-1.6-1.6c1.5,3.8,1.8,7.6,2.4,11.3c0.8,5.1,2.8,9.6,6.8,13c0.2,0.2,0.5,0.3,0.3,0.7c-1.4-0.6-2.5-1.7-3.7-2.6
			c-3.6-2.7-7.7-4.4-11.7-6.5c-2.9-1.5-5.6-3.1-7.8-5.4c-1-1.1-1.8-2.4-2.7-3.6c-0.2,0.3-0.1,0.5,0,0.8c0.8,2.8,2.1,5.4,3.9,7.7
			c3.5,4.6,7.7,8.2,13.1,10.3C48.1,129.7,51.7,130.1,55.3,130.7z"/>
	</g>
	<g>
		<path class="st1" d="M156.4,127.3c-0.1,0.1-0.3,0.2-0.4,0.3c-2.9,2.8-6.5,4-10.3,4.6c-6.1,1-12.4,1-18.5,2.3c-0.3,0-0.8,0.5-1-0.2
			c0.4-0.1,0.8-0.2,1.2-0.4c3.4-1,6.1-2.8,8.1-5.8c2.1-3.3,3.3-7.1,5.5-10.5c-0.7,0-1,0.4-1.4,0.7c-3.8,2.9-7.1,6.3-10.4,9.7
			c-2.9,3-6.2,5.3-10.3,6.3c-1,0.3-1.9,0.5-2.9,0.8c4,0.8,7.9,1.8,11.8,2.7c3.1,0.7,6.3,1.2,9.5,1.1c7.1-0.3,12.8-3.5,17.5-8.8
			c0.7-0.8,1.4-1.7,1.9-2.8C156.6,127.3,156.5,127.3,156.4,127.3z"/>
	</g>
	<g>
		<path class="st1" d="M62.9,139.2c5.8-0.6,11.3-2.8,17.1-3.9c-0.5-0.1-1-0.3-1.6-0.4c-3.7-1-7.1-2.4-9.9-5c-2.2-2-4.3-4.1-6.5-6.2
			c-2.2-2.1-4.5-4-7.1-5.6c2.1,3.3,3.5,7.1,5.6,10.3c1.8,2.7,4.2,4.6,7.4,5.6c0.8,0.2,1.6,0.3,2.3,0.8c-0.6,0-1.2,0-1.8-0.1
			c-1.9-0.3-3.7-0.7-5.6-0.9c-3.7-0.4-7.4-0.6-11-1c-4.4-0.5-8.5-1.6-11.9-4.6c-0.1-0.1-0.3-0.1-0.4,0c0,0.1,0,0.2,0.1,0.2
			c0.1,0.1,0.1,0.2,0.2,0.3C45.6,136.8,53.3,140.2,62.9,139.2z"/>
	</g>
	<g>
		<path class="st1" d="M169.5,76.6c-2.1,4.7-4,9.4-4.9,14.4c-0.1,0-0.2,0.5-0.2,0.1c-0.2-1.6,0.1-3.2-0.2-4.9
			c-0.5-3.3-2.1-6.1-3.8-8.8c-1.6-2.6-3.2-5.2-4.4-8.1c-0.3,2.3,0.1,4.6,0.5,6.9c0.9,5.2,2.3,10.3,4,15.3c0.9,2.6,1,5.3,0.7,8
			c-0.1,0.6-0.1,1.2-0.1,1.8c2.2-3,4.6-5.8,6.8-8.7c0.8-1.1,1.7-2.2,2.3-3.4c1.8-3.6,2.8-7.5,3.1-11.5c0.3-3.8,0-7.6-1.4-11.3
			c-0.5,0-0.3,0.4-0.4,0.6c-0.1,0.8,0.1,1.6-0.1,2.4C171.1,71.9,170.5,74.3,169.5,76.6z"/>
	</g>
	<g>
		<path class="st1" d="M164.6,58.8c-0.4,4.4-0.3,8.7,0,13.1c0,0.3,0.5,0.7-0.2,0.8c-0.2-1.2-0.4-2.4-0.8-3.5
			c-1.2-3.6-3.8-6.1-6.5-8.5c-2-1.8-4.2-3.5-5.6-5.9c-0.2-0.1-0.3,0-0.3,0.3c0.9,4.3,2.7,8.2,5.3,11.7c3.4,4.6,7.3,8.9,8.5,14.9
			c0.6-2.9,1.4-5.8,2.4-8.6c0.5-1.4,1.1-2.8,1.5-4.3c2-8,0.5-15.4-4.4-22c-0.4-0.5-0.4-0.5-1.1-0.9c1.3,2.6,1.7,5.2,1.7,8
			C165,55.5,164.7,57.2,164.6,58.8z"/>
	</g>
	<g>
		<path class="st1" d="M30.9,82.4c0.4-0.9,0.6-1.8,0.9-2.6c1.2-3.2,3.1-6,5-8.8c2.1-3.1,4.5-6,5.8-9.6c0.7-1.8,1.3-3.6,1.3-5.5
			c-1.9,2.7-4.5,4.5-6.7,6.8c-2.9,3-5.2,6.3-5.8,10.5c-0.1,0.1-0.2,0.3-0.2,0.4c0,0.1,0,0.2,0,0.2c0,0.2,0,0.2,0,0.3c0,0,0,0,0,0
			c0,0,0,0,0,0c0,0,0,0,0-0.1c0-0.1,0-0.2,0.1-0.4c0-0.4-0.3-0.9,0-1.5c0-0.8-0.1-1.7,0.1-2.5c0.4-2.6,0.1-5.1-0.1-7.7
			c-0.2-2-0.6-4-0.7-6c-0.2-2.8-0.2-5.7,1.2-8.7c-1.1,0.7-1.4,1.5-1.9,2.2c-3.4,5.2-4.5,10.9-3.6,17.1
			C26.9,72.1,30.2,76.9,30.9,82.4z"/>
	</g>
	<g>
		<path class="st1" d="M155.9,41.9c1.2,4.2,2.1,8.4,3.4,12.6c0,0.2,0.1,0.4,0,0.5c0-0.1-0.1-0.2-0.2-0.3c-1.5-2.3-3.4-4.2-5.7-5.8
			c-1.9-1.4-3.9-2.7-5.8-4.3c-1.2-1-2.1-2.4-3.2-3.8c0.8,5.2,3.4,9.1,7.3,12.2c3.8,3,7.9,5.8,10.6,10.1c0.2-0.3,0.2-0.6,0-0.9
			c-0.1-3.1-0.1-6.1,0.1-9.2c0.3-4.9-0.7-9.3-4-13.1c-1.8-2.1-4-3.7-7.2-4.5C153.7,37.3,155.2,39.4,155.9,41.9z"/>
	</g>
	<g>
		<path class="st1" d="M33.2,64c0,0,0.1,0.1,0.2,0.1c1.6-2.8,3.8-5.1,6.3-7.1c2.5-1.9,4.9-3.8,6.9-6.3c2-2.5,3.5-5.2,4-8.4
			c0-0.3,0.4-0.7-0.3-0.8c-1.2,2.5-3.2,4.2-5.4,5.9c-2.5,1.8-5.2,3.5-7.1,6c-0.8,1-1.5,2.1-2.2,3.2c0.3-1.5,0.8-2.9,1.2-4.4
			c0.6-2.4,1.2-4.8,1.7-7.2c0.7-3.2,1.9-6.1,4.3-8.4c-0.4,0-0.7,0.1-1,0.3c-0.3,0.1-0.5,0.2-0.8,0.4c-5.2,3-7.9,7.4-8.2,13.4
			C32.7,55.2,33.4,59.6,33.2,64z"/>
	</g>
	<g>
		<path class="st1" d="M138.9,30.7c0.9,0.9,1.9,1.8,2.6,2.9c2.7,4.2,5.9,7.8,9.6,11.1c1.3,1.2,2.5,2.3,4,3.2
			c-1.7-10.5-7.8-16.8-18.2-19.1C137.6,29.4,138.2,30,138.9,30.7z"/>
	</g>
	<g>
		<path class="st1" d="M40.5,48.4c2.8-2.4,5.8-4.5,8-7.4c3-3.9,5.5-8,9-11.5c-9.7,3.6-14.2,5.5-17.6,18.9
			C40.1,48.5,40.3,48.5,40.5,48.4z"/>
	</g>
</g>
<path class="st2" d="M112.6,119.7c2.4-3.1,5-7.1,7.3-12.1c5.3,1.7,9.9,3.9,13.8,6.4c0.7-0.7,1.4-1.5,2.1-2.3c-4-2.5-8.9-5-14.7-6.9
	c2.7-6.6,4.7-14.8,4.9-24.4h22.3c0-0.6,0-1.2,0-1.9c0-0.4,0-0.8,0-1.1h-22.3c-0.2-10-2.3-18.3-5.2-25.1c5.7-1.9,10.7-4.4,14.8-7
	c-0.7-0.8-1.4-1.5-2.1-2.2c-4,2.5-8.6,4.8-14,6.5c-2.2-4.6-4.7-8.4-7-11.4c-3.3-4.3-6.6-7.3-9.1-9.4c-1.7-0.2-3.4-0.3-5.2-0.3
	c-1.8,0-3.7,0.1-5.5,0.3C90.3,31,87.2,34,84,38.1c-2.4,3-4.9,6.9-7.1,11.7c-5.4-1.7-10.1-4-14-6.4c-0.7,0.7-1.4,1.5-2.1,2.3
	c4.1,2.5,9,5,14.9,6.9c-2.8,6.8-4.9,15.1-5,25H48.3c0,0.4,0,0.8,0,1.1c0,0.6,0,1.2,0,1.9h22.3c0.2,9.7,2.2,17.8,5,24.5
	c-5.6,1.9-10.5,4.3-14.7,7c0.7,0.8,1.4,1.5,2.1,2.2c3.9-2.4,8.5-4.7,13.8-6.4c2.2,4.8,4.8,8.7,7.2,11.8c3,3.9,6,6.8,8.4,8.8
	c1.9,0.2,3.9,0.4,5.9,0.4c2.1,0,4.1-0.1,6.2-0.4C106.8,126.3,109.7,123.4,112.6,119.7z M96.8,128c-3.8-2.9-11.6-9.7-17.1-21.1
	c5.1-1.4,10.7-2.3,17.1-2.4V128z M96.8,101.5c-6.8,0.1-12.9,1.1-18.3,2.7c-2.7-6.5-4.7-14.3-4.9-23.6h23.2V101.5z M96.8,77.5H73.6
	c0.2-9.5,2.1-17.5,4.9-24.1c5.4,1.5,11.5,2.4,18.2,2.5V77.5z M96.8,53c-6.3-0.1-11.9-0.9-17-2.3c5.5-11.4,13.2-18.2,17-21V53z
	 M99.8,29.8c2.4,1.8,6.5,5.3,10.5,10.4c2.1,2.7,4.4,6.1,6.4,10.3c-5,1.4-10.6,2.3-16.9,2.4V29.8z M99.8,55.9
	c6.7-0.1,12.7-1.1,18.1-2.6c2.8,6.5,4.8,14.6,5,24.2H99.8V55.9z M99.8,80.5h23.2c-0.2,9.2-2.1,17-4.8,23.5
	c-5.4-1.5-11.6-2.5-18.4-2.6V80.5z M99.8,104.4c6.3,0.1,12.1,1,17.2,2.4c-5.5,11.6-13.3,18.5-17.2,21.4V104.4z"/>
</svg>
