<?xml version="1.0" encoding="utf-8"?>
<!-- Generator: Adobe Illustrator 22.0.0, SVG Export Plug-In . SVG Version: 6.00 Build 0)  -->
<svg version="1.1" id="Capa_1" xmlns="http://www.w3.org/2000/svg" xmlns:xlink="http://www.w3.org/1999/xlink" x="0px" y="0px"
	 viewBox="0 0 280.5 235.1" style="enable-background:new 0 0 280.5 235.1;" xml:space="preserve">
<style type="text/css">
	.st0{fill-rule:evenodd;clip-rule:evenodd;fill:#EF7B4F;}
</style>
<g id="t8Lx3N.tif">
	<g>
		<path class="st0" d="M140.3,217.1c-53.8,1.3-99.8-45.2-99.7-99.6c0.1-53.9,45.7-99.4,99.5-99.4c54.2-0.1,99.6,45.6,99.8,99.4
			C240,171.7,194.2,218.4,140.3,217.1z M89.6,179c0.5-0.7,1.1-1.7,1.8-2.4c10.4-10.5,20.8-20.9,31.2-31.4c1-1,1.7-1.3,3.1-0.3
			c12.9,9.1,27.1,11.9,42.3,8.1c13.2-3.3,23.6-10.9,31-22.6c4.9-7.8,7.6-16.2,7.9-25.2c0.6-18.4-6.3-33.5-21.3-44.4
			c-12.8-9.4-27.2-12.1-42.5-8.3c-14,3.5-24.7,11.7-32,24.2c-4.6,7.9-6.8,16.4-6.9,25.5c-0.2,11.1,2.9,21.4,9.4,30.4
			c1.3,1.8,1.3,2.8-0.2,4.3c-7.1,7-14.1,14.2-21.2,21.2c-4,3.9-8.1,7.8-11.9,11.5C83.5,172.9,86.3,175.7,89.6,179z"/>
		<path class="st0" d="M195.1,102.4c0.1,22.3-18,39.9-39.4,40.1c-21.3,0.2-39.6-18.2-39.6-39.3c0-22.4,18-39.9,39.3-40.2
			C176.8,62.9,195.1,81.2,195.1,102.4z M180.5,122.4c0-13.7,0-27.2,0-40.7c-4.9,0-9.5,0-14.3,0c0,13.6,0,27.1,0,40.7
			C171.1,122.4,175.7,122.4,180.5,122.4z M143.4,122.4c0-10.1,0-19.9,0-29.8c-4.9,0-9.6,0-14.3,0c0,10,0,19.9,0,29.8
			C133.9,122.4,138.5,122.4,143.4,122.4z M147.3,102.1c0,6.8,0,13.5,0,20.3c4.9,0,9.6,0,14.4,0c0-6.8,0-13.5,0-20.3
			C156.8,102.1,152.1,102.1,147.3,102.1z"/>
	</g>
</g>
</svg>
