<?xml version="1.0" encoding="utf-8"?>
<!-- Generator: Adobe Illustrator 22.0.0, SVG Export Plug-In . SVG Version: 6.00 Build 0)  -->
<svg version="1.0" id="Layer_1" xmlns="http://www.w3.org/2000/svg" xmlns:xlink="http://www.w3.org/1999/xlink" x="0px" y="0px"
	 viewBox="0 0 311.8 311.8" style="enable-background:new 0 0 311.8 311.8;" xml:space="preserve">
<style type="text/css">
	.st0{fill:#E72C25;}
	.st1{fill:#D60171;}
	.st2{fill:#C17A21;}
	.st3{fill:#0B68AE;}
	.st4{fill:#EC561E;}
	.st5{fill:#FAA911;}
	.st6{fill:#132755;}
	.st7{fill:#3A652F;}
	.st8{fill:#7B0A2A;}
	.st9{fill:#B30B27;}
	.st10{fill:#248C38;}
	.st11{fill:#0A4178;}
	.st12{fill:#E20123;}
	.st13{fill:#4EB036;}
	.st14{fill:#139ECF;}
</style>
<g>
	<path class="st0" d="M208.3,108.4c0,2.5,0,5.1,0,7.6c0,1.3,0.7,5.7,0,6.9c-0.8,1.3-9,1.7-10.1,0.5c-0.9-0.9-0.3-4.3-0.3-5.5
		c0-0.5,0.4-5-0.2-5.3c-1-0.5-7.8,7.3-8.9,8.3c-0.6,0.6-3.7,3-3.8,3.8c-0.3,1.1,1.9,3.3,2.4,4.3c1.9,3.4,2.6,7,3.7,10.7
		c2.1,7.3,0.9,16.5-2.4,23.4c-3.7,7.7-8.6,12.9-15.7,17.6c-3.1,2.1-6.6,3.2-10.2,4.1c-1.5,0.3-2.7,0.5-3.4,1.7
		c-0.8,1.4-0.1,6.5,0,8.3c0.1,2.4,0.2,2.4,2.7,2.4c2.1,0,4.2,0,6.4,0c2,0,2.7-0.4,3.4,1.3c0.4,0.9,0.5,7.3,0,8.3
		c-0.7,1.6-0.7,1.3-2.8,1.3c-1.8,0-3.6,0-5.4,0c-1.6,0-3.4-0.6-4.3,0.9c-0.9,1.5,0,6.4,0,8.1c0,2,0.2,2.4-1.8,2.7
		c-2,0.3-4.3,0-6.3,0c-2.7-0.1-2.7-0.3-2.7-2.8c0-1.6,0.8-7.1-0.1-8.4c-1.4-1.9-8.6,0.2-10.8-0.4c-1.8-0.5-1.6-1-1.6-2.9
		c0-1.5-0.7-6,0-7.3c1.2-2,7.7-0.8,9.9-0.9c2.5-0.1,2.5,0,2.5-2.5c0-2.4,0.2-5,0-7.4c-0.2-2.1-0.4-1.4-2.1-1.8
		c-1.7-0.4-3.5-0.8-5.2-1.3c-3.8-1-7.2-3.1-10.3-5.3c-13.1-9.1-19.4-25.9-15.2-41.3c4.2-15.3,19-28.7,35.2-28.6
		c4.9,0,9.3,0.1,14.1,1.4c2.6,0.7,5,1.9,7.4,3.2c1.3,0.7,3.6,3.1,4.8,3.1c1.5,0,4.1-3.7,5.2-4.8c2-2,4.1-3.9,6-6
		c1-1.2,1.6-1.1,0.5-1.8c-1.2-0.8-6.3,0-7.9,0c-2.8,0-2.7-0.5-2.6-3.4c0-1.4-0.9-5.9,0-7.1c1-1.3,5.1-0.5,6.5-0.5c2.8,0,5.6,0,8.4,0
		c3,0,6.1,0,9.1,0c1.4,0,4.7-0.8,5.8,0.3c1,1,0.3,5.4,0.3,6.7C208.3,102.9,208.3,105.6,208.3,108.4z M152.7,119.1
		c-3.1,0.5-5.8,0.3-8.8,1.3c-2.7,0.9-5.7,2.1-8,3.9c-4.4,3.4-7.9,8.4-9.7,13.6c-2.3,6.5-2.2,12.6,0,19.1c1.8,5.5,5.4,10,10,13.3
		c10.1,7.2,23.4,8,33.6,0.5c9.3-6.8,13.4-17.6,11.5-28.8C178.9,127.6,166.5,119.1,152.7,119.1z"/>
	<path class="st1" d="M135.7,240c-1,4.5-1.8,9.1-2.7,13.6c-0.8,4.1-1.5,8.3-2.3,12.5c-0.4,2.3-0.7,4.6-1.3,6.9
		c-0.6,2.7-1.2,5.5-1.6,8.3c-0.3,2-0.8,3.9-1.2,5.8c-0.5,2.6-1,5.2-1.4,7.7c-0.5,3-1.2,6-1.8,9c-0.1,0.6-0.6,0.4-0.9,0.3
		c-4.7-1.2-9.4-2.2-14-3.7c-5.6-1.8-11.1-3.8-16.5-6.1c-4.2-1.8-8.2-3.9-12.3-5.9c-0.6-0.3-1-0.5-0.4-1.5c2.8-4.5,5.7-9,8.5-13.5
		c2.2-3.5,4.4-7,6.6-10.5c2-3.3,4.1-6.4,6.2-9.7c1.7-2.7,3.4-5.5,5.1-8.2c2-3.1,4-6.1,5.9-9.2c0.7-1.1,1.4-2.3,2.1-3.4
		c0.4-0.7,0.8-0.8,1.6-0.4c2.5,1.2,5,2.3,7.6,3.4c4,1.6,8.1,2.7,12.3,3.9C135.8,239.4,135.7,239.7,135.7,240z"/>
	<path class="st2" d="M7.6,202.8c0-0.5,0.2-0.7,0.7-0.8c2.2-0.7,4.3-1.3,6.5-1.8c1.5-0.3,3-0.9,4.4-1.3c2.5-0.7,4.9-1.4,7.4-2.1
		c5.7-1.6,11.4-3.2,17.1-4.8c3.2-0.9,6.5-1.9,9.7-2.7c2.9-0.7,5.8-1.7,8.7-2.4c2.7-0.7,5.5-1.3,8.1-2.4c1.9-0.8,2.3-0.5,2.8,1.5
		c0.4,1.8,1.5,3.3,2.2,5c1.6,4,4,7.5,6.2,11.2c0.3,0.6,1.3,1,1.1,1.7c-0.2,0.5-1,0.9-1.5,1.3c-6,4.5-12.1,8.9-18.1,13.4
		c-4.1,3-8.2,6.1-12.3,9.2c-3.2,2.4-6.5,4.6-9.6,7.1c-3.7,3-7.7,5.5-11.4,8.6c-0.4,0.4-0.9,0.3-1.2-0.3c-1.5-2.3-3-4.5-4.6-6.7
		c-2-3-3.8-6.1-5.5-9.3c-2.1-3.8-4-7.7-5.7-11.7c-1.2-2.8-2.3-5.5-3.4-8.3C8.5,205.7,8.1,204.2,7.6,202.8z"/>
	<path class="st3" d="M67.2,142.3c-3.4-0.3-6.8-0.5-10.2-1c-1.5-0.2-3.1-0.2-4.6-0.2c-2.4-0.1-4.7-0.5-7-0.7c-3-0.2-6-0.4-8.9-0.9
		c-1.7-0.3-3.4-0.3-5.1-0.3c-4-0.1-8-0.8-11.9-1c-3.1-0.1-6.1-0.7-9.2-0.9c-2.8-0.1-5.6-0.2-8.4-0.7c-0.6-0.1-0.5-0.5-0.5-0.8
		c-0.2-1.6,0.6-3,0.6-4.5c0.1-2.2,0.8-4.4,1.3-6.6c0.6-3.1,1.5-6.2,2.4-9.2c0.9-3.1,1.9-6.2,3-9.3c1-2.9,2.2-5.7,3.3-8.5
		c0.7-1.6,1.5-3.2,2.1-4.8c0.3-0.8,0.7-0.8,1.5-0.4c3.1,1.7,6.4,3.1,9.6,4.7c2.3,1.2,4.7,2.3,7,3.5c2.4,1.2,4.8,2.3,7.1,3.4
		c2.5,1.2,5,2.4,7.6,3.6c2.3,1.1,4.7,2.3,7.1,3.4c2.3,1.1,4.6,2.2,6.9,3.3c2.7,1.3,5.4,2.7,8.1,4c1.9,0.9,3.9,1.9,5.8,2.7
		c1,0.4,0.5,1.1,0.3,1.5c-1,1.6-1.5,3.4-2.1,5.1c-0.6,2-1.4,3.9-1.9,5.9c-0.5,2.2-1.1,4.3-1.6,6.5c0,0.2-0.1,0.4-0.1,0.6
		C68.9,142.3,68.9,142.3,67.2,142.3z"/>
	<path class="st4" d="M161.6,307.3c-5,0-9.5,0.3-14-0.1c-4.1-0.3-8.2-0.3-12.3-1.2c-0.3-0.1-0.6,0-0.9,0c-0.8,0-0.9-0.3-0.8-1.1
		c0.4-4.2,1.6-8.2,2.3-12.3c0.6-3.6,1.3-7.2,2.1-10.7c0.5-2.1,0.8-4.4,1.2-6.6c0.3-2.1,0.8-4.1,1.2-6.2c0.5-2.5,0.9-5,1.4-7.5
		c0.5-2.5,0.9-5.1,1.5-7.6c0.3-1.1,0.3-2.1,0.5-3.2c0.5-2.9,1.3-5.7,1.6-8.6c0.1-0.9,0.5-1.2,1.5-1.1c4.4,0.4,8.7,0.7,13.2,0.3
		c2.6-0.2,5.1-0.3,7.7-0.5c0.4,0,0.5,0.2,0.6,0.5c0.6,3.2,1.5,6.4,1.9,9.6c0.4,2.5,1,5,1.5,7.6c0.7,3.7,1.3,7.5,2.2,11.1
		c1.2,5.5,2.2,11.1,3.3,16.7c0.8,3.7,1.5,7.4,2.2,11.1c0.5,2.4,0.8,4.7,1.3,7.1c0.1,0.5,0,0.7-0.5,0.8c-4,0.8-8,1.1-12,1.4
		C165.9,307,163.5,307.3,161.6,307.3z"/>
	<path class="st5" d="M223.8,210.2c4,2.9,8,5.7,11.9,8.6c2.8,2,5.6,4.1,8.3,6.1c3.7,2.7,7.4,5.3,11,8c3.5,2.6,6.9,5.3,10.4,7.7
		c3.8,2.7,7.5,5.6,11.4,8.2c1.2,0.8,0.7,1.5,0.2,2.1c-2.8,3-5.4,6.1-8.2,9c-3.9,4-8,7.7-12.2,11.3c-4.1,3.5-8.5,6.5-12.8,9.7
		c-0.5,0.3-0.8,0.3-1.2-0.2c-3.5-5.6-6.9-11.2-10.5-16.6c-2.7-4.1-5.3-8.4-8-12.5c-3.1-4.6-5.9-9.4-8.8-14.1c-2-3.2-4.1-6.3-6.2-9.4
		c-0.2-0.2-0.2-0.6-0.3-0.8c-1.4-2.2-1.4-2.2,0.7-3.7c2.4-1.7,4.6-3.7,6.8-5.7C219.1,215.5,221.5,212.9,223.8,210.2z"/>
	<path class="st5" d="M35.1,251.7c4.4-3.3,8.8-6.6,13.3-9.9c4.1-3.1,8.3-6.1,12.4-9.2c3.6-2.8,7.4-5.4,11.1-8.2
		c3.5-2.6,6.9-5.3,10.4-7.8c2-1.4,3.9-2.8,5.8-4.3c0.6-0.5,1.1-0.4,1.7,0.3c2.7,3.2,5.8,6,9.1,8.7c2.1,1.7,4.2,3.4,6.5,4.9
		c0.6,0.4,0.1,0.7,0,0.9c-1.2,2-2.7,3.9-3.8,5.9c-1.5,2.7-3.3,5.3-5,8c-2.6,4.2-5.4,8.4-8.1,12.6c-1.4,2.2-2.7,4.3-4.1,6.5
		c-2.1,3.2-4.1,6.6-6.2,9.8c-1,1.6-2,3.2-3,4.8c-1.5,2.4-3,4.8-4.5,7.3c-0.3,0.5-0.5,0.6-1.2,0.2c-3.5-2.3-6.9-4.7-10.2-7.2
		c-2.7-2-5.2-4.2-7.7-6.4c-2.2-1.9-4.3-3.8-6.3-5.8c-2.9-3-5.9-5.9-8.5-9.2C36.2,252.8,35.6,252.3,35.1,251.7z"/>
	<path class="st2" d="M256.9,40.9c-3.5,3.7-6.9,7.4-10.4,11.1c-2.6,2.8-5.2,5.6-7.8,8.4c-3,3.2-6,6.4-9,9.5
		c-2.7,2.7-5.1,5.6-7.7,8.4c-2.4,2.6-4.9,5.1-7.3,7.6c-0.7,0.7-1.4,1.4-2.1,2.1c-1.2,1.4-1.2,1.5-2.6,0.3c-1.7-1.5-3.6-2.7-5.5-3.9
		c-3.4-2.2-6.9-4.4-10.7-5.8c-0.9-0.4-1.3-1.1-0.9-2.1c0.8-2,1.7-4.1,2.4-6.1c0.7-2,1.7-3.8,2.3-5.8c0.5-1.8,1.5-3.4,2.1-5.2
		c1-2.8,2.2-5.6,3.3-8.4c1.3-3,2.4-6.1,3.6-9.1c1.5-3.6,2.8-7.3,4.3-10.9c1.7-4.3,3.3-8.6,5.1-12.9c0.8-1.9,0.8-1.9,2.6-1.1
		c4.4,1.8,8.6,3.9,12.7,6.2c2.8,1.5,5.6,3.1,8.3,4.9c4,2.6,8,5.2,11.8,8.1C253.2,37.8,255.2,39.2,256.9,40.9z"/>
	<path class="st6" d="M151.2,37.4c0,10.5,0,21,0.1,31.5c0,1-0.2,1.4-1.4,1.5c-2.7,0.1-5.4,0.3-8,0.8c-4,0.8-8,1.4-11.9,2.7
		c-0.7,0.3-0.9,0.1-1.2-0.6c-1.4-3.9-3.1-7.6-4.6-11.5c-1.9-4.9-3.8-9.7-5.8-14.5c-1.2-2.9-2.4-5.9-3.6-8.8c-1.4-3.5-2.8-7-4.2-10.6
		c-1.7-4.4-3.5-8.8-5.3-13.2c-0.9-2.2-0.7-2.3,1.5-2.9c2.4-0.7,4.7-1.5,7.1-2.1c2-0.5,4.1-1,6.1-1.4c2-0.4,4-1,6-1.4
		c1.6-0.3,3.2-0.3,4.7-0.7c3.7-0.8,7.4-0.9,11.1-1.5c2.7-0.5,5.6-0.3,8.4-0.4c1,0,0.7,0.7,0.7,1.2c0,7.3,0,14.7,0.1,22
		C151.2,30.9,151.2,34.1,151.2,37.4z"/>
	<path class="st7" d="M0.2,157.6c0-4.1,0-7,0-9.8c0-0.7,0.2-1,1-0.9c3.7,0.2,7.4,0.2,11,0.8c1.3,0.2,2.6,0.2,3.9,0.3
		c3,0.2,5.9,0.5,8.9,1c1.9,0.3,3.9,0.1,5.9,0.3c4.8,0.5,9.6,0.7,14.3,1.2c2.2,0.2,4.5,0.6,6.7,0.7c3.8,0.1,7.5,0.7,11.2,1
		c1.1,0.1,2.3,0,3.4,0c0.9,0,1.2,0,1.1,1.3c-0.3,2-0.3,4,0.1,6c0.1,0.3,0.1,0.6,0.1,0.9c-0.3,3.5,0.8,6.9,0.9,10.3
		c0,0.8,0.3,1.8,0.6,2.7c0.2,0.5,0.2,1.1-0.4,1.2c-2,0.3-3.8,1.3-5.7,1.6c-3.2,0.5-6.2,2-9.5,2.5c-2.4,0.4-4.7,1.5-7.2,2.1
		c-2.6,0.5-5,1.4-7.6,2.1c-2.8,0.8-5.6,1.7-8.4,2.4c-3.2,0.8-6.3,1.9-9.5,2.6c-3.8,0.8-7.5,2.2-11.3,3.3c-1.3,0.4-2.7,0.8-4.1,1.2
		c-0.8,0.2-1.5-0.5-1.7-1.6c-0.7-4.1-1.3-8.2-2.2-12.3c-0.5-2.2-0.5-4.4-0.8-6.6C0.3,166.7,0.1,161.5,0.2,157.6z"/>
	<path class="st8" d="M178.4,239.6c-0.1-0.8,0.4-1,1-1.2c5.2-1.5,10.3-3.3,15.2-5.7c1.1-0.5,2.2-0.9,3.2-1.6
		c0.8-0.6,1.5-0.3,1.9,0.5c1.2,1.9,2.4,3.7,3.6,5.6c1.5,2.4,3.1,4.7,4.6,7.1c1.9,3,3.8,6,5.7,9c2.4,3.8,4.8,7.5,7.1,11.3
		c3.4,5.3,6.7,10.7,10.1,16c1,1.6,2.2,3.2,3.2,4.8c0.5,0.7,0.7,1.3-0.3,1.8c-2.8,1.4-5.5,3-8.4,4.3c-2.2,1-4.4,2-6.6,3.1
		c-3.8,1.8-7.7,3.2-11.6,4.5c-3.6,1.2-7.3,2.4-11,3.3c-1.5,0.4-2.9,0.7-4.4,1c-0.5,0.1-0.8,0-0.9-0.6c-0.1-2-0.7-4-1.1-6
		c-0.8-4.2-1.6-8.4-2.4-12.7c-0.9-4.6-1.7-9.1-2.7-13.6c-0.9-4.1-1.5-8.3-2.5-12.5c-1-3.9-1.4-7.9-2.3-11.8
		C179.3,244,179.3,241.7,178.4,239.6z"/>
	<path class="st9" d="M310.2,135.6c0.3,1.1-0.7,1.2-1.3,1.2c-2.1,0-4.2,0.3-6.2,0.6c-3.1,0.5-6.3,0.4-9.4,1
		c-1.4,0.2-2.8,0.2-4.2,0.3c-4.7,0.3-9.3,0.9-14,1.3c-3.7,0.3-7.4,0.9-11.2,0.9c-3.2,0.1-6.4,0.8-9.6,0.9c-3.1,0.1-6.2,0.9-9.3,0.9
		c-0.1,0-0.2,0-0.3,0c-2.3,0.2-2.2,0.2-2.4-2c-0.2-1.8-0.6-3.6-1.1-5.3c-0.9-3.1-1.8-6.2-2.9-9.3c-0.4-1.1-0.7-2.2-1.3-3.2
		c-0.3-0.5-0.3-0.8,0.4-1.1c3.3-1.5,6.4-3.2,9.7-4.8c3-1.4,6-2.8,8.9-4.2c4.4-2.1,8.9-4.2,13.2-6.4c3.7-1.9,7.4-3.7,11.2-5.5
		c3.8-1.8,7.6-3.8,11.4-5.5c1.5-0.7,3.1-1.4,4.6-2.2c0.9-0.6,1.3,0,1.5,0.6c1.4,3.3,2.8,6.7,4.1,10.1c1.9,4.9,3.3,9.9,4.8,15
		c1.2,4.3,2,8.6,2.8,13C309.9,133.1,310,134.4,310.2,135.6z"/>
	<path class="st10" d="M292.7,83.6c0,0.3-0.3,0.4-0.5,0.5c-1.3,1-3,1.5-4.4,2.3c-2.5,1.3-5.1,2.4-7.6,3.6c-2.5,1.2-5,2.4-7.5,3.6
		c-4.4,2.2-8.9,4.2-13.3,6.5c-3.6,1.8-7.2,3.5-10.7,5.3c-3,1.5-6,2.9-9,4.3c-2.1,1-4.2,2.1-6.3,3.2c-0.9,0.5-1.3,0.4-1.8-0.5
		c-2.3-3.8-4.8-7.4-7.8-10.7c-1.4-1.5-2.6-3.2-4.2-4.6c-0.7-0.6-0.6-1,0.1-1.6c2.7-2.8,5.3-5.6,8-8.5c2.7-2.9,5.3-5.8,8-8.7
		c3.3-3.5,6.7-6.9,10-10.5c3.8-4.1,7.6-8.2,11.4-12.3c1.7-1.8,3.5-3.6,5.3-5.4c0.2-0.2,0.3-0.3,0.5-0.5c0.5-0.7,1-1.9,1.8-1.8
		c0.6,0,1.2,1.1,1.8,1.7c3.4,3.4,6.6,7,9.7,10.7c2.6,3.1,5.1,6.2,7.5,9.5c1.3,1.8,2.4,3.9,3.8,5.7c2,2.6,3.2,5.7,5.2,8.3
		C292.6,83.5,292.7,83.5,292.7,83.6z"/>
	<path class="st11" d="M101.2,88.7c-0.3-0.3-0.6-0.5-0.8-0.8c-2-2.2-4-4.4-6.1-6.5c-3.9-4-7.7-8.1-11.5-12.3
		c-3.3-3.6-6.8-7.1-10.2-10.7c-2.8-3-5.6-6.1-8.5-9.1c-2.6-2.8-5.2-5.5-7.9-8.2c-0.8-0.8-0.9-1.3,0.1-2.1c2.9-2.1,5.7-4.3,8.7-6.4
		c4.5-3.2,9.1-6.1,13.8-8.7c4.8-2.7,9.7-5,14.8-7.2c1.4-0.6,1.9-0.5,2.3,1.1c0.7,2.3,1.8,4.3,2.6,6.5c0.7,2,1.7,4,2.3,6.1
		c0.6,1.8,1.4,3.6,2.1,5.3c0.8,2,1.7,3.9,2.4,5.9c1.3,3.3,2.5,6.5,3.8,9.8c1.3,3.1,2.4,6.3,3.8,9.4c1.5,3.5,2.7,7.1,4.3,10.5
		c0.8,1.7,1.4,3.6,2.1,5.3c0.2,0.6,0.2,1-0.6,1.3c-3.9,1.8-7.7,3.8-11.3,6.1c-2,1.3-4,2.8-5.9,4.1C101.5,88.4,101.3,88.6,101.2,88.7
		z"/>
	<path class="st12" d="M162.9,4.4c4.4,0.2,8.7,0.7,13.1,1.2c2.8,0.3,5.6,0.9,8.3,1.2c2.4,0.3,4.8,1.2,7.2,1.6
		c4.4,0.8,8.5,2.3,12.8,3.4c0.8,0.2,1.6,0.6,2.4,0.9c0.4,0.1,0.5,0.3,0.3,0.7c-2,5.1-4.1,10.2-6,15.3c-1.1,2.9-2.2,5.8-3.4,8.7
		c-1.2,3-2.4,6.1-3.6,9.1c-1.8,4.4-3.5,8.9-5.3,13.4c-1.1,2.8-2.2,5.6-3.3,8.4c-0.7,1.7-1.3,3.5-2,5.3c-0.3,0.7-0.5,0.9-1.4,0.6
		c-2.5-0.8-5.1-1.5-7.7-2c-2.7-0.5-5.4-0.8-8.1-1.2c-1.4-0.3-2.8,0-4.1-0.4c-0.6-0.2-0.8-0.4-0.8-1c0-0.3,0-0.5,0-0.8
		c0-20.8-0.1-41.7-0.1-62.5C161.2,4.4,161.2,4.4,162.9,4.4z"/>
	<path class="st13" d="M93.1,95.3c-0.6,0.6-1.1,1.3-1.7,1.9c-1.6,1.6-3,3.3-4.5,4.9c-2,2.3-3.5,4.9-5.5,7.2
		c-0.6,0.7-0.9,1.6-1.4,2.4c-0.2,0.3-0.3,0.7-0.8,0.4c-0.8-0.5-1.9-0.5-2.6-1.1c-1.8-1.4-3.9-1.9-5.8-2.9c-3.1-1.6-6.3-3.2-9.6-4.6
		c-2.6-1.2-5.2-2.5-7.7-3.7c-2.1-1-4.2-2.1-6.3-3.1c-1.9-0.9-3.8-1.8-5.8-2.7c-3-1.3-5.9-2.9-8.8-4.3c-2.4-1.2-4.9-2.3-7.4-3.5
		c-1.9-0.9-3.7-2-5.6-2.7c-0.6-0.2-0.2-0.9,0-1.1c1.3-2.2,2.6-4.3,4-6.4c1.8-2.8,3.7-5.6,5.7-8.2c1.4-1.9,2.9-3.8,4.4-5.7
		c3.1-4,6.6-7.6,10-11.2c1.1-1.2,2.4-2.5,3.8-3.5c0.3-0.3,0.6,0,0.7,0.1c1.3,1.4,2.7,2.7,3.9,4.3c0.7,0.9,1.7,1.5,2.5,2.4
		c1.5,1.8,3.1,3.4,4.7,5c3.2,3.3,6.4,6.7,9.5,10c2.6,2.7,5,5.6,7.6,8.3c1.9,1.9,3.8,3.9,5.6,5.8c2.4,2.5,4.8,5,7.1,7.7
		c1.1,1.3,2.6,2.3,3.5,3.8C92.7,94.9,92.9,95.1,93.1,95.3z"/>
	<path class="st0" d="M311.6,155.3c0.1,5.1-0.4,9.8-0.8,14.5c-0.4,5.4-1.2,10.7-2.4,16c-0.4,1.7-0.5,3.5-1.1,5.3
		c-0.3,0.8-0.7,0.8-1.2,0.7c-2.7-0.8-5.4-1.9-8.2-2.4c-3.2-0.7-6.3-1.7-9.4-2.6c-4.1-1.1-8.1-2.3-12.2-3.4c-3.2-0.9-6.3-1.8-9.5-2.6
		c-2.8-0.6-5.5-1.6-8.2-2.3c-1.6-0.5-3.3-0.8-4.8-1.3c-3.6-1.2-7.3-1.8-10.9-3.1c-0.6-0.2-0.7-0.3-0.6-0.9c0.6-3.7,1.2-7.5,1.5-11.3
		c0.2-2.4,0.1-4.8,0-7.2c-0.1-1.3,0.3-1.7,1.6-1.8c2.8-0.2,5.6-0.7,8.4-1c1.7-0.2,3.4-0.1,5.1-0.3c3.7-0.5,7.4-0.8,11.1-1.1
		c3.2-0.3,6.5-0.7,9.7-0.9c3.4-0.2,6.7-0.7,10.1-0.9c2.2-0.2,4.3-0.4,6.5-0.7c2.8-0.4,5.6-0.4,8.4-0.9c2-0.4,4-0.3,6-0.4
		c0.7,0,0.7,0.3,0.7,0.8C311.2,150.2,311.8,152.9,311.6,155.3z"/>
	<path class="st14" d="M239.7,183.6c2,0.2,3.9,0.8,5.8,1.4c2.7,0.9,5.6,1.4,8.3,2.3c3.1,1,6.3,1.8,9.4,2.6c2.9,0.8,5.9,1.7,8.8,2.5
		c3.1,0.9,6.2,1.6,9.4,2.5c3.8,1.1,7.6,2.2,11.4,3.2c2.2,0.6,4.5,1.3,6.7,1.8c1.3,0.3,2.6,0.6,3.8,1.1c0.7,0.3,1,0.6,0.7,1.5
		c-1.6,4.5-3.3,8.9-5.2,13.3c-1.8,4.2-3.8,8.2-6,12.1c-1.8,3.3-3.7,6.6-6,9.7c-0.9,1.1-1.6,2.4-2.4,3.6c-0.4,0.6-0.6,0.8-1.2,0.2
		c-3.7-2.8-7.4-5.5-11.1-8.2c-4-2.9-7.9-5.8-11.9-8.6c-4-2.8-7.9-5.8-11.9-8.6c-4.4-3.1-8.6-6.4-12.9-9.6c-1.5-1.1-3-2.3-4.6-3.3
		c-1-0.7-1.2-1.3-0.5-2.2c1.9-2.6,3.4-5.5,4.8-8.4c1.3-2.6,2.5-5.3,3.4-8.1C238.8,184,238.9,183.3,239.7,183.6z"/>
	<path class="st0" d="M153.1,144.4c-5.5,0-10.9,0-16.4,0.1c-1,0-1.3-0.2-1.3-1.2c0.1-2.2,0-4.4,0-6.6c0-0.8,0.2-1,1-1
		c11.2,0,22.3,0,33.5-0.1c0.7,0,1,0.2,1,1c0,2.2,0,4.5,0,6.7c0,0.9-0.3,1.1-1.1,1.1C164.3,144.3,158.7,144.3,153.1,144.4z"/>
	<path class="st0" d="M153.1,159.3c-5.4,0-10.9,0-16.3,0c-0.9,0-1.3-0.2-1.3-1.2c0.1-2.1,0-4.3,0-6.5c0-0.8,0.2-1.1,1-1.1
		c11.2,0,22.3,0,33.5-0.1c0.9,0,1,0.4,1,1.1c0,2.1-0.1,4.2,0,6.3c0,1-0.2,1.3-1.3,1.3C164.2,159.3,158.7,159.3,153.1,159.3z"/>
</g>
</svg>
