<?xml version="1.0" encoding="utf-8"?>
<!-- Generator: Adobe Illustrator 22.0.0, SVG Export Plug-In . SVG Version: 6.00 Build 0)  -->
<svg version="1.1" id="Capa_1" xmlns="http://www.w3.org/2000/svg" xmlns:xlink="http://www.w3.org/1999/xlink" x="0px" y="0px"
	 viewBox="0 0 280.5 235.1" style="enable-background:new 0 0 280.5 235.1;" xml:space="preserve">
<style type="text/css">
	.st0{fill:#EF7B4F;}
	.st1{fill-rule:evenodd;clip-rule:evenodd;fill:#FFFFFF;}
	.st2{fill:#FFFFFF;}
</style>
<g>
	<g>
		<path class="st0" d="M240.2,117.6c0,55.2-44.8,100-100,100c-55.2,0-100-44.8-100-100c0-55.2,44.8-100,100-100
			C195.5,17.6,240.2,62.4,240.2,117.6z"/>
	</g>
	<g id="kLBFWm.tif">
		<g>
			<path class="st1" d="M83.7,62.4c8.1,2.7,16.2,5.5,24.3,8.2c0.6,0.2,1.2,0.4,2,0.7c-5.9,5.9-11.6,11.6-17.6,17.6
				c-0.3-0.7-0.5-1.3-0.6-1.8c-2.3-7.1-4.7-14.1-7-21.2c-0.3-1-0.9-2-1.4-3.1C83.4,62.7,83.6,62.5,83.7,62.4z"/>
			<path class="st1" d="M95.7,92.4c6-6,11.9-11.9,17.8-17.8c24.4,24.4,48.8,48.8,73.2,73.2c-0.9,0.9-1.7,1.7-2.5,2.5
				c-23-23-46.1-46.1-69.2-69.2c-0.8,0.8-1.6,1.6-2.5,2.5c23,23,46,46,69.3,69.3c-4.3,4.3-8.5,8.5-12.8,12.8
				C144.7,141.4,120.2,116.9,95.7,92.4z"/>
			<path class="st1" d="M172.5,169.4c6-6,11.9-11.9,17.9-17.9c3.7,3.9,8.2,7.1,10.3,12c1.3,3,0.4,5.2-1.1,6.9
				c-2.7,3-5.4,5.9-8.5,8.4c-3.3,2.7-6.7,2.3-11.6-2.3C177.3,174.2,175,171.9,172.5,169.4z"/>
		</g>
	</g>
	<g>
		<g>
			<path class="st2" d="M176.8,62.7c-13.5,5-11.9,13.1-12.1,15.6c-0.9,8.8-3.2,11.2-3.2,11.2L147,103.9l0,0l-22.8,22.7l-0.1,0.1l0,0
				l-8.7,8.7c0,0-5.7,6.1-14.9,6.1c-8.3,0-8.6,2.2-10.4,5c-4.3,6.5-5.5,14.2-6.8,19.4c-0.8,3.4,0.4,1.8,0.4,1.8s9.3-10.1,10-11.1
				c2.3-3.2,4.3-1.6,4.3-1.6s9.2,6.6,10.5,7.8c2,2-0.3,5-0.3,5l-10.9,12.1c-1.9,2.5-2.2,2.6,8.6-1.4c13.5-5,11.9-13.1,12.1-15.6
				c0.9-8.8,3.2-11.2,3.2-11.2l14.5-14.5l0,0l31.6-31.5c0,0,5.7-6.1,14.9-6.1c8.3,0,8.6-2.2,10.4-5c4.3-6.5,5.5-14.2,6.8-19.4
				c0.8-3.4-0.4-1.8-0.4-1.8s-9.3,10.1-10,11.1c-2.3,3.2-4.3,1.6-4.3,1.6s-9.2-6.6-10.5-7.8c-2.1-2,0.3-5,0.3-5l10.9-12.1
				C187.3,58.7,187.6,58.6,176.8,62.7z"/>
			<path class="st0" d="M116.6,141l45.5-45.5c0,0,5.8-1.3,4.4,4.4c-0.1,0.5-45.5,45.5-45.5,45.5S115.1,147.2,116.6,141z"/>
		</g>
	</g>
</g>
</svg>
