<?xml version="1.0" encoding="utf-8"?>
<!-- Generator: Adobe Illustrator 22.0.0, SVG Export Plug-In . SVG Version: 6.00 Build 0)  -->
<svg version="1.1" id="Capa_1" xmlns="http://www.w3.org/2000/svg" xmlns:xlink="http://www.w3.org/1999/xlink" x="0px" y="0px"
	 viewBox="0 0 280.5 235.1" style="enable-background:new 0 0 280.5 235.1;" xml:space="preserve">
<style type="text/css">
	.st0{fill:#EF7B4F;}
</style>
<g>
	<rect x="142.8" y="132.9" class="st0" width="4" height="37.3"/>
	<rect x="163.8" y="132.9" class="st0" width="4" height="37.3"/>
	<rect x="184.8" y="132.9" class="st0" width="4" height="37.3"/>
	<rect x="132.3" y="132.9" class="st0" width="4" height="37.3"/>
	<rect x="174.3" y="132.9" class="st0" width="4" height="37.3"/>
	<rect x="153.3" y="132.9" class="st0" width="4" height="37.3"/>
	<path class="st0" d="M140.2,17.6c-55.2,0-100,44.8-100,100c0,55.2,44.8,100,100,100c55.2,0,100-44.8,100-100
		C240.2,62.3,195.5,17.6,140.2,17.6z M142.3,39.9h15.8v11.5h-15.8V39.9z M138.8,61.9v-22h2v22c30,0.4,35.8,31.3,35.8,31.3h-72.9
		C103.7,93.2,109.5,62.8,138.8,61.9z M103.7,95.6h72.9v3h-72.9V95.6z M96.2,101.4h87.4v3.7h-3.6v21h-6.5v-21h-4v21h-6.5v-21h-4v21
		h-6.5v-21h-4v21h-6.5v-21h-4v21h-6.5v-21h-4v21h-6.5v-21h-4v21h-6.5v-21h-4v21h-6.5v-21h-3.7V101.4z M199.6,132.9h-4.3v37.3h4.3
		v3.7H80.1v-3.7h3.7v-37.3h-3.7v-3.7h119.5V132.9z"/>
	<rect x="90.3" y="132.9" class="st0" width="4" height="37.3"/>
	<rect x="111.3" y="132.9" class="st0" width="4" height="37.3"/>
	<rect x="121.8" y="132.9" class="st0" width="4" height="37.3"/>
	<rect x="100.8" y="132.9" class="st0" width="4" height="37.3"/>
</g>
</svg>
