<?xml version="1.0" encoding="utf-8"?>
<!-- Generator: Adobe Illustrator 22.0.1, SVG Export Plug-In . SVG Version: 6.00 Build 0)  -->
<svg version="1.1" id="Capa_1" xmlns="http://www.w3.org/2000/svg" xmlns:xlink="http://www.w3.org/1999/xlink" x="0px" y="0px"
	 viewBox="0 0 161.5 131.9" style="enable-background:new 0 0 161.5 131.9;" xml:space="preserve">
<style type="text/css">
	.st0{fill:none;stroke:#EF7B4F;stroke-width:4;stroke-miterlimit:10;}
	.st1{fill:#EF7B4F;}
</style>
<g>
	<g>
		<path class="st0" d="M131.1,54.1c0,27.6-22.4,50-50,50s-50-22.4-50-50s22.4-50,50-50C108.7,4,131.1,26.4,131.1,54.1z"/>
	</g>
	<g>
		<g>
			<path class="st1" d="M106.9,115.5c-4.8-2-9.4-4.4-14.8-4.8c-3.2-0.2-6.4-0.1-9.5,0.7c-0.9,0.2-1.7,0.6-2.7,0.3
				c-4.1-1.3-8.3-1.3-12.6-0.3c-4.8,1.1-9.2,3.1-13.7,5.1c-4.7,2-9.5,2.4-14.4,1.1c-1.7-0.4-3.2-1.2-5-2c5.6,6.1,14.3,9.2,22.8,6.3
				c3.8-1.3,7-3.5,10.2-5.7c1.4-1,2.7-1.9,4.3-2.6c2.1-1,4.6-1.1,6.1-0.3c-1.1,0.6-2.1,1.1-3.1,1.7c-4.8,2.6-9.1,6-13.1,9.8
				c-0.4,0.4-0.4,0.6,0.1,1c0.8,0.7,1.8,1.2,2.4,2.2c0.1,0,0.2,0,0.3,0c1.5-2.2,3.4-4.1,5.4-6c2.9-2.7,6.1-5,9.5-7
				c1.3-0.7,2.4-0.9,3.7-0.1c5,2.9,9.2,6.7,13.2,10.8c2.2,2.2,2.2,2.2,4.4-0.1c0.5-0.5,0.6-0.8,0-1.3c-3.3-3-6.7-5.7-10.5-8
				c-1.8-1.1-3.7-1.9-5.6-3.1c3.1-0.7,5.7-0.4,8.2,1.3c3.3,2.2,6.4,4.7,10.2,6.2c7.3,3,14.3,2.5,20.8-1.9c2-1.4,2.9-2.2,3.5-3.5
				c-2.8,1.6-5.7,2.4-8.9,2.6C114.2,118,110.5,117,106.9,115.5z"/>
		</g>
		<g>
			<path class="st1" d="M13.7,84.8c3.4,3,7.1,5.4,10.8,7.8c1.4,0.9,2.7,1.7,4.1,2.6c-0.2-1-0.6-1.9-1-2.7c-0.5-1.1-1-2.2-1.2-3.3
				c-0.7-3.2-1-6.5-1.3-9.8c-0.5-5.6-0.9-11.3-3.1-16.6c-0.1-0.1-0.2-0.1-0.3,0c0.1,1.8-0.1,3.6-0.4,5.4c-0.5,2.6-1.1,5.2-1.4,7.8
				c-0.3,3.8,0.5,7.3,2,10.7c0,0.2,0.1,0.3,0.2,0.5c-0.2,0-0.3-0.1-0.4-0.2c-1.5-1.9-2.6-4.1-4.3-5.9c-2.5-2.7-5-5.3-7.5-8
				c-2-2.3-3.8-4.7-4.5-7.8c-0.3-0.2-0.3,0.1-0.5,0.2c0,0.5,0,1,0,1.5c0.2,0.5,0.2,1,0,1.5c0,0.4,0,0.8,0,1.3c0.4,0.2,0.3,0.7,0.4,1
				C6.5,76.5,9.4,81.1,13.7,84.8z"/>
		</g>
		<g>
			<path class="st1" d="M156.3,63.8c-0.1-0.2,0.2-0.6-0.3-0.5c-0.5,3-1.9,5.5-3.8,7.8c-1.8,2.4-4,4.4-6.1,6.5
				c-2.4,2.5-4.2,5.5-6.3,8.3c-0.3,0.1-0.4,0.3-0.5,0.4c0-0.1,0.1-0.4,0.2-0.7c2.1-4.3,2.5-8.8,1.5-13.5c-0.5-2.5-1-5.1-1.3-7.7
				c-0.2-0.5,0-1-0.1-1.4c-0.1-0.3,0.3-0.8-0.3-0.8c-0.5,1.3-1,2.6-1.3,3.9c-1.2,4.8-1.2,9.8-1.7,14.7c-0.5,4.6-1.1,9.1-3.4,13.2
				c0.4,0.2,0.6,0,0.9-0.1c3.5-2.3,7-4.6,10.4-7.1c4.8-3.5,8.6-7.8,10.9-13.4c0.6-1.6,0.8-3.4,1.5-5c0-0.9,0-1.8,0-2.8
				C156.2,65.1,156.4,64.5,156.3,63.8z"/>
		</g>
		<g>
			<path class="st1" d="M9.8,67.6c2.5,3.4,5.5,6.4,7.6,10c0,0.1,0.2,0.1,0.4,0.1c-0.8-4.2-0.1-8.1,1.2-12.1
				c1.8-5.6,3.2-11.4,3.6-17.3c0.2-0.8,0.1-1.5,0.1-2.3c0-0.3,0.2-0.7-0.4-0.7c-0.5,2.2-1.5,4.2-2.7,6c-3.2,4.9-5.6,10-5.1,16.1
				c0.2,0.4-0.1,0.8,0.1,1.2c0,0.2,0.1,0.3,0.1,0.5c0,0.1,0.1,0.2,0,0.3c0-0.1,0-0.2,0-0.4c-0.1-0.4-0.2-0.8-0.5-1.1
				c-0.9-5.4-3-10.4-5.2-15.3c-1.4-3.1-2.3-6.4-2.1-9.9c0.1-0.3,0.2-0.5-0.3-0.5c-0.5,2-1,4-1.5,6c0,0.6,0,1.2,0,1.8
				c0.2,1,0.2,2,0,3c0,0.6,0,1.2,0,1.8c0.5,0.4,0.4,1.1,0.5,1.6C6.3,60.5,7.3,64.3,9.8,67.6z"/>
		</g>
		<g>
			<path class="st1" d="M150.9,83.7c-1.4,2.8-3.5,5-6.1,6.8c-2.7,1.9-5.6,3.3-8.6,4.8c-3.6,1.8-7,3.8-10,6.5c-0.5,0.4-1,1-1.9,1
				c3.6-3.3,6.2-7,7.2-11.7c1-4.6,1.1-9.4,2.8-13.9c-0.5,0-0.6,0.3-0.8,0.5c-3.1,3.9-5.8,8.2-7.3,13c-0.9,2.8-1.8,5.5-2.9,8.2
				c-1.3,2.9-2.9,5.6-5.3,7.9c1.9-0.4,3.6-0.9,5.4-1.2c2.9-0.6,5.9-1,8.7-1.9c4.6-1.6,8.5-4.2,11.9-7.6c3.3-3.4,6-7.3,6.9-12.1
				C151.3,83.7,151.2,83.6,150.9,83.7z"/>
		</g>
		<g>
			<path class="st1" d="M38.1,106.1c1.7,0.3,3.3,0.7,5,1c-1.2-1.5-2.4-2.9-3.4-4.5c-1.7-2.8-2.8-5.8-3.8-8.9
				c-1.6-5.1-4-9.9-7.4-14.1c-0.4-0.5-0.7-1.1-1.6-1.6c1.5,3.8,1.8,7.6,2.4,11.3c0.8,5.1,2.8,9.6,6.8,13c0.2,0.2,0.5,0.3,0.3,0.7
				c-1.4-0.6-2.5-1.7-3.7-2.6C29.1,97.7,25,96,21,93.9c-2.9-1.5-5.6-3.1-7.8-5.4c-1-1.1-1.8-2.4-2.7-3.6c-0.2,0.3-0.1,0.5,0,0.8
				c0.8,2.8,2.1,5.4,3.9,7.7c3.5,4.6,7.7,8.2,13.1,10.3C30.9,105.1,34.5,105.5,38.1,106.1z"/>
		</g>
		<g>
			<path class="st1" d="M139.2,102.7c-0.1,0.1-0.3,0.2-0.4,0.3c-2.9,2.8-6.5,4-10.3,4.6c-6.1,1-12.4,1-18.5,2.3
				c-0.3,0-0.8,0.5-1-0.2c0.4-0.1,0.8-0.2,1.2-0.4c3.4-1,6.1-2.8,8.1-5.8c2.1-3.3,3.3-7.1,5.5-10.5c-0.7,0-1,0.4-1.4,0.7
				c-3.8,2.9-7.1,6.3-10.4,9.7c-2.9,3-6.2,5.3-10.3,6.3c-1,0.3-1.9,0.5-2.9,0.8c4,0.8,7.9,1.8,11.8,2.7c3.1,0.7,6.3,1.2,9.5,1.1
				c7.1-0.3,12.8-3.5,17.5-8.8c0.7-0.8,1.4-1.7,1.9-2.8C139.4,102.7,139.3,102.7,139.2,102.7z"/>
		</g>
		<g>
			<path class="st1" d="M45.7,114.6c5.8-0.6,11.3-2.8,17.1-3.9c-0.5-0.1-1-0.3-1.6-0.4c-3.7-1-7.1-2.4-9.9-5c-2.2-2-4.3-4.1-6.5-6.2
				c-2.2-2.1-4.5-4-7.1-5.6c2.1,3.3,3.5,7.1,5.6,10.3c1.8,2.7,4.2,4.6,7.4,5.6c0.8,0.2,1.6,0.3,2.3,0.8c-0.6,0-1.2,0-1.8-0.1
				c-1.9-0.3-3.7-0.7-5.6-0.9c-3.7-0.4-7.4-0.6-11-1c-4.4-0.5-8.5-1.6-11.9-4.6c-0.1-0.1-0.3-0.1-0.4,0c0,0.1,0,0.2,0.1,0.2
				c0.1,0.1,0.1,0.2,0.2,0.3C28.4,112.2,36.1,115.6,45.7,114.6z"/>
		</g>
		<g>
			<path class="st1" d="M152.3,52c-2.1,4.7-4,9.4-4.9,14.4c-0.1,0-0.2,0.5-0.2,0.1c-0.2-1.6,0.1-3.2-0.2-4.9
				c-0.5-3.3-2.1-6.1-3.8-8.8c-1.6-2.6-3.2-5.2-4.4-8.1c-0.3,2.3,0.1,4.6,0.5,6.9c0.9,5.2,2.3,10.3,4,15.3c0.9,2.6,1,5.3,0.7,8
				c-0.1,0.6-0.1,1.2-0.1,1.8c2.2-3,4.6-5.8,6.8-8.7c0.8-1.1,1.7-2.2,2.3-3.4c1.8-3.6,2.8-7.5,3.1-11.5c0.3-3.8,0-7.6-1.4-11.3
				c-0.5,0-0.3,0.4-0.4,0.6c-0.1,0.8,0.1,1.6-0.1,2.4C153.9,47.3,153.3,49.7,152.3,52z"/>
		</g>
		<g>
			<path class="st1" d="M147.4,34.2c-0.4,4.4-0.3,8.7,0,13.1c0,0.3,0.5,0.7-0.2,0.8c-0.2-1.2-0.4-2.4-0.8-3.5
				c-1.2-3.6-3.8-6.1-6.5-8.5c-2-1.8-4.2-3.5-5.6-5.9c-0.2-0.1-0.3,0-0.3,0.3c0.9,4.3,2.7,8.2,5.3,11.7c3.4,4.6,7.3,8.9,8.5,14.9
				c0.6-2.9,1.4-5.8,2.4-8.6c0.5-1.4,1.1-2.8,1.5-4.3c2-8,0.5-15.4-4.4-22c-0.4-0.5-0.4-0.5-1.1-0.9c1.3,2.6,1.7,5.2,1.7,8
				C147.8,30.9,147.5,32.6,147.4,34.2z"/>
		</g>
		<g>
			<path class="st1" d="M13.7,57.8c0.4-0.9,0.6-1.8,0.9-2.6c1.2-3.2,3.1-6,5-8.8c2.1-3.1,4.5-6,5.8-9.6c0.7-1.8,1.3-3.6,1.3-5.5
				c-1.9,2.7-4.5,4.5-6.7,6.8c-2.9,3-5.2,6.3-5.8,10.5C14.1,48.7,14,48.9,14,49s0,0.2,0,0.2c0,0.2,0,0.2,0,0.3l0,0l0,0
				c0,0,0,0,0-0.1s0-0.2,0.1-0.4c0-0.4-0.3-0.9,0-1.5c0-0.8-0.1-1.7,0.1-2.5c0.4-2.6,0.1-5.1-0.1-7.7c-0.2-2-0.6-4-0.7-6
				c-0.2-2.8-0.2-5.7,1.2-8.7c-1.1,0.7-1.4,1.5-1.9,2.2C9.3,30,8.2,35.7,9.1,41.9C9.7,47.5,13,52.3,13.7,57.8z"/>
		</g>
		<g>
			<path class="st1" d="M138.7,17.3c1.2,4.2,2.1,8.4,3.4,12.6c0,0.2,0.1,0.4,0,0.5c0-0.1-0.1-0.2-0.2-0.3c-1.5-2.3-3.4-4.2-5.7-5.8
				c-1.9-1.4-3.9-2.7-5.8-4.3c-1.2-1-2.1-2.4-3.2-3.8c0.8,5.2,3.4,9.1,7.3,12.2c3.8,3,7.9,5.8,10.6,10.1c0.2-0.3,0.2-0.6,0-0.9
				c-0.1-3.1-0.1-6.1,0.1-9.2c0.3-4.9-0.7-9.3-4-13.1c-1.8-2.1-4-3.7-7.2-4.5C136.5,12.7,138,14.8,138.7,17.3z"/>
		</g>
		<g>
			<path class="st1" d="M16,39.4c0,0,0.1,0.1,0.2,0.1c1.6-2.8,3.8-5.1,6.3-7.1c2.5-1.9,4.9-3.8,6.9-6.3s3.5-5.2,4-8.4
				c0-0.3,0.4-0.7-0.3-0.8c-1.2,2.5-3.2,4.2-5.4,5.9c-2.5,1.8-5.2,3.5-7.1,6c-0.8,1-1.5,2.1-2.2,3.2c0.3-1.5,0.8-2.9,1.2-4.4
				c0.6-2.4,1.2-4.8,1.7-7.2c0.7-3.2,1.9-6.1,4.3-8.4c-0.4,0-0.7,0.1-1,0.3c-0.3,0.1-0.5,0.2-0.8,0.4c-5.2,3-7.9,7.4-8.2,13.4
				C15.5,30.6,16.2,35,16,39.4z"/>
		</g>
		<g>
			<path class="st1" d="M121.7,6.1c0.9,0.9,1.9,1.8,2.6,2.9c2.7,4.2,5.9,7.8,9.6,11.1c1.3,1.2,2.5,2.3,4,3.2
				c-1.7-10.5-7.8-16.8-18.2-19.1C120.4,4.8,121,5.4,121.7,6.1z"/>
		</g>
		<g>
			<path class="st1" d="M23.3,23.8c2.8-2.4,5.8-4.5,8-7.4c3-3.9,5.5-8,9-11.5c-9.7,3.6-14.2,5.5-17.6,18.9
				C22.9,23.9,23.1,23.9,23.3,23.8z"/>
		</g>
	</g>
	<path class="st1" d="M95.4,95.1c2.4-3.1,5-7.1,7.3-12.1c5.3,1.7,9.9,3.9,13.8,6.4c0.7-0.7,1.4-1.5,2.1-2.3c-4-2.5-8.9-5-14.7-6.9
		c2.7-6.6,4.7-14.8,4.9-24.4h22.3c0-0.6,0-1.2,0-1.9c0-0.4,0-0.8,0-1.1h-22.3c-0.2-10-2.3-18.3-5.2-25.1c5.7-1.9,10.7-4.4,14.8-7
		c-0.7-0.8-1.4-1.5-2.1-2.2c-4,2.5-8.6,4.8-14,6.5c-2.2-4.6-4.7-8.4-7-11.4c-3.3-4.3-6.6-7.3-9.1-9.4C84.5,4,82.8,3.9,81,3.9
		c-1.8,0-3.7,0.1-5.5,0.3c-2.4,2.2-5.5,5.2-8.7,9.3c-2.4,3-4.9,6.9-7.1,11.7c-5.4-1.7-10.1-4-14-6.4c-0.7,0.7-1.4,1.5-2.1,2.3
		c4.1,2.5,9,5,14.9,6.9c-2.8,6.8-4.9,15.1-5,25H31.1c0,0.4,0,0.8,0,1.1c0,0.6,0,1.2,0,1.9h22.3c0.2,9.7,2.2,17.8,5,24.5
		c-5.6,1.9-10.5,4.3-14.7,7c0.7,0.8,1.4,1.5,2.1,2.2c3.9-2.4,8.5-4.7,13.8-6.4c2.2,4.8,4.8,8.7,7.2,11.8c3,3.9,6,6.8,8.4,8.8
		c1.9,0.2,3.9,0.4,5.9,0.4c2.1,0,4.1-0.1,6.2-0.4C89.6,101.7,92.5,98.8,95.4,95.1z M79.6,103.4c-3.8-2.9-11.6-9.7-17.1-21.1
		c5.1-1.4,10.7-2.3,17.1-2.4V103.4z M79.6,76.9C72.8,77,66.7,78,61.3,79.6c-2.7-6.5-4.7-14.3-4.9-23.6h23.2V76.9z M79.6,52.9H56.4
		c0.2-9.5,2.1-17.5,4.9-24.1c5.4,1.5,11.5,2.4,18.2,2.5v21.6H79.6z M79.6,28.4c-6.3-0.1-11.9-0.9-17-2.3c5.5-11.4,13.2-18.2,17-21
		V28.4z M82.6,5.2C85,7,89.1,10.5,93.1,15.6c2.1,2.7,4.4,6.1,6.4,10.3c-5,1.4-10.6,2.3-16.9,2.4V5.2z M82.6,31.3
		c6.7-0.1,12.7-1.1,18.1-2.6c2.8,6.5,4.8,14.6,5,24.2H82.6V31.3z M82.6,55.9h23.2c-0.2,9.2-2.1,17-4.8,23.5
		c-5.4-1.5-11.6-2.5-18.4-2.6C82.6,76.8,82.6,55.9,82.6,55.9z M82.6,79.8c6.3,0.1,12.1,1,17.2,2.4c-5.5,11.6-13.3,18.5-17.2,21.4
		V79.8z"/>
</g>
</svg>
